<svg width="300" height="300" viewBox="0 0 300 300" fill="none" xmlns="http://www.w3.org/2000/svg">
<path d="M254.787 40.697C254.787 40.697 219.071 8.75601 168.823 15.9632C118.576 23.1704 79.3104 62.1236 46.6596 92.84C14.0088 123.556 9.00118 166.293 33.2514 196.58C57.5016 226.867 88.9278 209.59 133.169 226.15C177.411 242.709 186.677 253.84 232.838 243.614C278.998 233.388 308.841 176.963 297.437 121.567C286.034 66.1718 254.787 40.697 254.787 40.697Z" fill="#BD6AF0"/>
<path opacity="0.8" d="M254.787 40.697C254.787 40.697 219.071 8.75601 168.823 15.9632C118.576 23.1704 79.3104 62.1236 46.6596 92.84C14.0088 123.556 9.00118 166.293 33.2514 196.58C57.5016 226.867 88.9278 209.59 133.169 226.15C177.411 242.709 186.677 253.84 232.838 243.614C278.998 233.388 308.841 176.963 297.437 121.567C286.034 66.1718 254.787 40.697 254.787 40.697Z" fill="white"/>
<path d="M261.043 143.002C257.501 141.075 255.887 142.682 254.6 141.075C253.313 139.468 258.149 135.272 248.477 131.083C248.477 131.083 247.837 122.067 234.624 121.723C221.411 121.38 224.96 130.748 221.419 133.002C217.877 135.256 216.91 131.715 213.361 133.969C209.812 136.224 211.427 140.732 208.533 141.379C205.639 142.027 201.763 138.478 198.221 140.732C194.68 142.986 194.672 144.921 193.066 144.921C191.459 144.921 188.23 143.634 186.303 144.921C184.376 146.208 182.114 147.822 182.114 147.822H263.624C263.624 147.822 264.592 144.936 261.043 143.002Z" fill="#BD6AF0"/>
<path opacity="0.5" d="M261.043 143.002C257.501 141.075 255.887 142.682 254.6 141.075C253.313 139.468 258.149 135.272 248.477 131.083C248.477 131.083 247.837 122.067 234.624 121.723C221.411 121.38 224.96 130.748 221.419 133.002C217.877 135.256 216.91 131.715 213.361 133.969C209.812 136.224 211.427 140.732 208.533 141.379C205.639 142.027 201.763 138.478 198.221 140.732C194.68 142.986 194.672 144.921 193.066 144.921C191.459 144.921 188.23 143.634 186.303 144.921C184.376 146.208 182.114 147.822 182.114 147.822H263.624C263.624 147.822 264.592 144.936 261.043 143.002Z" fill="white"/>
<path d="M240.076 30.3074C235.131 27.6008 232.877 29.855 231.075 27.6008C229.273 25.3466 236.028 19.52 222.518 13.6466C222.518 13.6466 221.621 1.0418 203.159 0.589401C184.696 0.137001 189.657 13.1942 184.704 16.3454C179.751 19.4966 178.394 14.5436 173.449 17.6948C168.503 20.846 170.742 27.1562 166.694 28.0532C162.646 28.9502 157.232 23.9972 152.318 27.1562C147.404 30.3152 147.365 33.0062 145.111 33.0062C142.857 33.0062 138.356 31.2044 135.658 33.0062C132.959 34.808 129.8 37.0544 129.8 37.0544H243.68C243.68 37.0544 245.029 33.0062 240.076 30.3074Z" fill="#BD6AF0"/>
<path opacity="0.5" d="M240.076 30.3074C235.131 27.6008 232.877 29.855 231.075 27.6008C229.273 25.3466 236.028 19.52 222.518 13.6466C222.518 13.6466 221.621 1.0418 203.159 0.589401C184.696 0.137001 189.657 13.1942 184.704 16.3454C179.751 19.4966 178.394 14.5436 173.449 17.6948C168.503 20.846 170.742 27.1562 166.694 28.0532C162.646 28.9502 157.232 23.9972 152.318 27.1562C147.404 30.3152 147.365 33.0062 145.111 33.0062C142.857 33.0062 138.356 31.2044 135.658 33.0062C132.959 34.808 129.8 37.0544 129.8 37.0544H243.68C243.68 37.0544 245.029 33.0062 240.076 30.3074Z" fill="white"/>
<path d="M109.98 87.8636C106.439 85.9292 104.824 87.5438 103.537 85.9292C102.25 84.3146 107.078 80.1338 97.4142 75.9452C97.4142 75.9452 96.7668 66.9206 83.5614 66.5852C70.356 66.2498 73.8972 75.6098 70.3482 77.864C66.7992 80.1182 65.8398 76.577 62.2986 78.8312C58.7574 81.0854 60.3642 85.5938 57.4626 86.2412C54.561 86.8886 50.7 83.3396 47.151 85.5938C43.602 87.848 43.6098 89.7824 41.9952 89.7824C40.3806 89.7824 37.167 88.4954 35.2326 89.7824C33.2982 91.0694 31.044 92.684 31.044 92.684H112.538C112.538 92.684 113.521 89.798 109.98 87.8636Z" fill="#BD6AF0"/>
<path opacity="0.5" d="M109.98 87.8636C106.439 85.9292 104.824 87.5438 103.537 85.9292C102.25 84.3146 107.078 80.1338 97.4142 75.9452C97.4142 75.9452 96.7668 66.9206 83.5614 66.5852C70.356 66.2498 73.8972 75.6098 70.3482 77.864C66.7992 80.1182 65.8398 76.577 62.2986 78.8312C58.7574 81.0854 60.3642 85.5938 57.4626 86.2412C54.561 86.8886 50.7 83.3396 47.151 85.5938C43.602 87.848 43.6098 89.7824 41.9952 89.7824C40.3806 89.7824 37.167 88.4954 35.2326 89.7824C33.2982 91.0694 31.044 92.684 31.044 92.684H112.538C112.538 92.684 113.521 89.798 109.98 87.8636Z" fill="white"/>
<path d="M145.517 234.465H146.125C147.35 234.418 150.025 234.332 150.758 234.332C151.679 234.332 153.223 236.337 151.835 238.185C150.446 240.034 149.495 242.194 147.521 242.655C145.548 243.115 145.821 244.355 144.401 245.892C142.982 247.428 139.16 247.748 137.155 247.28C135.151 246.812 136.999 236.797 137.311 236.36C137.623 235.923 141.04 238.17 145.517 234.465Z" fill="white" stroke="#263238" stroke-linecap="round" stroke-linejoin="round"/>
<path d="M147.521 242.639C149.526 242.179 150.446 240.018 151.835 238.17C152.118 237.817 152.301 237.395 152.364 236.948C152.427 236.5 152.368 236.044 152.194 235.627C151.67 237.489 150.639 239.169 149.214 240.478C147.826 241.563 146.749 240.946 145.977 241.867C145.205 242.787 144.417 244.644 140.423 244.644C139.021 244.67 137.621 244.499 136.266 244.137C136.266 245.798 136.492 247.108 137.186 247.257C139.191 247.725 143.044 247.413 144.433 245.868C145.821 244.324 145.517 243.099 147.521 242.639Z" fill="white" stroke="#263238" stroke-linecap="round" stroke-linejoin="round"/>
<path d="M171.881 240.174C171.881 240.174 171.421 245.728 171.725 246.804C172.029 247.881 175.118 248.965 176.818 248.653C178.519 248.341 181.6 246.188 181.6 246.188C181.6 246.188 188.386 243.567 190.85 242.023C193.315 240.478 194.087 238.63 192.239 238.17C190.39 237.709 184.22 236.469 182.372 236.009C180.523 235.549 180.515 237.241 176.506 238.17C172.497 239.098 171.881 240.174 171.881 240.174Z" fill="white" stroke="#263238" stroke-linecap="round" stroke-linejoin="round"/>
<path d="M191.318 240.174C187.698 242.235 183.937 244.039 180.063 245.572C177.367 246.681 174.347 246.709 171.631 245.65C171.628 246.037 171.662 246.424 171.733 246.804C172.045 247.881 175.126 248.965 176.826 248.653C178.526 248.341 181.607 246.188 181.607 246.188C181.607 246.188 188.393 243.567 190.858 242.023C192.964 240.705 193.83 239.168 192.886 238.458C192.516 239.153 191.977 239.743 191.318 240.174Z" fill="white" stroke="#263238" stroke-linecap="round" stroke-linejoin="round"/>
<path d="M144.713 131.364C144.713 131.364 142.958 141.2 142.334 146.715C141.71 152.229 140.244 165.934 140.244 172.494C140.244 179.053 139.838 190.964 139.838 190.964C139.838 190.964 139.238 195.738 138.2 200.051C137.163 204.364 136.711 212.57 136.859 216.595C137.007 220.62 137.007 231.789 137.007 231.789C136.925 233.088 136.925 234.39 137.007 235.689C137.155 237.179 137.452 238.965 138.941 238.965C140.431 238.965 143.114 238.965 144.16 238.076C145.505 236.781 146.304 235.02 146.39 233.154C146.539 230.923 147.17 223.318 147.287 221.532C147.404 219.746 152.654 197.695 153.247 193.078C153.839 188.46 154.144 185.925 154.144 185.925L159.65 157.018L161.296 157.315C161.296 157.315 170.656 192.477 170.656 194.864C170.656 197.251 169.611 208.124 170.804 214.231C171.998 220.339 171.818 241.18 171.818 241.18C172.418 241.833 173.192 242.298 174.049 242.522C175.391 242.818 179.267 241.921 180.757 239.542C182.247 237.163 182.84 232.834 182.84 231.641C182.84 230.448 184.181 206.018 184.181 199.755C184.181 193.491 183.589 185.902 183.589 185.301C183.589 184.701 182.099 156.402 181.654 153.867C181.21 151.332 176.14 130.771 176.14 130.771C176.14 130.771 160.657 135.389 144.713 131.364Z" fill="#263238" stroke="#263238" stroke-linecap="round" stroke-linejoin="round"/>
<path d="M131.602 109.462C131.602 109.462 129.667 114.384 129.371 116.911C129.074 119.438 130.712 124.063 132.202 124.96C133.692 125.857 138.606 123.915 139.355 122.722C140.104 121.528 143.52 113.783 143.52 113.783C139.231 113.44 135.114 111.947 131.602 109.462Z" fill="white" stroke="#263238" stroke-linecap="round" stroke-linejoin="round"/>
<path d="M178.737 112.473L172.864 138.517H176.693L182.317 111.958L178.737 112.473Z" fill="#263238" stroke="#263238" stroke-linecap="round" stroke-linejoin="round"/>
<path d="M183.518 91.9508C183.518 91.9508 186.326 91.4438 187.091 91.9508C187.855 92.4578 187.871 95.0162 187.871 96.038C187.871 97.0598 187.091 99.8678 187.364 101.147C187.637 102.426 191.966 108.463 193.752 112.301C195.538 116.139 193.245 122.254 191.201 124.781C189.158 127.308 185.063 118.229 183.784 115.164C182.504 112.098 180.469 93.1988 180.469 93.1988L183.518 91.9508Z" fill="white" stroke="#263238" stroke-linecap="round" stroke-linejoin="round"/>
<path d="M188.978 107.847C188.978 107.847 193.034 114.781 193.183 117.02C193.331 119.259 192.286 124.04 191.248 125.662C190.211 127.285 187.528 125.889 185.585 124.843C183.787 123.942 182.362 122.437 181.561 120.592C180.664 118.658 178.253 113.806 178.253 113.806C178.253 113.806 184.813 112.02 188.978 107.847Z" fill="white" stroke="#263238" stroke-linecap="round" stroke-linejoin="round"/>
<path d="M152.459 78.8C150.583 79.2398 148.778 79.9436 147.1 80.8904C144.565 82.3802 140.54 85.3598 139.199 87.7388C137.857 90.1178 133.84 100.406 131.898 104.283C129.956 108.159 129.371 109.493 129.371 109.493C129.371 109.493 131.711 112.925 134.878 114.267C138.044 115.608 143.52 115.905 143.52 115.905C143.52 115.905 144.3 131.099 144.713 133.338C145.127 135.576 150.228 136.91 157.677 137.238C165.126 137.565 175.555 134.859 176.896 133.338C178.238 131.817 176.452 115.905 176.452 115.905C178.875 115.547 181.267 115 183.604 114.267C186.584 113.221 190.46 108.151 190.46 108.151C190.46 108.151 185.094 95.0396 184.049 92.8088C183.004 90.578 183.752 89.6888 179.579 86.7014C176.916 84.8267 174.07 83.2248 171.085 81.92C171.085 81.92 164.845 78.9404 159.611 78.3476C154.378 77.7548 152.459 78.8 152.459 78.8Z" fill="white" stroke="#263238" stroke-linecap="round" stroke-linejoin="round"/>
<path d="M174.065 58.52C174.065 58.52 175.703 59.417 175.703 60.314C175.703 61.211 173.917 63.1454 173.917 63.1454C174.076 64.5292 174.076 65.9268 173.917 67.3106C173.62 68.8004 175.11 70.4306 173.917 71.4836C172.723 72.5366 169.151 72.5288 169.151 72.5288L168.106 79.0886L154.697 77.2946L154.253 73.1216C154.253 73.1216 150.673 70.142 149.479 66.8816C148.286 63.6212 148.442 62.7086 148.699 60.6416C148.957 58.5746 151.234 54.23 155.719 53.1926C159.643 52.2553 163.738 52.3062 167.638 53.3408C170.789 54.1832 174.065 58.52 174.065 58.52Z" fill="white" stroke="#263238" stroke-linecap="round" stroke-linejoin="round"/>
<path d="M168.09 68.8227V68.7848V68.8227Z" fill="white" stroke="#263238" stroke-linecap="round" stroke-linejoin="round"/>
<path d="M164.237 72.2168C165.867 71.553 167.225 70.3572 168.09 68.8238C168.035 68.933 167.801 69.2372 167.068 69.2372C166.171 69.2372 164.081 67.5992 163.488 66.1172C162.895 64.6352 164.385 62.8334 165.422 62.8334C166.46 62.8334 167.957 64.9238 169.151 64.175C170.344 63.4262 170.196 60.158 170.196 60.158C170.491 58.6519 170.94 57.1803 171.538 55.7666C170.435 54.6674 169.103 53.8257 167.638 53.3018C163.738 52.2672 159.643 52.2163 155.719 53.1536C151.25 54.191 149.011 58.5122 148.699 60.6026C148.387 62.693 148.255 63.5822 149.479 66.8426C150.704 70.103 154.253 73.0826 154.253 73.0826C156.78 73.262 161.405 73.4102 164.237 72.2168Z" fill="#263238" stroke="#263238" stroke-linecap="round" stroke-linejoin="round"/>
<path d="M148.145 80.4068C148.145 80.4068 150.821 76.0856 152.162 75.4928C153.504 74.9 163.192 74.9 165.126 75.1964C167.06 75.4928 170.492 77.8796 171.085 79.2212C171.678 80.5628 172.13 81.6002 172.13 81.6002V82.4972C172.13 82.4972 165.727 79.5176 159.65 79.5176C155.799 79.5324 151.953 79.8296 148.145 80.4068Z" fill="white" stroke="#263238" stroke-linecap="round" stroke-linejoin="round"/>
<path d="M172.13 82.4972C170.881 85.1713 169.458 87.7611 167.872 90.2504C166.189 92.9928 164.878 95.9461 163.972 99.0332L168.652 99.5168C168.652 99.5168 171.904 90.9368 173.854 88.1366C174.646 86.9416 175.517 85.8003 176.459 84.7202C176.459 84.7202 174.603 82.3802 172.13 82.4972Z" fill="#263238" stroke="#263238" stroke-linecap="round" stroke-linejoin="round"/>
<path d="M148.145 80.4068C148.145 80.4068 147.365 85.8668 147.709 88.7918C147.888 91.2794 147.888 93.7766 147.709 96.2642L144.292 97.403C144.292 97.403 143.317 87.9728 143.645 85.859C143.972 83.7452 144.292 82.2866 144.292 82.2866C144.292 82.2866 146.461 80.36 148.145 80.4068Z" fill="#263238" stroke="#263238" stroke-linecap="round" stroke-linejoin="round"/>
<path d="M141.203 130.413C141.203 130.413 138.934 131.193 138.083 135.093C137.233 138.993 139.55 143.228 144.261 145.178C148.972 147.128 156.624 148.103 163.761 148.431C170.898 148.758 176.764 148.103 179.361 143.548C181.958 138.993 180.983 134.118 177.895 133.306C174.806 132.495 171.389 134.281 159.526 133.143C153.364 132.641 147.243 131.729 141.203 130.413Z" fill="#BD6AF0" stroke="#263238" stroke-linecap="round" stroke-linejoin="round"/>
<path d="M169.892 136.036C166.889 139.539 166.14 148.048 172.146 148.048H172.45C175.57 147.424 177.98 146.106 179.416 143.587C181.436 140.046 181.288 136.309 179.673 134.445L177.255 132.815C175.868 132.789 174.492 133.064 173.221 133.62C171.95 134.176 170.814 135 169.892 136.036Z" fill="#BD6AF0" stroke="#263238" stroke-linecap="round" stroke-linejoin="round"/>
<path d="M173.519 140.623C173.519 140.623 173.402 143.111 176.35 142.183C177.045 141.905 177.648 141.437 178.089 140.833C178.53 140.229 178.793 139.513 178.846 138.766C178.871 138.583 178.884 138.398 178.885 138.213C178.924 136.965 178.487 135.873 177.598 135.615C175.555 135.046 170.578 138.782 170.578 141.504C170.578 144.226 173.753 145.131 176.584 143.314C179.416 141.496 180.211 139.578 179.985 135.046" stroke="#263238" stroke-linecap="round" stroke-linejoin="round"/>
<path d="M141.859 93.8306C141.859 93.8306 154.861 94.9694 161.858 95.1254C168.854 95.2814 172.263 94.6418 174.338 96.9194C176.413 99.197 179.018 123.58 180.188 127.971C181.358 132.363 179.408 133.665 174.502 135.451C169.595 137.238 161.819 137.238 152.872 135.451C143.926 133.665 140.026 132.331 139.051 128.431C138.076 124.531 138.731 112.005 138.731 105.031C138.731 98.0582 138.115 93.9944 141.859 93.8306Z" fill="#BD6AF0" stroke="#263238" stroke-linecap="round" stroke-linejoin="round"/>
<path d="M172.598 119.235C174.65 119.017 176.667 118.548 178.604 117.839C177.356 109.259 175.773 98.4014 174.4 96.9194C172.286 94.6418 168.87 95.2892 161.92 95.1254C154.97 94.9616 141.921 93.8306 141.921 93.8306C138.177 93.9944 138.801 98.0582 138.801 105.047C138.801 107.941 138.684 111.771 138.629 115.554C139.55 116.107 150.228 121.895 172.598 119.235Z" fill="#BD6AF0" stroke="#263238" stroke-linecap="round" stroke-linejoin="round"/>
<path d="M141.492 114.766C141.702 117.123 141.639 119.497 141.305 121.84C140.981 123.809 140.796 125.797 140.751 127.792L143.91 129.094C143.91 129.094 144.472 124.071 144.846 121.84C145.101 119.739 145.226 117.624 145.22 115.507L141.492 114.766Z" fill="#263238" stroke="#263238" stroke-linecap="round" stroke-linejoin="round"/>
<path d="M165.688 117.02C165.688 117.02 165.5 120.374 165.134 122.792C164.767 125.21 164.198 130.935 164.198 130.935H167.918C167.918 130.935 169.221 125.21 169.221 122.979C169.221 120.748 169.408 116.833 169.408 116.833L165.688 117.02Z" fill="#263238" stroke="#263238" stroke-linecap="round" stroke-linejoin="round"/>
<path d="M180.227 127.94C179.088 123.549 176.491 99.1658 174.377 96.8882C174.051 96.5429 173.675 96.2484 173.261 96.0146C171.904 96.4514 169.907 97.5278 170.797 99.977C172.099 103.549 173.402 121.115 172.747 126.637C172.091 132.16 168.519 134.773 171.772 136.068L171.951 136.138C172.83 135.96 173.696 135.721 174.541 135.42C179.416 133.665 181.366 132.363 180.227 127.94Z" fill="#BD6AF0" stroke="#263238" stroke-linecap="round" stroke-linejoin="round"/>
<path d="M159.611 156.995L153.239 155.287" stroke="white" stroke-linecap="round" stroke-linejoin="round"/>
<path d="M145.743 51.2114C145.743 51.2114 147.545 61.3514 147.545 62.5292C147.545 63.707 147.841 64.019 152.615 64.3154C157.388 64.6118 163.933 64.916 167.661 62.9816C171.389 61.0472 177.941 56.57 179.283 53.6216C180.625 50.6732 179.728 50.1974 176.163 50.1974H171.694C171.694 50.1974 170.648 45.8762 167.794 44.5346C164.939 43.193 160.493 40.5098 155.727 42.6002C150.961 44.6906 147.404 45.6812 145.743 51.2114Z" fill="#BD6AF0" stroke="#263238" stroke-linecap="round" stroke-linejoin="round"/>
<path d="M170.641 60.5948C170.316 60.9038 170.065 61.2825 169.907 61.7024C173.581 59.4794 178.183 56.0318 179.267 53.5904C180.609 50.6108 179.712 50.1662 176.147 50.1662H171.678C171.678 50.1662 173.02 54.4874 173.02 55.9772C173.02 57.467 172.427 58.8086 170.641 60.5948Z" fill="#263238" stroke="#263238" stroke-linecap="round" stroke-linejoin="round"/>
<path d="M150.267 62.9192C150.267 62.9192 149.019 58.559 151.304 58.1456C153.59 57.7322 156.086 63.3404 156.086 63.3404C154.137 63.5646 152.163 63.4217 150.267 62.9192Z" fill="#263238" stroke="#263238" stroke-linecap="round" stroke-linejoin="round"/>
<path d="M212.636 260.907H241.964C241.402 257.319 239.093 257.95 238.789 252.389C238.633 249.589 241.223 246.149 241.004 242.452C240.817 239.418 237.83 236.313 237.596 232.85C237.393 229.73 239.936 226.251 239.694 222.882C239.46 219.699 236.426 216.642 236.161 213.327C235.895 210.012 238.399 206.595 238.103 203.327C237.806 200.059 234.725 197.087 234.398 193.842C234.07 190.597 236.48 186.963 236.106 183.796C235.716 180.434 232.541 177.556 232.112 174.436C231.637 170.98 233.883 167.299 233.36 164.296C232.713 160.645 229.32 158.009 228.602 155.318C227.269 150.303 227.44 145.467 225.865 145.178C224.289 144.889 223.805 149.577 222.534 154.873C221.894 157.533 218.572 160.232 218.026 163.882C217.581 166.839 219.929 170.434 219.547 173.866C219.203 176.947 216.107 179.904 215.81 183.226C215.522 186.346 218.033 189.841 217.792 193.125C217.55 196.408 214.547 199.365 214.344 202.617C214.141 205.87 216.723 209.271 216.544 212.476C216.364 215.682 213.424 218.865 213.268 222.024C213.104 225.37 215.748 228.739 215.608 231.844C215.467 235.276 212.558 238.427 212.488 241.43C212.355 245.08 215.03 248.45 214.952 251.227C214.773 257.248 212.012 256 211.91 260.852L212.636 260.907Z" fill="#BD6AF0"/>
<path opacity="0.5" d="M212.636 260.907H241.964C241.402 257.319 239.093 257.95 238.789 252.389C238.633 249.589 241.223 246.149 241.004 242.452C240.817 239.418 237.83 236.313 237.596 232.85C237.393 229.73 239.936 226.251 239.694 222.882C239.46 219.699 236.426 216.642 236.161 213.327C235.895 210.012 238.399 206.595 238.103 203.327C237.806 200.059 234.725 197.087 234.398 193.842C234.07 190.597 236.48 186.963 236.106 183.796C235.716 180.434 232.541 177.556 232.112 174.436C231.637 170.98 233.883 167.299 233.36 164.296C232.713 160.645 229.32 158.009 228.602 155.318C227.269 150.303 227.44 145.467 225.865 145.178C224.289 144.889 223.805 149.577 222.534 154.873C221.894 157.533 218.572 160.232 218.026 163.882C217.581 166.839 219.929 170.434 219.547 173.866C219.203 176.947 216.107 179.904 215.81 183.226C215.522 186.346 218.033 189.841 217.792 193.125C217.55 196.408 214.547 199.365 214.344 202.617C214.141 205.87 216.723 209.271 216.544 212.476C216.364 215.682 213.424 218.865 213.268 222.024C213.104 225.37 215.748 228.739 215.608 231.844C215.467 235.276 212.558 238.427 212.488 241.43C212.355 245.08 215.03 248.45 214.952 251.227C214.773 257.248 212.012 256 211.91 260.852L212.636 260.907Z" fill="white"/>
<path d="M225.225 154.811V259.549" stroke="#263238" stroke-miterlimit="10"/>
<path d="M229.804 165.793L225.03 169.92L221.122 164.709" stroke="#263238" stroke-miterlimit="10"/>
<path d="M229.804 184.022L225.03 188.148L221.122 182.938" stroke="#263238" stroke-miterlimit="10"/>
<path d="M229.804 201.166L225.03 205.293L221.122 200.082" stroke="#263238" stroke-miterlimit="10"/>
<path d="M229.804 221.571L225.03 225.697L221.122 220.487" stroke="#263238" stroke-miterlimit="10"/>
<path d="M229.804 242.187L225.03 246.313L221.122 241.102" stroke="#263238" stroke-miterlimit="10"/>
<path d="M44.6784 242.99H82.7268C81.9936 238.31 79.0062 239.152 78.6084 231.937C78.4134 228.31 81.7752 223.81 81.4788 219.044C81.2448 215.144 77.3682 211.08 77.064 206.564C76.791 202.508 80.0982 197.984 79.7784 193.632C79.4742 189.498 75.5508 185.527 75.1998 181.237C74.8488 176.947 78.1014 172.494 77.7192 168.258C77.337 164.023 73.3356 160.123 72.9144 155.95C72.4776 151.652 75.6132 147.027 75.1374 142.916C74.6226 138.556 70.512 134.788 69.9504 130.771C69.3264 126.294 72.2436 121.513 71.565 117.644C70.7226 112.909 66.3234 109.485 65.3952 105.999C63.6636 99.4856 63.882 93.2144 61.8384 92.8088C59.6622 92.372 59.1708 98.5184 57.5172 105.39C56.6904 108.846 52.377 112.34 51.6672 117.09C51.0978 120.92 54.1398 125.584 53.6406 130.046C53.196 134.04 49.1868 137.846 48.7968 142.214C48.4302 146.293 51.6828 150.794 51.363 155.061C51.051 159.21 47.1588 163.165 46.8858 167.377C46.6128 171.589 50.0058 176.004 49.7484 180.161C49.491 184.318 45.6924 188.452 45.4974 192.555C45.2868 196.892 48.711 201.268 48.5472 205.293C48.36 209.754 44.5926 213.873 44.4522 217.773C44.2806 222.499 47.7594 226.867 47.6502 230.471C47.4162 238.271 43.836 236.672 43.7502 242.951L44.6784 242.99Z" fill="#BD6AF0"/>
<path d="M61.035 105.336V241.227" stroke="#263238" stroke-miterlimit="10"/>
<path d="M66.9786 119.586L60.7776 124.937L55.7076 118.174" stroke="#263238" stroke-miterlimit="10"/>
<path d="M66.9786 143.236L60.7776 148.587L55.7076 141.832" stroke="#263238" stroke-miterlimit="10"/>
<path d="M66.9786 165.481L60.7776 170.832L55.7076 164.077" stroke="#263238" stroke-miterlimit="10"/>
<path d="M66.9786 191.955L60.7776 197.305L55.7076 190.543" stroke="#263238" stroke-miterlimit="10"/>
<path d="M66.9786 218.701L60.7776 224.052L55.7076 217.297" stroke="#263238" stroke-miterlimit="10"/>
<path d="M21.6606 248.941H49.8342C49.296 245.494 47.0808 246.102 46.7844 240.759C46.6362 238.068 49.1244 234.745 48.9138 231.212C48.7344 228.303 45.864 225.315 45.6456 221.985C45.4428 218.982 47.892 215.651 47.6502 212.414C47.4318 209.349 44.5302 206.416 44.265 203.233C43.9998 200.051 46.41 196.759 46.1292 193.624C45.8484 190.488 42.8844 187.602 42.5724 184.513C42.2604 181.425 44.5692 177.907 44.2104 174.865C43.836 171.636 40.7862 168.843 40.3728 165.871C39.9126 162.556 42.0732 159.015 41.5662 156.153C40.95 152.65 37.6662 150.115 37.0032 147.526C35.724 142.713 35.88 138.064 34.3746 137.76C32.8692 137.456 32.3934 141.996 31.1688 147.081C30.5526 149.64 27.3624 152.229 26.8398 155.731C26.4186 158.578 28.6728 162.026 28.3062 165.325C27.9708 168.282 24.999 171.121 24.7104 174.334C24.4374 177.361 26.8476 180.691 26.6136 183.85C26.3796 187.009 23.4936 189.849 23.2986 192.969C23.1036 196.089 25.5918 199.357 25.4202 202.438C25.2486 205.519 22.4172 208.576 22.3002 211.611C22.1442 214.824 24.6402 218.061 24.5544 221.041C24.4218 224.34 21.6294 227.367 21.528 230.253C21.4032 233.763 23.9772 236.992 23.868 239.659C23.6964 245.455 21.0444 244.254 20.9508 248.91L21.6606 248.941Z" fill="#BD6AF0"/>
<path opacity="0.5" d="M21.6606 248.941H49.8342C49.296 245.494 47.0808 246.102 46.7844 240.759C46.6362 238.068 49.1244 234.745 48.9138 231.212C48.7344 228.303 45.864 225.315 45.6456 221.985C45.4428 218.982 47.892 215.651 47.6502 212.414C47.4318 209.349 44.5302 206.416 44.265 203.233C43.9998 200.051 46.41 196.759 46.1292 193.624C45.8484 190.488 42.8844 187.602 42.5724 184.513C42.2604 181.425 44.5692 177.907 44.2104 174.865C43.836 171.636 40.7862 168.843 40.3728 165.871C39.9126 162.556 42.0732 159.015 41.5662 156.153C40.95 152.65 37.6662 150.115 37.0032 147.526C35.724 142.713 35.88 138.064 34.3746 137.76C32.8692 137.456 32.3934 141.996 31.1688 147.081C30.5526 149.64 27.3624 152.229 26.8398 155.731C26.4186 158.578 28.6728 162.026 28.3062 165.325C27.9708 168.282 24.999 171.121 24.7104 174.334C24.4374 177.361 26.8476 180.691 26.6136 183.85C26.3796 187.009 23.4936 189.849 23.2986 192.969C23.1036 196.089 25.5918 199.357 25.4202 202.438C25.2486 205.519 22.4172 208.576 22.3002 211.611C22.1442 214.824 24.6402 218.061 24.5544 221.041C24.4218 224.34 21.6294 227.367 21.528 230.253C21.4032 233.763 23.9772 236.992 23.868 239.659C23.6964 245.455 21.0444 244.254 20.9508 248.91L21.6606 248.941Z" fill="white"/>
<path d="M33.7584 147.027V247.639" stroke="#263238" stroke-miterlimit="10"/>
<path d="M38.1576 157.572L33.5712 161.535L29.8194 156.527" stroke="#263238" stroke-miterlimit="10"/>
<path d="M38.1576 175.083L33.5712 179.046L29.8194 174.038" stroke="#263238" stroke-miterlimit="10"/>
<path d="M38.1576 191.557L33.5712 195.519L29.8194 190.512" stroke="#263238" stroke-miterlimit="10"/>
<path d="M38.1576 211.15L33.5712 215.113L29.8194 210.113" stroke="#263238" stroke-miterlimit="10"/>
<path d="M38.1576 230.955L33.5712 234.917L29.8194 229.917" stroke="#263238" stroke-miterlimit="10"/>
<path d="M238.352 269.175H276.409C275.675 264.495 272.688 265.337 272.29 258.13C272.087 254.495 275.449 250.002 275.161 245.229C274.919 241.329 271.042 237.273 270.746 232.749C270.473 228.693 273.78 224.169 273.46 219.816C273.156 215.682 269.225 211.72 268.882 207.422C268.538 203.124 271.783 198.678 271.401 194.443C271.019 190.207 267.017 186.315 266.596 182.134C266.175 177.954 269.295 173.219 268.811 169.108C268.304 164.74 264.186 160.973 263.632 156.956C263.008 152.479 265.925 147.697 265.239 143.836C264.404 139.102 259.997 135.678 259.069 132.183C257.345 125.678 257.564 119.407 255.52 118.993C253.344 118.564 252.845 124.711 251.199 131.583C250.364 135.03 246.059 138.532 245.349 143.283C244.78 147.12 247.822 151.785 247.322 156.238C246.878 160.232 242.861 164.038 242.471 168.406C242.104 172.494 245.365 176.986 245.045 181.261C244.733 185.403 240.841 189.357 240.568 193.569C240.295 197.781 243.688 202.196 243.43 206.361C243.173 210.526 239.374 214.645 239.171 218.748C238.969 223.084 242.393 227.468 242.221 231.493C242.042 235.947 238.267 240.073 238.134 243.973C237.962 248.707 241.441 253.075 241.332 256.679C241.098 264.479 237.518 262.88 237.393 269.159L238.352 269.175Z" fill="#BD6AF0"/>
<path d="M254.693 131.528V267.42" stroke="#263238" stroke-miterlimit="10"/>
<path d="M260.629 145.771L254.436 151.122L249.366 144.367" stroke="#263238" stroke-miterlimit="10"/>
<path d="M260.629 169.428L254.436 174.779L249.366 168.016" stroke="#263238" stroke-miterlimit="10"/>
<path d="M260.629 191.674L254.436 197.017L249.366 190.262" stroke="#263238" stroke-miterlimit="10"/>
<path d="M260.629 218.139L254.436 223.49L249.366 216.735" stroke="#263238" stroke-miterlimit="10"/>
<path d="M260.629 244.893L254.436 250.244L249.366 243.481" stroke="#263238" stroke-miterlimit="10"/>
<path d="M96.1544 160.449L91.3834 160.29L88.5183 246.206L93.2893 246.365L96.1544 160.449Z" fill="#263238" stroke="#263238" stroke-linecap="round" stroke-linejoin="round"/>
<path d="M115.479 136.341L112.882 136.965V145.56L115.76 146.403L115.479 136.341Z" fill="#BD6AF0" stroke="#263238" stroke-linecap="round" stroke-linejoin="round"/>
<path d="M65.13 131.598L65.2548 160.731L113.568 165.739L113.108 174.958L130.9 159.694L115.479 136.341L115.44 145.568L65.13 131.598Z" fill="#263238" stroke="#263238" stroke-linecap="round" stroke-linejoin="round"/>
<path d="M65.13 131.598L61.23 132.035L61.7214 162.01L65.2548 160.731L65.13 131.598Z" fill="#BD6AF0" stroke="#263238" stroke-linecap="round" stroke-linejoin="round"/>
<path d="M61.7214 162.01L111.368 166.924L113.568 165.739L65.2548 160.731L61.7214 162.01Z" fill="#BD6AF0" stroke="#263238" stroke-linecap="round" stroke-linejoin="round"/>
<path d="M111.368 166.924L111.244 175.06L113.108 174.958L113.568 165.739L111.368 166.924Z" fill="#BD6AF0" stroke="#263238" stroke-linecap="round" stroke-linejoin="round"/>
<path d="M15.8574 250.314C15.8574 250.314 83.0778 217.156 185.289 234.082C265.372 247.342 291.736 281.6 291.736 281.6" fill="white"/>
<path d="M15.8574 250.314C15.8574 250.314 83.0778 217.156 185.289 234.082C265.372 247.342 291.736 281.6 291.736 281.6" stroke="#263238" stroke-linecap="round" stroke-linejoin="round"/>
<path d="M130.829 235.619L118.232 230.526C55.9884 233.646 16.9884 253.146 16.9884 253.146L11.9184 254.3C7.79762 256.2 3.81507 258.387 0 260.844L18.5016 261.141L50.2086 259.074L27.456 267.326L49.5066 262.498L86.0184 261.117L64.6542 255.61L97.7184 252.163L66.7056 252.849L91.6656 247.756L123.942 242.514L112.242 241.82L115.136 240.861L130.829 235.619Z" fill="#BD6AF0"/>
<path d="M209.258 240.65L216.278 244.94L199.118 244.55L206.918 248.84L202.238 250.4L213.548 255.86L202.628 257.42L213.158 266L155.048 266.39L171.428 272.63L165.188 275.36L204.968 281.6L248.258 292.52L229.928 282.38C229.928 282.38 271.658 293.69 273.218 294.47C274.778 295.25 283.748 298.76 284.918 299.15C286.088 299.54 270.878 287.45 270.878 287.45L286.478 291.35L270.878 273.8L277.898 274.58L272.828 270.29L282.968 274.58C282.968 274.58 254.888 251.96 209.258 240.65Z" fill="#BD6AF0"/>
</svg>
