<svg width="597" height="599" viewBox="0 0 597 599" fill="none" xmlns="http://www.w3.org/2000/svg">
<path d="M299.591 299L304.044 294.547C304.255 294.336 304.374 294.05 304.375 293.751C304.375 293.452 304.256 293.166 304.045 292.955C303.834 292.743 303.548 292.624 303.25 292.624C302.951 292.624 302.664 292.742 302.453 292.953L298 297.406L293.547 292.953C293.336 292.742 293.049 292.623 292.75 292.623C292.451 292.623 292.164 292.742 291.953 292.953C291.742 293.164 291.623 293.451 291.623 293.75C291.623 294.049 291.742 294.336 291.953 294.547L296.406 299L291.953 303.453C291.742 303.664 291.623 303.951 291.623 304.25C291.623 304.549 291.742 304.836 291.953 305.047C292.164 305.258 292.451 305.377 292.75 305.377C293.049 305.377 293.336 305.258 293.547 305.047L298 300.594L302.453 305.047C302.664 305.258 302.951 305.377 303.25 305.377C303.549 305.377 303.836 305.258 304.047 305.047C304.258 304.836 304.377 304.549 304.377 304.25C304.377 303.951 304.258 303.664 304.047 303.453L299.591 299Z" fill="#996DA8"/>
<path fill-rule="evenodd" clip-rule="evenodd" d="M365.909 0.667246C450.079 7.87563 514.348 77.0243 560.119 148.028C596.908 205.095 584.553 274.358 586.1 342.238C587.711 412.9 618.278 494.664 569.177 545.506C519.885 596.546 436.647 564.665 365.909 570.238C283.607 576.722 197.941 623.935 127.875 580.272C48.4132 530.755 -1.45474 435.854 0.0323631 342.238C1.5038 249.608 67.6009 174.867 135.319 111.647C200.14 51.133 277.555 -6.89948 365.909 0.667246Z" fill="white"/>
<path d="M464.623 126.555C464.623 126.555 408.042 75.9554 328.442 87.3727C248.842 98.7901 186.64 160.498 134.916 209.158C83.1919 257.817 75.259 325.518 113.675 373.498C152.091 421.478 201.875 394.109 271.961 420.342C342.047 446.574 356.726 464.207 429.852 448.008C502.977 431.808 550.253 342.422 532.188 254.666C514.122 166.911 464.623 126.555 464.623 126.555Z" fill="#BD6AF0"/>
<path opacity="0.8" d="M464.623 126.555C464.623 126.555 408.042 75.9554 328.442 87.3727C248.842 98.7901 186.64 160.498 134.916 209.158C83.1919 257.817 75.259 325.518 113.675 373.498C152.091 421.478 201.875 394.109 271.961 420.342C342.047 446.574 356.726 464.207 429.852 448.008C502.977 431.808 550.253 342.422 532.188 254.666C514.122 166.911 464.623 126.555 464.623 126.555Z" fill="white"/>
<path d="M474.533 288.622C468.923 285.57 466.365 288.115 464.326 285.57C462.287 283.024 469.948 276.377 454.626 269.741C454.626 269.741 453.613 255.457 432.681 254.914C411.749 254.37 417.372 269.21 411.762 272.781C406.152 276.352 404.62 270.742 398.998 274.313C393.375 277.884 395.933 285.026 391.349 286.052C386.765 287.077 380.624 281.455 375.014 285.026C369.404 288.597 369.392 291.662 366.846 291.662C364.301 291.662 359.185 289.623 356.133 291.662C353.081 293.7 349.498 296.258 349.498 296.258H478.623C478.623 296.258 480.155 291.686 474.533 288.622Z" fill="#BD6AF0"/>
<path opacity="0.5" d="M474.533 288.622C468.923 285.57 466.365 288.115 464.326 285.57C462.287 283.024 469.948 276.377 454.626 269.741C454.626 269.741 453.613 255.457 432.681 254.914C411.749 254.37 417.372 269.21 411.762 272.781C406.152 276.352 404.62 270.742 398.998 274.313C393.375 277.884 395.933 285.026 391.349 286.052C386.765 287.077 380.624 281.455 375.014 285.026C369.404 288.597 369.392 291.662 366.846 291.662C364.301 291.662 359.185 289.623 356.133 291.662C353.081 293.7 349.498 296.258 349.498 296.258H478.623C478.623 296.258 480.155 291.686 474.533 288.622Z" fill="white"/>
<path d="M441.319 110.096C433.485 105.809 429.914 109.38 427.059 105.809C424.205 102.238 434.906 93.0072 413.504 83.7029C413.504 83.7029 412.083 63.7349 382.836 63.0182C353.588 62.3015 361.447 82.9862 353.6 87.9782C345.754 92.9702 343.604 85.1238 335.77 90.1158C327.936 95.1078 331.482 105.104 325.069 106.525C318.656 107.946 310.081 100.1 302.296 105.104C294.512 110.109 294.45 114.372 290.879 114.372C287.308 114.372 280.178 111.517 275.903 114.372C271.628 117.226 266.623 120.785 266.623 120.785H447.027C447.027 120.785 449.165 114.372 441.319 110.096Z" fill="#BD6AF0"/>
<path opacity="0.5" d="M441.319 110.096C433.485 105.809 429.914 109.38 427.059 105.809C424.205 102.238 434.906 93.0072 413.504 83.7029C413.504 83.7029 412.083 63.7349 382.836 63.0182C353.588 62.3015 361.447 82.9862 353.6 87.9782C345.754 92.9702 343.604 85.1238 335.77 90.1158C327.936 95.1078 331.482 105.104 325.069 106.525C318.656 107.946 310.081 100.1 302.296 105.104C294.512 110.109 294.45 114.372 290.879 114.372C287.308 114.372 280.178 111.517 275.903 114.372C271.628 117.226 266.623 120.785 266.623 120.785H447.027C447.027 120.785 449.165 114.372 441.319 110.096Z" fill="white"/>
<path d="M235.226 201.274C229.616 198.21 227.058 200.768 225.019 198.21C222.98 195.652 230.629 189.029 215.319 182.394C215.319 182.394 214.294 168.097 193.374 167.566C172.455 167.035 178.065 181.862 172.443 185.433C166.82 189.004 165.301 183.395 159.691 186.966C154.081 190.537 156.626 197.679 152.03 198.704C147.433 199.73 141.317 194.108 135.694 197.679C130.072 201.25 130.085 204.314 127.527 204.314C124.969 204.314 119.878 202.275 116.814 204.314C113.749 206.353 110.178 208.911 110.178 208.911H239.278C239.278 208.911 240.835 204.339 235.226 201.274Z" fill="#BD6AF0"/>
<path opacity="0.5" d="M235.226 201.274C229.616 198.21 227.058 200.768 225.019 198.21C222.98 195.652 230.629 189.029 215.319 182.394C215.319 182.394 214.294 168.097 193.374 167.566C172.455 167.035 178.065 181.862 172.443 185.433C166.82 189.004 165.301 183.395 159.691 186.966C154.081 190.537 156.626 197.679 152.03 198.704C147.433 199.73 141.317 194.108 135.694 197.679C130.072 201.25 130.085 204.314 127.527 204.314C124.969 204.314 119.878 202.275 116.814 204.314C113.749 206.353 110.178 208.911 110.178 208.911H239.278C239.278 208.911 240.835 204.339 235.226 201.274Z" fill="white"/>
<path d="M291.522 433.514H292.485C294.425 433.439 298.664 433.303 299.825 433.303C301.283 433.303 303.73 436.479 301.53 439.408C299.331 442.336 297.823 445.759 294.697 446.488C291.571 447.217 292.003 449.181 289.755 451.616C287.506 454.05 281.451 454.556 278.275 453.815C275.1 453.074 278.028 437.208 278.523 436.516C279.017 435.824 284.429 439.383 291.522 433.514Z" fill="white" stroke="#263238" stroke-linecap="round" stroke-linejoin="round"/>
<path d="M294.697 446.463C297.873 445.734 299.331 442.311 301.53 439.383C301.979 438.825 302.268 438.156 302.368 437.447C302.468 436.738 302.375 436.015 302.099 435.355C301.27 438.305 299.635 440.967 297.378 443.04C295.179 444.758 293.474 443.782 292.25 445.24C291.027 446.698 289.779 449.639 283.453 449.639C281.231 449.681 279.014 449.41 276.867 448.835C276.867 451.467 277.225 453.543 278.325 453.778C281.5 454.519 287.604 454.025 289.804 451.579C292.003 449.132 291.521 447.192 294.697 446.463Z" fill="white" stroke="#263238" stroke-linecap="round" stroke-linejoin="round"/>
<path d="M333.286 442.558C333.286 442.558 332.557 451.356 333.039 453.061C333.521 454.766 338.414 456.484 341.108 455.99C343.801 455.496 348.682 452.085 348.682 452.085C348.682 452.085 359.432 447.933 363.337 445.487C367.242 443.04 368.465 440.112 365.536 439.383C362.608 438.654 352.834 436.689 349.905 435.96C346.977 435.231 346.965 437.912 340.613 439.383C334.262 440.853 333.286 442.558 333.286 442.558Z" fill="white" stroke="#263238" stroke-linecap="round" stroke-linejoin="round"/>
<path d="M364.078 442.558C358.343 445.823 352.385 448.68 346.248 451.109C341.977 452.867 337.193 452.911 332.891 451.233C332.885 451.846 332.939 452.458 333.051 453.061C333.546 454.767 338.426 456.484 341.12 455.99C343.814 455.496 348.695 452.085 348.695 452.085C348.695 452.085 359.445 447.933 363.349 445.487C366.686 443.399 368.057 440.964 366.562 439.84C365.976 440.941 365.122 441.876 364.078 442.558V442.558Z" fill="white" stroke="#263238" stroke-linecap="round" stroke-linejoin="round"/>
<path d="M290.249 270.186C290.249 270.186 287.469 285.768 286.48 294.504C285.492 303.24 283.169 324.95 283.169 335.342C283.169 345.733 282.526 364.602 282.526 364.602C282.526 364.602 281.575 372.164 279.931 378.997C278.288 385.83 277.571 398.829 277.806 405.205C278.041 411.581 278.041 429.275 278.041 429.275C277.911 431.333 277.911 433.396 278.041 435.453C278.275 437.814 278.745 440.643 281.105 440.643C283.465 440.643 287.716 440.643 289.372 439.234C291.503 437.183 292.768 434.393 292.906 431.438C293.14 427.904 294.141 415.856 294.327 413.026C294.512 410.197 302.828 375.265 303.767 367.95C304.706 360.635 305.188 356.619 305.188 356.619L313.911 310.826L316.519 311.296C316.519 311.296 331.346 366.999 331.346 370.78C331.346 374.561 329.691 391.786 331.581 401.461C333.472 411.136 333.188 444.152 333.188 444.152C334.137 445.186 335.364 445.923 336.721 446.278C338.847 446.747 344.988 445.326 347.348 441.557C349.708 437.789 350.647 430.931 350.647 429.04C350.647 427.15 352.772 388.45 352.772 378.527C352.772 368.605 351.833 356.582 351.833 355.631C351.833 354.679 349.473 309.85 348.769 305.834C348.065 301.819 340.033 269.247 340.033 269.247C340.033 269.247 315.505 276.562 290.249 270.186Z" fill="#263238" stroke="#263238" stroke-linecap="round" stroke-linejoin="round"/>
<path d="M269.478 235.489C269.478 235.489 266.413 243.286 265.944 247.29C265.474 251.293 268.069 258.621 270.429 260.042C272.789 261.462 280.574 258.386 281.76 256.495C282.946 254.605 288.358 242.335 288.358 242.335C281.564 241.791 275.042 239.426 269.478 235.489V235.489Z" fill="white" stroke="#263238" stroke-linecap="round" stroke-linejoin="round"/>
<path d="M344.148 240.259L334.843 281.517H340.91L349.819 239.443L344.148 240.259Z" fill="#263238" stroke="#263238" stroke-linecap="round" stroke-linejoin="round"/>
<path d="M351.722 207.749C351.722 207.749 356.17 206.946 357.381 207.749C358.592 208.552 358.617 212.605 358.617 214.224C358.617 215.843 357.381 220.291 357.814 222.317C358.246 224.344 365.104 233.908 367.934 239.987C370.763 246.066 367.13 255.754 363.893 259.757C360.656 263.761 354.169 249.378 352.142 244.522C350.116 239.666 346.891 209.726 346.891 209.726L351.722 207.749Z" fill="white" stroke="#263238" stroke-linecap="round" stroke-linejoin="round"/>
<path d="M360.371 232.932C360.371 232.932 366.797 243.916 367.031 247.463C367.266 251.009 365.61 258.583 363.967 261.154C362.324 263.724 358.073 261.512 354.996 259.856C352.147 258.428 349.89 256.045 348.62 253.122C347.199 250.057 343.381 242.372 343.381 242.372C343.381 242.372 353.773 239.542 360.371 232.932Z" fill="white" stroke="#263238" stroke-linecap="round" stroke-linejoin="round"/>
<path d="M302.518 186.916C299.546 187.613 296.688 188.728 294.03 190.228C290.014 192.588 283.638 197.308 281.512 201.077C279.387 204.845 273.024 221.143 269.947 227.285C266.87 233.426 265.943 235.539 265.943 235.539C265.943 235.539 269.65 240.976 274.667 243.101C279.684 245.226 288.358 245.696 288.358 245.696C288.358 245.696 289.594 269.766 290.248 273.312C290.903 276.859 298.984 278.972 310.785 279.491C322.585 280.009 339.106 275.722 341.231 273.312C343.356 270.903 340.527 245.696 340.527 245.696C344.366 245.13 348.155 244.262 351.858 243.101C356.578 241.445 362.719 233.413 362.719 233.413C362.719 233.413 354.218 212.642 352.562 209.108C350.906 205.574 352.092 204.166 345.482 199.433C341.262 196.463 336.754 193.926 332.026 191.859C332.026 191.859 322.14 187.139 313.849 186.199C305.558 185.26 302.518 186.916 302.518 186.916Z" fill="white" stroke="#263238" stroke-linecap="round" stroke-linejoin="round"/>
<path d="M336.746 154.789C336.746 154.789 339.341 156.21 339.341 157.631C339.341 159.052 336.511 162.117 336.511 162.117C336.764 164.309 336.764 166.523 336.511 168.715C336.042 171.075 338.402 173.658 336.511 175.326C334.621 176.994 328.961 176.982 328.961 176.982L327.306 187.373L306.065 184.531L305.361 177.921C305.361 177.921 299.689 173.2 297.799 168.036C295.908 162.871 296.155 161.425 296.563 158.15C296.971 154.876 300.579 147.993 307.684 146.35C313.9 144.865 320.387 144.946 326.564 146.585C331.556 147.919 336.746 154.789 336.746 154.789Z" fill="white" stroke="#263238" stroke-linecap="round" stroke-linejoin="round"/>
<path d="M327.281 171.111V171.05V171.111Z" fill="white" stroke="#263238" stroke-linecap="round" stroke-linejoin="round"/>
<path d="M321.177 176.487C323.76 175.436 325.911 173.541 327.281 171.112C327.195 171.285 326.824 171.767 325.663 171.767C324.242 171.767 320.93 169.172 319.991 166.825C319.052 164.477 321.412 161.623 323.055 161.623C324.699 161.623 327.071 164.934 328.962 163.748C330.852 162.562 330.617 157.384 330.617 157.384C331.085 154.998 331.797 152.667 332.743 150.428C330.997 148.686 328.887 147.353 326.565 146.523C320.387 144.884 313.9 144.803 307.684 146.288C300.604 147.932 297.057 154.777 296.563 158.089C296.069 161.4 295.859 162.809 297.799 167.974C299.739 173.139 305.361 177.859 305.361 177.859C309.364 178.143 316.692 178.378 321.177 176.487Z" fill="#263238" stroke="#263238" stroke-linecap="round" stroke-linejoin="round"/>
<path d="M295.686 189.462C295.686 189.462 299.924 182.616 302.049 181.677C304.174 180.738 319.521 180.738 322.586 181.208C325.65 181.677 331.087 185.458 332.026 187.583C332.965 189.709 333.682 191.352 333.682 191.352V192.773C333.682 192.773 323.537 188.053 313.911 188.053C307.81 188.076 301.718 188.547 295.686 189.462Z" fill="white" stroke="#263238" stroke-linecap="round" stroke-linejoin="round"/>
<path d="M333.681 192.773C331.701 197.009 329.448 201.112 326.935 205.055C324.27 209.4 322.192 214.078 320.757 218.969L328.17 219.735C328.17 219.735 333.323 206.143 336.412 201.707C337.667 199.814 339.046 198.006 340.539 196.295C340.539 196.295 337.598 192.588 333.681 192.773Z" fill="#263238" stroke="#263238" stroke-linecap="round" stroke-linejoin="round"/>
<path d="M295.685 189.462C295.685 189.462 294.45 198.111 294.994 202.745C295.277 206.685 295.277 210.641 294.994 214.582L289.581 216.386C289.581 216.386 288.037 201.447 288.556 198.099C289.075 194.75 289.581 192.439 289.581 192.439C289.581 192.439 293.016 189.387 295.685 189.462Z" fill="#263238" stroke="#263238" stroke-linecap="round" stroke-linejoin="round"/>
<path d="M284.688 268.679C284.688 268.679 281.093 269.914 279.746 276.093C278.399 282.271 282.069 288.98 289.532 292.069C296.995 295.158 309.117 296.703 320.423 297.222C331.729 297.741 341.021 296.703 345.136 289.487C349.251 282.271 347.706 274.548 342.813 273.263C337.92 271.978 332.508 274.807 313.714 273.003C303.953 272.209 294.256 270.764 284.688 268.679V268.679Z" fill="#BD6AF0" stroke="#263238" stroke-linecap="round" stroke-linejoin="round"/>
<path d="M330.135 277.588C325.378 283.136 324.192 296.617 333.706 296.617H334.188C339.131 295.628 342.949 293.54 345.222 289.549C348.423 283.939 348.188 278.02 345.63 275.067L341.8 272.484C339.602 272.443 337.422 272.878 335.409 273.759C333.395 274.64 331.596 275.946 330.135 277.588V277.588Z" fill="#BD6AF0" stroke="#263238" stroke-linecap="round" stroke-linejoin="round"/>
<path d="M335.881 284.853C335.881 284.853 335.696 288.795 340.366 287.324C341.467 286.884 342.422 286.144 343.121 285.186C343.82 284.229 344.236 283.095 344.32 281.912C344.359 281.621 344.38 281.328 344.382 281.035C344.444 279.058 343.752 277.328 342.343 276.92C339.106 276.018 331.223 281.937 331.223 286.249C331.223 290.562 336.252 291.995 340.737 289.116C345.222 286.237 346.483 283.197 346.124 276.018" stroke="#263238" stroke-linecap="round" stroke-linejoin="round"/>
<path d="M285.726 210.727C285.726 210.727 306.325 212.531 317.408 212.778C328.492 213.025 333.892 212.012 337.179 215.62C340.465 219.228 344.592 257.854 346.446 264.811C348.299 271.768 345.21 273.831 337.438 276.661C329.666 279.491 317.346 279.491 303.174 276.661C289.001 273.831 282.823 271.718 281.278 265.54C279.733 259.362 280.771 239.517 280.771 228.471C280.771 217.424 279.795 210.986 285.726 210.727Z" fill="#BD6AF0" stroke="#263238" stroke-linecap="round" stroke-linejoin="round"/>
<path d="M334.423 250.972C337.673 250.626 340.868 249.883 343.938 248.76C341.961 235.168 339.452 217.968 337.277 215.62C333.929 212.012 328.517 213.038 317.507 212.778C306.498 212.519 285.825 210.727 285.825 210.727C279.894 210.986 280.883 217.424 280.883 228.496C280.883 233.08 280.697 239.147 280.611 245.14C282.069 246.017 298.985 255.185 334.423 250.972Z" fill="#BD6AF0" stroke="#263238" stroke-linecap="round" stroke-linejoin="round"/>
<path d="M285.146 243.892C285.478 247.626 285.379 251.387 284.849 255.099C284.336 258.217 284.043 261.368 283.972 264.527L288.976 266.59C288.976 266.59 289.866 258.633 290.459 255.099C290.862 251.77 291.06 248.419 291.052 245.066L285.146 243.892Z" fill="#263238" stroke="#263238" stroke-linecap="round" stroke-linejoin="round"/>
<path d="M323.475 247.463C323.475 247.463 323.179 252.776 322.598 256.606C322.017 260.437 321.115 269.507 321.115 269.507H327.009C327.009 269.507 329.073 260.437 329.073 256.903C329.073 253.369 329.369 247.166 329.369 247.166L323.475 247.463Z" fill="#263238" stroke="#263238" stroke-linecap="round" stroke-linejoin="round"/>
<path d="M346.507 264.762C344.703 257.805 340.589 219.179 337.24 215.571C336.724 215.024 336.128 214.557 335.473 214.187C333.323 214.879 330.16 216.584 331.568 220.464C333.632 226.123 335.695 253.95 334.658 262.698C333.62 271.446 327.96 275.586 333.113 277.637L333.397 277.748C334.79 277.467 336.161 277.087 337.5 276.611C345.222 273.831 348.311 271.768 346.507 264.762Z" fill="#BD6AF0" stroke="#263238" stroke-linecap="round" stroke-linejoin="round"/>
<path d="M313.85 310.789L303.754 308.083" stroke="white" stroke-linecap="round" stroke-linejoin="round"/>
<path d="M291.88 143.211C291.88 143.211 294.734 159.275 294.734 161.141C294.734 163.006 295.204 163.501 302.766 163.97C310.328 164.44 320.695 164.922 326.601 161.857C332.508 158.793 342.887 151.7 345.013 147.03C347.138 142.359 345.717 141.605 340.07 141.605H332.99C332.99 141.605 331.334 134.76 326.812 132.634C322.289 130.509 315.246 126.258 307.696 129.57C300.146 132.881 294.512 134.451 291.88 143.211Z" fill="#BD6AF0" stroke="#263238" stroke-linecap="round" stroke-linejoin="round"/>
<path d="M331.321 158.076C330.806 158.566 330.409 159.166 330.16 159.831C335.98 156.309 343.27 150.848 344.988 146.98C347.113 142.26 345.692 141.556 340.045 141.556H332.965C332.965 141.556 335.09 148.401 335.09 150.761C335.09 153.121 334.151 155.247 331.321 158.076Z" fill="#263238" stroke="#263238" stroke-linecap="round" stroke-linejoin="round"/>
<path d="M299.046 161.758C299.046 161.758 297.069 154.851 300.69 154.196C304.31 153.541 308.264 162.426 308.264 162.426C305.177 162.781 302.05 162.554 299.046 161.758V161.758Z" fill="#263238" stroke="#263238" stroke-linecap="round" stroke-linejoin="round"/>
<path d="M397.848 475.402H444.309C443.419 469.718 439.761 470.719 439.279 461.909C439.032 457.473 443.135 452.023 442.789 446.166C442.492 441.36 437.76 436.442 437.389 430.956C437.068 426.013 441.096 420.502 440.713 415.164C440.342 410.123 435.535 405.279 435.115 400.028C434.695 394.776 438.662 389.364 438.192 384.187C437.723 379.009 432.842 374.301 432.323 369.161C431.804 364.021 435.622 358.263 435.029 353.246C434.411 347.92 429.382 343.361 428.702 338.418C427.949 332.944 431.507 327.112 430.679 322.355C429.654 316.572 424.279 312.396 423.142 308.133C421.029 300.188 421.301 292.527 418.805 292.069C416.309 291.612 415.543 299.038 413.529 307.428C412.515 311.642 407.252 315.917 406.387 321.7C405.682 326.383 409.402 332.08 408.796 337.516C408.252 342.397 403.347 347.08 402.877 352.344C402.42 357.287 406.399 362.822 406.016 368.024C405.633 373.226 400.876 377.91 400.554 383.062C400.233 388.215 404.323 393.602 404.039 398.681C403.755 403.759 399.096 408.801 398.849 413.805C398.59 419.106 402.779 424.444 402.556 429.362C402.334 434.799 397.725 439.791 397.614 444.548C397.404 450.331 401.642 455.669 401.518 460.067C401.234 469.607 396.86 467.63 396.699 475.315L397.848 475.402Z" fill="#BD6AF0"/>
<path opacity="0.5" d="M397.848 475.402H444.309C443.419 469.718 439.761 470.719 439.279 461.909C439.032 457.473 443.135 452.023 442.789 446.166C442.492 441.36 437.76 436.442 437.389 430.956C437.068 426.013 441.096 420.502 440.713 415.164C440.342 410.123 435.535 405.279 435.115 400.028C434.695 394.776 438.662 389.364 438.192 384.187C437.723 379.009 432.842 374.301 432.323 369.161C431.804 364.021 435.622 358.263 435.029 353.246C434.411 347.92 429.382 343.361 428.702 338.418C427.949 332.944 431.507 327.112 430.679 322.355C429.654 316.572 424.279 312.396 423.142 308.133C421.029 300.188 421.301 292.527 418.805 292.069C416.309 291.612 415.543 299.038 413.529 307.428C412.515 311.642 407.252 315.917 406.387 321.7C405.682 326.383 409.402 332.08 408.796 337.516C408.252 342.397 403.347 347.08 402.877 352.344C402.42 357.287 406.399 362.822 406.016 368.024C405.633 373.226 400.876 377.91 400.554 383.062C400.233 388.215 404.323 393.602 404.039 398.681C403.755 403.759 399.096 408.801 398.849 413.805C398.59 419.106 402.779 424.444 402.556 429.362C402.334 434.799 397.725 439.791 397.614 444.548C397.404 450.331 401.642 455.669 401.518 460.067C401.234 469.607 396.86 467.63 396.699 475.315L397.848 475.402Z" fill="white"/>
<path d="M417.792 307.33V473.252" stroke="#263238" stroke-miterlimit="10"/>
<path d="M425.045 324.727L417.483 331.264L411.292 323.01" stroke="#263238" stroke-miterlimit="10"/>
<path d="M425.045 353.604L417.483 360.141L411.292 351.887" stroke="#263238" stroke-miterlimit="10"/>
<path d="M425.045 380.764L417.483 387.3L411.292 379.046" stroke="#263238" stroke-miterlimit="10"/>
<path d="M425.045 413.088L417.483 419.625L411.292 411.371" stroke="#263238" stroke-miterlimit="10"/>
<path d="M425.045 445.746L417.483 452.283L411.292 444.029" stroke="#263238" stroke-miterlimit="10"/>
<path d="M131.777 447.019H192.052C190.89 439.605 186.158 440.94 185.528 429.51C185.219 423.764 190.544 416.635 190.075 409.085C189.704 402.907 183.563 396.469 183.081 389.314C182.649 382.889 187.888 375.722 187.381 368.828C186.899 362.279 180.684 355.989 180.128 349.193C179.572 342.397 184.725 335.342 184.119 328.632C183.514 321.923 177.175 315.744 176.508 309.134C175.816 302.325 180.783 294.998 180.029 288.486C179.214 281.579 172.702 275.611 171.812 269.247C170.824 262.154 175.445 254.58 174.37 248.451C173.035 240.951 166.066 235.526 164.596 230.003C161.853 219.685 162.199 209.751 158.961 209.108C155.514 208.416 154.736 218.153 152.116 229.039C150.806 234.513 143.973 240.049 142.849 247.574C141.947 253.641 146.766 261.03 145.975 268.098C145.271 274.424 138.919 280.454 138.301 287.374C137.721 293.836 142.873 300.966 142.367 307.725C141.873 314.299 135.707 320.563 135.274 327.236C134.842 333.908 140.217 340.902 139.809 347.488C139.401 354.074 133.384 360.623 133.075 367.122C132.741 373.993 138.166 380.925 137.906 387.3C137.61 394.368 131.641 400.893 131.419 407.071C131.147 414.559 136.658 421.478 136.485 427.187C136.114 439.543 130.443 437.01 130.307 446.957L131.777 447.019Z" fill="#BD6AF0"/>
<path d="M157.689 228.953V444.227" stroke="#263238" stroke-miterlimit="10"/>
<path d="M167.105 251.528L157.281 260.004L149.25 249.291" stroke="#263238" stroke-miterlimit="10"/>
<path d="M167.105 288.993L157.281 297.469L149.25 286.768" stroke="#263238" stroke-miterlimit="10"/>
<path d="M167.105 324.233L157.281 332.71L149.25 322.009" stroke="#263238" stroke-miterlimit="10"/>
<path d="M167.105 366.171L157.281 374.647L149.25 363.934" stroke="#263238" stroke-miterlimit="10"/>
<path d="M167.105 408.541L157.281 417.018L149.25 406.317" stroke="#263238" stroke-miterlimit="10"/>
<path d="M95.3136 456.447H139.945C139.093 450.986 135.583 451.949 135.114 443.485C134.879 439.222 138.821 433.958 138.487 428.361C138.203 423.752 133.656 419.019 133.31 413.743C132.988 408.986 136.868 403.71 136.485 398.582C136.139 393.726 131.543 389.08 131.123 384.038C130.702 378.997 134.521 373.783 134.076 368.815C133.631 363.848 128.936 359.276 128.441 354.383C127.947 349.49 131.605 343.917 131.036 339.098C130.443 333.982 125.612 329.559 124.957 324.851C124.228 319.6 127.65 313.99 126.847 309.455C125.871 303.907 120.669 299.891 119.619 295.789C117.592 288.165 117.839 280.8 115.455 280.318C113.07 279.837 112.316 287.028 110.376 295.084C109.4 299.137 104.346 303.24 103.518 308.788C102.851 313.298 106.422 318.759 105.841 323.986C105.31 328.669 100.602 333.167 100.145 338.258C99.7125 343.052 103.531 348.328 103.16 353.333C102.789 358.337 98.2174 362.835 97.9085 367.777C97.5996 372.72 101.541 377.897 101.269 382.778C100.998 387.659 96.5122 392.503 96.3269 397.309C96.0797 402.4 100.034 407.528 99.8979 412.248C99.6878 417.475 95.2642 422.269 95.1036 426.841C94.9059 432.401 98.9835 437.517 98.8105 441.743C98.5387 450.924 94.3375 449.021 94.1892 456.398L95.3136 456.447Z" fill="#BD6AF0"/>
<path opacity="0.5" d="M95.3136 456.447H139.945C139.093 450.986 135.583 451.949 135.114 443.485C134.879 439.222 138.821 433.958 138.487 428.361C138.203 423.752 133.656 419.019 133.31 413.743C132.988 408.986 136.868 403.71 136.485 398.582C136.139 393.726 131.543 389.08 131.123 384.038C130.702 378.997 134.521 373.783 134.076 368.815C133.631 363.848 128.936 359.276 128.441 354.383C127.947 349.49 131.605 343.917 131.036 339.098C130.443 333.982 125.612 329.559 124.957 324.851C124.228 319.6 127.65 313.99 126.847 309.455C125.871 303.907 120.669 299.891 119.619 295.789C117.592 288.165 117.839 280.8 115.455 280.318C113.07 279.837 112.316 287.028 110.376 295.084C109.4 299.137 104.346 303.24 103.518 308.788C102.851 313.298 106.422 318.759 105.841 323.986C105.31 328.669 100.602 333.167 100.145 338.258C99.7125 343.052 103.531 348.328 103.16 353.333C102.789 358.337 98.2174 362.835 97.9085 367.777C97.5996 372.72 101.541 377.897 101.269 382.778C100.998 387.659 96.5122 392.503 96.3269 397.309C96.0797 402.4 100.034 407.528 99.8979 412.248C99.6878 417.475 95.2642 422.269 95.1036 426.841C94.9059 432.401 98.9835 437.517 98.8105 441.743C98.5387 450.924 94.3375 449.021 94.1892 456.398L95.3136 456.447Z" fill="white"/>
<path d="M114.479 294.998V454.383" stroke="#263238" stroke-miterlimit="10"/>
<path d="M121.448 311.704L114.182 317.981L108.239 310.048" stroke="#263238" stroke-miterlimit="10"/>
<path d="M121.448 339.444L114.182 345.721L108.239 337.788" stroke="#263238" stroke-miterlimit="10"/>
<path d="M121.448 365.541L114.182 371.818L108.239 363.885" stroke="#263238" stroke-miterlimit="10"/>
<path d="M121.448 396.58L114.182 402.857L108.239 394.937" stroke="#263238" stroke-miterlimit="10"/>
<path d="M121.448 427.953L114.182 434.23L108.239 426.31" stroke="#263238" stroke-miterlimit="10"/>
<path d="M438.588 488.5H498.875C497.713 481.086 492.981 482.42 492.351 471.003C492.029 465.245 497.355 458.128 496.898 450.565C496.515 444.387 490.374 437.962 489.904 430.795C489.471 424.37 494.711 417.203 494.204 410.308C493.722 403.759 487.494 397.482 486.951 390.674C486.407 383.865 491.547 376.822 490.942 370.113C490.336 363.403 483.998 357.237 483.33 350.614C482.663 343.991 487.606 336.491 486.84 329.979C486.036 323.059 479.512 317.091 478.635 310.728C477.646 303.635 482.268 296.061 481.18 289.944C479.858 282.444 472.877 277.019 471.406 271.484C468.676 261.178 469.022 251.244 465.784 250.589C462.337 249.909 461.546 259.646 458.939 270.532C457.617 275.994 450.796 281.542 449.671 289.067C448.769 295.146 453.588 302.535 452.798 309.591C452.093 315.917 445.73 321.947 445.112 328.867C444.531 335.342 449.696 342.459 449.19 349.23C448.695 355.792 442.529 362.056 442.097 368.729C441.664 375.401 447.04 382.395 446.632 388.993C446.224 395.592 440.206 402.116 439.885 408.615C439.564 415.486 444.988 422.43 444.717 428.806C444.432 435.861 438.452 442.398 438.242 448.576C437.97 456.076 443.481 462.996 443.308 468.705C442.937 481.061 437.266 478.528 437.068 488.475L438.588 488.5Z" fill="#BD6AF0"/>
<path d="M464.475 270.446V485.719" stroke="#263238" stroke-miterlimit="10"/>
<path d="M473.878 293.008L464.067 301.485L456.035 290.784" stroke="#263238" stroke-miterlimit="10"/>
<path d="M473.878 330.486L464.067 338.962L456.035 328.249" stroke="#263238" stroke-miterlimit="10"/>
<path d="M473.878 365.726L464.067 374.19L456.035 363.49" stroke="#263238" stroke-miterlimit="10"/>
<path d="M473.878 407.652L464.067 416.128L456.035 405.427" stroke="#263238" stroke-miterlimit="10"/>
<path d="M473.878 450.034L464.067 458.511L456.035 447.798" stroke="#263238" stroke-miterlimit="10"/>
<path d="M213.324 316.262L205.766 316.01L201.227 452.114L208.785 452.366L213.324 316.262Z" fill="#263238" stroke="#263238" stroke-linecap="round" stroke-linejoin="round"/>
<path d="M243.937 278.07L239.822 279.058V292.675L244.382 294.009L243.937 278.07Z" fill="#BD6AF0" stroke="#263238" stroke-linecap="round" stroke-linejoin="round"/>
<path d="M164.176 270.557L164.374 316.708L240.909 324.641L240.18 339.246L268.365 315.065L243.937 278.07L243.875 292.687L164.176 270.557Z" fill="#263238" stroke="#263238" stroke-linecap="round" stroke-linejoin="round"/>
<path d="M164.176 270.557L157.998 271.249L158.777 318.735L164.374 316.708L164.176 270.557Z" fill="#BD6AF0" stroke="#263238" stroke-linecap="round" stroke-linejoin="round"/>
<path d="M158.777 318.735L237.425 326.519L240.91 324.641L164.374 316.708L158.777 318.735Z" fill="#BD6AF0" stroke="#263238" stroke-linecap="round" stroke-linejoin="round"/>
<path d="M237.425 326.519L237.228 339.407L240.181 339.246L240.91 324.641L237.425 326.519Z" fill="#BD6AF0" stroke="#263238" stroke-linecap="round" stroke-linejoin="round"/>
<path d="M86.1206 458.622C86.1206 458.622 192.608 406.095 354.527 432.908C481.391 453.914 523.155 508.183 523.155 508.183" fill="white"/>
<path d="M86.1206 458.622C86.1206 458.622 192.608 406.095 354.527 432.908C481.391 453.914 523.155 508.183 523.155 508.183" stroke="#263238" stroke-linecap="round" stroke-linejoin="round"/>
<path d="M268.254 435.342L248.299 427.273C149.694 432.216 87.9123 463.107 87.9123 463.107L79.8806 464.936C73.3527 467.946 67.0437 471.411 61 475.303L90.3095 475.772L140.538 472.498L104.495 485.571L139.426 477.923L197.267 475.735L163.422 467.012L215.801 461.55L166.672 462.638L206.213 454.569L257.344 446.265L238.809 445.166L243.393 443.646L268.254 435.342Z" fill="#BD6AF0"/>
<path d="M392.498 443.312L403.619 450.108L376.435 449.49L388.791 456.286L381.378 458.758L399.294 467.407L381.995 469.878L398.677 483.471L306.621 484.088L332.57 493.973L322.684 498.298L385.702 508.183L454.28 525.482L425.243 509.419C425.243 509.419 491.35 527.336 493.821 528.571C496.292 529.807 510.502 535.368 512.356 535.985C514.209 536.603 490.114 517.451 490.114 517.451L514.827 523.629L490.114 495.827L501.235 497.063L493.203 490.267L509.267 497.063C509.267 497.063 464.783 461.229 392.498 443.312Z" fill="#BD6AF0"/>
</svg>
