<svg width="852" height="1017" viewBox="0 0 852 1017" fill="none" xmlns="http://www.w3.org/2000/svg">
<path fill-rule="evenodd" clip-rule="evenodd" d="M434.148 1.06389C569.055 11.7341 666.106 127.476 745.563 237.283C811.264 328.079 831.969 437.288 830.965 549.449C829.974 660.291 813.823 773.515 740.028 856.066C662.526 942.765 549.309 978.312 434.148 993.355C296.663 1011.31 126.732 1053.56 36.6066 947.95C-53.0387 842.898 49.4212 687.564 55.3449 549.449C60.7783 422.768 -2.6292 288.049 69.3806 183.802C149.823 67.3473 293.28 -10.0778 434.148 1.06389Z" fill="white"/>
<path d="M831.893 953.397C831.893 953.677 645.554 953.882 415.965 953.882C186.377 953.882 0 953.677 0 953.397C0 953.118 186.19 952.913 415.965 952.913C645.74 952.913 831.893 953.136 831.893 953.397Z" fill="#263238"/>
<path d="M170.742 219.574H700.374C705.689 219.574 710.786 221.684 714.545 225.44C718.305 229.196 720.419 234.291 720.424 239.606V932.042C720.424 937.36 718.312 942.46 714.552 946.22C710.792 949.98 705.692 952.092 700.374 952.092H170.742V219.574Z" fill="#BD6AF0"/>
<g opacity="0.3">
<path opacity="0.3" d="M170.742 219.574H700.374C705.689 219.574 710.786 221.684 714.545 225.44C718.305 229.196 720.419 234.291 720.424 239.606V932.042C720.424 937.36 718.312 942.46 714.552 946.22C710.792 949.98 705.692 952.092 700.374 952.092H170.742V219.574Z" fill="black"/>
</g>
<path d="M705.201 242.252H411.344V952.074H705.201V242.252Z" fill="#E0E0E0"/>
<path d="M168.451 213.798H660.684C666.002 213.798 671.102 215.91 674.862 219.67C678.622 223.43 680.735 228.53 680.735 233.848V932.042C680.735 937.36 678.622 942.46 674.862 946.22C671.102 949.98 666.002 952.092 660.684 952.092H168.451V213.798Z" fill="#BD6AF0"/>
<path d="M221.11 953.415C220.83 953.415 220.625 787.834 220.625 583.625C220.625 379.416 220.83 213.798 221.11 213.798C221.389 213.798 221.594 379.342 221.594 583.625C221.594 787.909 221.37 953.415 221.11 953.415Z" fill="#263238"/>
<path d="M234.937 953.415C234.676 953.415 234.452 787.834 234.452 583.625C234.452 379.416 234.676 213.798 234.937 213.798C235.197 213.798 235.421 379.342 235.421 583.625C235.421 787.909 235.197 953.415 234.937 953.415Z" fill="#263238"/>
<path d="M357.193 487.884L357.063 464.759L345.883 483.58H340.386L329.205 465.374V487.884H317.801V444.244H327.957L343.274 469.437L358.181 444.244H368.336L368.467 487.884H357.193Z" fill="white"/>
<path d="M406.518 479.387H387.995L384.567 487.865H371.97L391.238 444.225H403.406L422.729 487.865H409.89L406.518 479.387ZM402.903 470.312L397.312 456.337L391.722 470.312H402.903Z" fill="white"/>
<path d="M467.823 444.244V487.884H457.649L438.307 464.629V487.884H426.214V444.244H436.444L455.711 467.499V444.244H467.823Z" fill="white"/>
<path d="M476.171 468.43V444.206H488.619V468.02C488.619 475.474 491.731 478.493 496.911 478.493C502.091 478.493 505.128 475.511 505.128 468.02V444.244H517.296V468.468C517.296 481.511 509.694 488.797 496.799 488.797C483.904 488.797 476.171 481.474 476.171 468.43Z" fill="white"/>
<path d="M553.838 479.387H535.372L531.943 487.865H519.347L538.614 444.225H550.782L570.106 487.865H557.267L553.838 479.387ZM550.223 470.294L544.633 456.318L539.043 470.294H550.223Z" fill="white"/>
<path d="M573.646 444.244H585.981V478.101H606.814V487.884H573.646V444.244Z" fill="white"/>
<path d="M336.621 405.764H339.193V430.138H336.621V405.764Z" fill="white"/>
<path d="M367.498 405.764V430.138H365.374L349.721 410.442V430.231H347.131V405.764H349.256L364.983 425.535V405.764H367.498Z" fill="white"/>
<path d="M373.089 427.212L374.095 425.237C376.327 427.171 379.192 428.219 382.145 428.181C386.71 428.181 388.704 426.318 388.704 423.877C388.704 417.187 373.685 421.286 373.685 412.268C373.685 408.69 376.48 405.578 382.667 405.578C385.345 405.547 387.974 406.299 390.232 407.74L389.356 409.808C387.364 408.51 385.044 407.806 382.667 407.777C378.213 407.777 376.219 409.771 376.219 412.212C376.219 418.883 391.238 414.858 391.238 423.727C391.238 427.324 388.387 430.38 382.145 430.38C378.836 430.496 375.604 429.365 373.089 427.212Z" fill="white"/>
<path d="M401.282 407.982H392.71V405.764H412.425V407.982H403.853V430.138H401.282V407.982Z" fill="white"/>
<path d="M433.183 430.138L427.593 422.293C426.974 422.366 426.352 422.403 425.729 422.404H419.114V430.138H416.543V405.764H425.655C431.86 405.764 435.624 408.895 435.624 414.112C435.726 415.839 435.224 417.548 434.204 418.945C433.184 420.342 431.71 421.341 430.034 421.771L435.997 430.138H433.183ZM433.053 414.112C433.053 410.218 430.462 407.982 425.599 407.982H419.114V420.206H425.599C430.462 420.206 433.053 417.895 433.053 414.168V414.112Z" fill="white"/>
<path d="M441.512 419.759V405.802H444.084V419.665C444.084 425.442 446.804 428.088 451.537 428.088C456.27 428.088 458.991 425.442 458.991 419.665V405.802H461.506V419.759C461.506 426.765 457.78 430.38 451.5 430.38C445.22 430.38 441.512 426.728 441.512 419.759Z" fill="white"/>
<path d="M467.153 417.895C467.131 416.228 467.449 414.573 468.089 413.033C468.728 411.493 469.675 410.099 470.872 408.938C472.069 407.776 473.489 406.871 475.048 406.277C476.606 405.683 478.269 405.414 479.936 405.485C481.589 405.421 483.238 405.705 484.776 406.318C486.313 406.931 487.705 407.859 488.861 409.044L487.221 410.684C486.285 409.729 485.16 408.979 483.919 408.482C482.678 407.985 481.347 407.751 480.01 407.796C477.331 407.796 474.763 408.86 472.869 410.754C470.975 412.648 469.91 415.217 469.91 417.895C469.91 420.574 470.975 423.143 472.869 425.037C474.763 426.931 477.331 427.995 480.01 427.995C481.35 428.037 482.683 427.798 483.925 427.294C485.167 426.79 486.29 426.032 487.221 425.069L488.861 426.709C487.701 427.9 486.304 428.833 484.76 429.45C483.216 430.066 481.559 430.351 479.898 430.287C478.235 430.358 476.576 430.089 475.02 429.496C473.465 428.903 472.048 427.999 470.854 426.838C469.661 425.678 468.717 424.287 468.081 422.749C467.444 421.211 467.128 419.559 467.153 417.895V417.895Z" fill="white"/>
<path d="M498.793 407.982H490.221V405.764H509.936V407.982H501.364V430.138H498.793V407.982Z" fill="white"/>
<path d="M514.055 405.764H516.571V430.138H513.999L514.055 405.764Z" fill="white"/>
<path d="M522.402 417.895C522.32 415.348 523.001 412.835 524.356 410.677C525.711 408.519 527.68 406.814 530.01 405.782C532.339 404.749 534.924 404.435 537.433 404.88C539.942 405.326 542.262 406.509 544.094 408.281C545.926 410.052 547.188 412.329 547.718 414.822C548.249 417.314 548.023 419.908 547.07 422.272C546.117 424.635 544.481 426.66 542.37 428.088C540.259 429.516 537.771 430.282 535.222 430.287C533.555 430.36 531.891 430.093 530.33 429.502C528.77 428.911 527.347 428.008 526.147 426.848C524.947 425.689 523.996 424.297 523.353 422.757C522.709 421.218 522.385 419.564 522.402 417.895V417.895ZM545.434 417.895C545.463 415.86 544.886 413.863 543.777 412.157C542.667 410.452 541.075 409.115 539.203 408.317C537.331 407.52 535.264 407.298 533.265 407.679C531.266 408.061 529.426 409.028 527.979 410.459C526.532 411.89 525.544 413.72 525.141 415.714C524.737 417.708 524.937 419.778 525.714 421.659C526.49 423.539 527.81 425.146 529.503 426.275C531.196 427.403 533.187 428.002 535.222 427.995C536.566 428.041 537.905 427.812 539.158 427.322C540.41 426.832 541.549 426.092 542.505 425.146C543.461 424.201 544.214 423.07 544.718 421.823C545.221 420.576 545.465 419.239 545.434 417.895V417.895Z" fill="white"/>
<path d="M574.167 405.764V430.138H572.043L556.372 410.442V430.231H553.837V405.764H555.962L571.67 425.535V405.764H574.167Z" fill="white"/>
<g opacity="0.3">
<path opacity="0.3" d="M234.954 213.798H221.109V953.415H234.954V213.798Z" fill="black"/>
</g>
<path d="M525.887 298.303V213.798H607.28V299.868L567.366 339.782L525.887 298.303Z" fill="#455A64"/>
<path d="M688.002 242.252C688.262 242.252 688.486 399.448 688.486 593.315C688.486 787.182 688.262 944.415 688.002 944.415C687.741 944.415 687.517 787.257 687.517 593.315C687.517 399.373 687.778 242.252 688.002 242.252Z" fill="#263238"/>
<path d="M696.386 242.252C696.647 242.252 696.871 399.448 696.871 593.315C696.871 787.182 696.647 944.415 696.386 944.415C696.125 944.415 695.902 787.257 695.902 593.315C695.902 399.373 696.107 242.252 696.386 242.252Z" fill="#263238"/>
<path d="M688.058 344.384H708.444L727.078 358.509L710.363 375.205H688.058V344.384Z" fill="#455A64"/>
<path d="M734.885 404.907H696.387V430.547H734.885V404.907Z" fill="#BD6AF0"/>
<g opacity="0.3">
<path opacity="0.3" d="M547.465 709.591L524.471 731.951C523.337 733.051 521.82 733.666 520.241 733.666C518.662 733.666 517.145 733.051 516.011 731.951L357.623 580.346C356.458 579.228 355.783 577.694 355.748 576.08C355.714 574.466 356.321 572.904 357.436 571.737L381.437 546.656C381.995 546.074 382.663 545.609 383.402 545.287C384.141 544.965 384.936 544.794 385.742 544.781C386.548 544.769 387.348 544.917 388.097 545.216C388.845 545.516 389.526 545.961 390.102 546.525L547.54 700.795C548.13 701.368 548.598 702.054 548.916 702.813C549.233 703.571 549.393 704.387 549.386 705.209C549.379 706.031 549.206 706.844 548.875 707.597C548.545 708.35 548.065 709.028 547.465 709.591Z" fill="black"/>
</g>
<path d="M399.958 556.83C398.07 559.461 395.936 561.906 393.586 564.134C391.456 566.578 389.09 568.806 386.523 570.786C388.406 568.151 390.54 565.705 392.896 563.482C395.021 561.033 397.387 558.804 399.958 556.83V556.83Z" fill="#263238"/>
<path d="M425.133 581.072C421.128 586.164 416.628 590.845 411.698 595.048C413.578 592.404 415.712 589.951 418.071 587.725C420.207 585.287 422.572 583.059 425.133 581.072V581.072Z" fill="#263238"/>
<path d="M411.977 567.917C409.317 571.343 406.408 574.569 403.275 577.569C400.387 580.776 397.274 583.771 393.958 586.532C396.622 583.114 399.53 579.895 402.66 576.898C405.539 573.678 408.653 570.676 411.977 567.917V567.917Z" fill="#263238"/>
<path d="M437.859 593.799C435.201 597.222 432.293 600.442 429.157 603.433C426.273 606.648 423.159 609.65 419.84 612.415C425.396 605.765 431.438 599.536 437.915 593.781L437.859 593.799Z" fill="#263238"/>
<path d="M449.748 605.706C447.873 608.347 445.738 610.794 443.376 613.011C441.249 615.452 438.89 617.68 436.332 619.663C438.203 617.024 440.332 614.577 442.686 612.359C444.816 609.915 447.182 607.687 449.748 605.706Z" fill="#263238"/>
<path d="M462.532 618.433C459.866 621.844 456.964 625.063 453.848 628.067C450.969 631.282 447.855 634.278 444.531 637.03C447.2 633.617 450.108 630.398 453.233 627.396C456.109 624.185 459.217 621.189 462.532 618.433V618.433Z" fill="#263238"/>
<path d="M474.383 630.322C470.378 635.413 465.877 640.095 460.948 644.297C462.827 641.654 464.962 639.201 467.321 636.974C469.445 634.525 471.811 632.297 474.383 630.322Z" fill="#263238"/>
<path d="M487.091 643.049C484.444 646.475 481.541 649.695 478.407 652.682C475.531 655.905 472.416 658.907 469.09 661.664C471.751 658.238 474.659 655.012 477.792 652.012C480.674 648.806 483.781 645.811 487.091 643.049Z" fill="#263238"/>
<path d="M498.998 654.937C494.993 660.029 490.492 664.71 485.562 668.913C487.447 666.273 489.582 663.821 491.935 661.59C494.078 659.158 496.442 656.931 498.998 654.937Z" fill="#263238"/>
<path d="M511.726 667.59C509.065 671.016 506.157 674.242 503.024 677.242C500.136 680.448 497.022 683.444 493.707 686.205C496.367 682.79 499.269 679.57 502.39 676.571C505.278 673.353 508.398 670.351 511.726 667.59V667.59Z" fill="#263238"/>
<path d="M523.614 679.571C521.748 682.215 519.619 684.662 517.26 686.876C515.124 689.315 512.759 691.542 510.197 693.528C512.072 690.886 514.207 688.439 516.57 686.224C518.697 683.783 521.056 681.555 523.614 679.571V679.571Z" fill="#263238"/>
<g opacity="0.3">
<path opacity="0.3" d="M463.854 608.39L486.029 629.185L500.936 614.52C500.936 614.52 524.918 621.974 540.347 604.943C554.359 589.532 550.185 567.116 550.185 567.116L524.359 589.905L502.501 568.047L525.551 544.14C518.325 542.265 510.716 542.471 503.602 544.732C496.487 546.994 490.157 551.22 485.339 556.923C471.476 572.631 478.631 593.278 478.631 593.278L463.854 608.39Z" fill="black"/>
</g>
<g opacity="0.3">
<path opacity="0.3" d="M436.313 669.081C435.772 668.112 414.176 648.341 414.176 648.341L400.126 662.093C400.126 662.093 373.759 656.838 360.715 671.671C346.106 688.274 350.876 709.498 350.876 709.498L376.703 686.708L398.561 708.585L375.51 732.473C382.73 734.352 390.333 734.156 397.446 731.908C404.559 729.66 410.894 725.451 415.722 719.765C429.586 704.056 422.431 683.391 422.431 683.391L436.313 669.081Z" fill="black"/>
</g>
<path d="M618.702 870.42C618.702 870.7 548.75 870.904 462.494 870.904C376.237 870.904 306.267 870.7 306.267 870.42C306.267 870.141 376.2 869.936 462.494 869.936C548.788 869.936 618.702 870.159 618.702 870.42Z" fill="white"/>
<path d="M566.583 885.308C566.583 885.569 520.576 885.793 463.854 885.793C407.133 885.793 361.107 885.569 361.107 885.308C361.107 885.047 407.114 884.824 463.854 884.824C520.595 884.824 566.583 885.029 566.583 885.308Z" fill="white"/>
<path d="M474.792 899.601H450.177V924.216H474.792V899.601Z" fill="#E0E0E0"/>
<path d="M192.134 919.371L186.954 957.049C186.954 957.049 223.495 974.956 223.216 982L149.835 974.546L155.426 915.533L192.134 919.371Z" fill="#455A64"/>
<path d="M164.575 951.571C163.85 951.715 163.203 952.122 162.76 952.713C162.316 953.305 162.106 954.039 162.171 954.776C162.286 955.506 162.677 956.164 163.263 956.614C163.849 957.065 164.585 957.274 165.32 957.198C166.092 957.045 166.779 956.612 167.25 955.982C167.722 955.353 167.943 954.571 167.873 953.788C167.671 953.036 167.186 952.391 166.519 951.988C165.852 951.585 165.055 951.456 164.295 951.627" fill="#E0E0E0"/>
<g opacity="0.6">
<path opacity="0.6" d="M149.835 974.602L150.637 968.677L220.7 977.994C220.7 977.994 223.831 979.745 223.216 982L149.835 974.602Z" fill="white"/>
</g>
<path d="M188.185 956.788C188.185 957.143 186.321 957.124 184.458 958.111C182.594 959.099 181.495 960.497 181.178 960.31C180.861 960.124 181.607 958.13 183.899 956.975C186.191 955.819 188.296 956.416 188.185 956.788Z" fill="#263238"/>
<path d="M195.563 960.757C195.563 961.111 193.998 961.558 192.619 962.956C191.24 964.353 190.755 965.919 190.383 965.863C190.01 965.807 190.01 963.757 191.743 962.136C193.476 960.515 195.582 960.403 195.563 960.757Z" fill="#263238"/>
<path d="M198.992 970.41C198.657 970.41 198.34 968.546 199.458 966.683C200.576 964.82 202.346 964.205 202.458 964.521C202.57 964.838 201.433 965.77 200.595 967.317C199.756 968.863 199.365 970.41 198.992 970.41Z" fill="#263238"/>
<path d="M188.407 948.068C188.221 948.384 186.544 947.732 184.681 947.658C182.817 947.583 180.954 948.068 180.842 947.751C180.73 947.434 182.333 946.298 184.736 946.409C187.14 946.521 188.612 947.807 188.407 948.068Z" fill="#263238"/>
<path d="M92.3871 664.701C92.3871 664.701 78.9147 760.331 85.6975 775.965C90.9336 788.058 100.213 793.313 112.083 796.369C129.208 800.766 156.674 803.915 156.674 803.915L165.991 748.815L145.065 744.25L164.333 675.695L130.177 652.347L92.3871 664.701Z" fill="#263238"/>
<path d="M164.258 675.695L147.376 939.869L193.961 942.235L214.7 811.183C214.7 811.183 236.837 703.106 238.347 689.894C239.856 676.683 238.347 648.62 238.347 648.62L164.258 675.695Z" fill="#263238"/>
<path d="M162.935 696.323C162.955 696.497 162.955 696.672 162.935 696.845C162.935 697.236 162.935 697.739 162.935 698.373C162.935 699.771 162.824 701.727 162.73 704.205C162.488 709.274 162.116 716.616 161.575 725.672C160.513 743.784 158.743 768.809 156.917 796.481C156.078 810.307 155.277 823.463 154.55 835.463C153.823 847.463 152.519 858.178 151.625 867.141C150.73 876.103 150.041 883.482 149.649 888.532C149.463 891.011 149.314 892.949 149.202 894.365C149.202 894.98 149.202 895.483 149.072 895.874C149.099 896.041 149.099 896.211 149.072 896.377C149.072 896.377 149.072 896.209 149.072 895.874C149.072 895.539 149.072 894.961 149.072 894.346C149.072 893.004 149.202 891.048 149.351 888.514C149.631 883.445 150.171 876.103 151.01 867.066C151.848 858.029 152.873 847.277 153.73 835.388C154.587 823.5 155.072 810.233 156.022 796.425C157.886 768.828 159.749 743.859 160.96 725.616C161.575 716.616 162.078 709.311 162.414 704.168C162.6 701.69 162.73 699.752 162.824 698.336C162.824 697.721 162.824 697.218 162.954 696.826C162.931 696.66 162.925 696.491 162.935 696.323V696.323Z" fill="#455A64"/>
<path d="M152.072 719.28C152.068 719.979 151.974 720.674 151.792 721.349C151.531 722.672 151.121 724.591 150.562 726.939C149.463 731.616 147.693 738.119 145.326 745.014C142.96 751.908 140.444 758.151 138.469 762.548C137.481 764.747 136.606 766.517 136.028 767.71C135.764 768.374 135.413 769.001 134.984 769.573C135.148 768.891 135.386 768.229 135.692 767.598C136.27 766.145 136.997 764.393 137.835 762.325C139.699 757.871 142.047 751.685 144.413 744.734C146.78 737.784 148.624 731.43 150.003 726.79L151.513 721.311C151.617 720.614 151.805 719.933 152.072 719.28V719.28Z" fill="#455A64"/>
<path d="M135.544 431.871L124.363 440.796C124.363 440.796 88.7727 447.15 85.7354 452.703L97.307 524.108L106.289 585.377C106.289 585.377 92.8349 621.508 92.4622 636.751C92.0895 651.993 92.4622 664.701 92.4622 664.701H99.1331C114.671 664.705 129.606 670.714 140.817 681.472V681.472L153.097 670.292L155.501 691.497C155.501 691.497 203.688 694.46 215.949 685.161C228.21 675.863 244.85 656.148 244.85 656.148C244.85 656.148 247.72 606.694 233.055 581.725C218.39 556.755 214.701 551.575 214.701 551.575C214.701 551.575 219.918 508.493 219.918 507.003C219.918 505.512 224.372 446.74 224.372 446.74L187.402 437.423L176.706 429.243L135.544 431.871Z" fill="#455A64"/>
<g opacity="0.3">
<path opacity="0.3" d="M104.983 588.824C107.262 590.926 109.984 592.49 112.948 593.4C115.912 594.309 119.042 594.541 122.108 594.079C126.226 593.52 130.195 591.75 134.369 591.806C140.444 591.899 145.68 595.775 150.972 598.737C162.489 605.129 175.765 607.626 188.817 605.856C203.724 603.787 217.383 596.24 230.054 588.06C231.013 587.516 231.865 586.803 232.57 585.955C233.214 584.946 233.528 583.761 233.468 582.565C233.408 581.37 232.977 580.223 232.234 579.284C230.703 577.419 228.529 576.196 226.141 575.855C221.892 575.054 217.551 576.097 213.302 576.787C204.226 578.281 194.959 578.199 185.91 576.544C174.432 574.457 163.55 569.873 151.922 568.327C138.906 566.589 125.667 568.742 113.872 574.513C111.292 575.631 108.966 577.26 107.033 579.302C105.131 582.086 104.395 585.504 104.983 588.824" fill="black"/>
</g>
<path d="M145.195 470.704C145.223 470.889 145.223 471.077 145.195 471.263C145.195 471.691 145.195 472.25 145.307 472.94L145.754 479.387C146.052 484.977 146.499 493.12 147.04 503.052C148.027 523.102 149.406 550.699 150.916 581.165C151.27 588.787 151.624 596.24 151.959 603.433C152.295 610.626 152.649 617.558 152.63 624.191C152.63 627.508 152.63 630.75 152.332 633.881C152.034 637.011 151.736 640.03 151.773 642.956C151.773 648.807 152.257 654.322 152.164 659.316C152.071 664.31 152.91 668.782 153.319 672.733C153.729 676.683 154.158 680.056 154.493 682.851C154.829 685.646 155.034 687.733 155.201 689.261C155.201 689.95 155.313 690.509 155.351 690.938C155.367 691.13 155.367 691.323 155.351 691.516C155.29 691.327 155.246 691.134 155.22 690.938C155.22 690.528 155.09 689.969 154.978 689.28L154.102 682.907L152.76 672.788C152.295 668.838 151.698 664.366 151.456 659.335C151.456 654.304 151.009 648.881 150.953 642.956C150.953 639.993 151.27 636.937 151.456 633.825C151.642 630.713 151.736 627.489 151.717 624.191C151.717 617.595 151.344 610.663 150.99 603.47C150.636 596.278 150.282 588.824 149.928 581.203C148.512 550.736 147.245 523.139 146.332 503.089C145.922 493.139 145.586 485.07 145.363 479.406C145.363 476.666 145.195 474.505 145.139 472.977C145.139 472.269 145.139 471.728 145.139 471.3C145.139 470.871 145.195 470.704 145.195 470.704Z" fill="#263238"/>
<path d="M99.5053 466.082L98.4245 540.879L104.015 553.923L99.3749 589.551L80.536 578.967C75.9491 576.439 72.2068 572.618 69.7749 567.979C67.343 563.341 66.3289 558.09 66.8587 552.879V552.637C68.5916 538.14 71.4613 515.034 73.865 500.369C77.5918 477.673 80.2006 459.821 85.7721 452.759L99.5053 466.082Z" fill="#455A64"/>
<path d="M224.427 446.74C224.427 446.74 235.216 444.523 240.807 470.555C246.397 496.586 250.85 541.96 250.85 541.96C251.417 542.107 251.942 542.386 252.38 542.774C252.819 543.162 253.161 543.648 253.377 544.193C253.593 544.737 253.677 545.325 253.624 545.908C253.57 546.492 253.38 547.054 253.068 547.55C253.068 547.55 252.322 572.054 249.341 575.016L218.278 556.681L214.738 551.519L224.427 446.74Z" fill="#455A64"/>
<path d="M99.3745 588.824L141.096 584.184L144.301 563.892L103.381 560.612L99.3745 588.824Z" fill="#9D6054"/>
<path d="M152.369 461.629C151.967 462.383 151.499 463.1 150.972 463.772C149.891 465.244 148.512 467.107 146.891 469.362L140.742 477.617C140.638 477.768 140.502 477.894 140.344 477.987C140.187 478.08 140.011 478.139 139.829 478.157C139.479 478.164 139.138 478.053 138.86 477.84C138.44 477.526 138.047 477.177 137.686 476.797C136.907 476.098 136.172 475.352 135.487 474.561C134.025 472.919 132.697 471.162 131.518 469.306C127.433 462.729 125.325 455.116 125.443 447.374C125.471 445.048 125.739 442.731 126.244 440.461C126.409 439.626 126.652 438.809 126.971 438.02C126.462 441.1 126.182 444.215 126.133 447.337C126.122 457.121 129.702 466.57 136.195 473.89C136.865 474.659 137.574 475.393 138.319 476.089C138.647 476.432 138.996 476.756 139.363 477.058C139.735 477.263 139.81 477.281 140.052 477.058C142.363 473.983 144.543 471.244 146.332 468.952L150.674 463.548C151.166 462.848 151.735 462.204 152.369 461.629V461.629Z" fill="#263238"/>
<path d="M187.457 437.442C187.541 437.688 187.579 437.947 187.569 438.206C187.606 438.926 187.606 439.648 187.569 440.368C187.527 443.049 187.125 445.712 186.377 448.287C185.205 452.064 183.76 455.751 182.054 459.318C180.043 463.722 177.739 467.986 175.159 472.083C173.799 474.281 172.438 476.387 171.115 478.418C170.78 478.921 170.463 479.424 170.128 479.909C169.81 480.456 169.435 480.968 169.01 481.437C168.85 481.575 168.663 481.677 168.46 481.738C168.258 481.799 168.045 481.817 167.836 481.791C167.463 481.727 167.119 481.552 166.848 481.288C166.435 480.869 166.061 480.414 165.73 479.927L158.798 470.48L154.084 464.07C153.47 463.308 152.928 462.49 152.463 461.629C153.137 462.316 153.759 463.051 154.326 463.828C155.593 465.449 157.27 467.554 159.283 470.07L166.55 479.387C167.202 480.263 167.985 481.25 168.414 480.729C168.766 480.315 169.084 479.872 169.364 479.406L170.333 477.896C171.656 475.865 172.997 473.76 174.339 471.579C176.901 467.52 179.209 463.307 181.252 458.964C182.972 455.439 184.471 451.811 185.743 448.101C186.754 444.633 187.33 441.052 187.457 437.442V437.442Z" fill="#263238"/>
<path d="M129.208 466.436C129.208 466.604 127.233 466.94 124.233 468.3C120.262 470.152 116.84 473.003 114.301 476.573L114.021 476.965L113.611 476.666C112.578 475.901 111.488 475.216 110.35 474.617C105.704 472.138 100.418 471.119 95.1825 471.691C93.0281 472.04 90.8944 472.507 88.791 473.089C89.2719 472.737 89.8069 472.467 90.3749 472.287C91.8966 471.698 93.4771 471.273 95.0893 471.02C100.506 470.22 106.036 471.194 110.854 473.797C112.025 474.438 113.146 475.167 114.208 475.977H113.518C116.167 472.29 119.795 469.418 123.99 467.685C125.195 467.188 126.443 466.801 127.717 466.53C128.205 466.409 128.71 466.378 129.208 466.436V466.436Z" fill="#263238"/>
<path d="M223.104 471.039C220.969 469.889 218.596 469.251 216.172 469.176C213.555 469.128 210.955 469.617 208.532 470.61C205.559 471.88 202.708 473.421 200.017 475.213L199.122 475.772L198.75 476.014L198.489 475.66C194.948 471.263 189.808 468.449 184.197 467.834C181.879 467.658 179.549 467.727 177.246 468.039C177.837 467.763 178.464 467.575 179.109 467.48C180.813 467.135 182.557 467.029 184.29 467.163C186.873 467.366 189.398 468.035 191.743 469.138C194.656 470.514 197.208 472.549 199.197 475.083L198.545 474.971L199.439 474.393C202.178 472.555 205.101 471.007 208.16 469.772C210.703 468.781 213.428 468.343 216.154 468.486C217.992 468.581 219.789 469.064 221.427 469.902C222.062 470.155 222.635 470.543 223.104 471.039V471.039Z" fill="#263238"/>
<path d="M213.042 633.341C213.042 633.341 212.8 633.583 212.315 633.956L210.135 635.539L208.532 636.658C207.936 637.049 207.247 637.422 206.539 637.85C204.932 638.854 203.271 639.768 201.563 640.589L198.601 642.024C197.557 642.509 196.439 642.9 195.284 643.384C192.844 644.361 190.356 645.213 187.83 645.937C176.176 649.245 163.941 649.97 151.978 648.061C149.239 647.54 146.631 647.111 144.245 646.403C143.053 646.086 141.897 645.825 140.798 645.453L137.686 644.372C135.895 643.765 134.141 643.056 132.431 642.248C131.667 641.912 130.959 641.614 130.307 641.297L128.593 640.366L126.226 639.061C125.705 638.745 125.425 638.577 125.444 638.54C125.748 638.623 126.042 638.742 126.32 638.894L128.761 640.03L130.512 640.887C131.146 641.167 131.872 641.446 132.655 641.763C134.183 642.36 135.897 643.142 137.91 643.738L141.022 644.745C142.102 645.08 143.258 645.322 144.45 645.62C146.817 646.291 149.407 646.683 152.109 647.186C158.021 648.012 163.998 648.281 169.96 647.987C175.923 647.587 181.833 646.607 187.607 645.061C190.234 644.26 192.749 643.571 195.06 642.62C196.197 642.173 197.315 641.801 198.358 641.335L201.321 639.974C203.184 639.154 204.862 638.111 206.315 637.384C207.042 636.974 207.731 636.639 208.346 636.266L209.967 635.223L212.259 633.788C212.502 633.609 212.765 633.459 213.042 633.341Z" fill="#263238"/>
<path d="M201.656 607.067C200.993 607.837 200.271 608.554 199.494 609.21C198.786 609.88 197.892 610.7 196.792 611.557C195.693 612.415 194.5 613.421 193.066 614.446C191.631 615.471 190.066 616.589 188.277 617.651C186.488 618.713 184.55 619.812 182.556 620.912C173.571 625.568 163.84 628.615 153.804 629.912C151.493 630.154 149.295 630.434 147.226 630.49C145.158 630.545 143.239 630.62 141.487 630.583C139.735 630.545 138.133 630.434 136.754 630.34C135.561 630.28 134.373 630.149 133.195 629.949C132.183 629.849 131.181 629.675 130.195 629.427C131.21 629.382 132.227 629.431 133.232 629.576C134.201 629.576 135.394 629.781 136.773 629.8C138.152 629.819 139.735 629.968 141.487 629.8C143.239 629.632 145.214 629.8 147.189 629.595C149.164 629.39 151.4 629.204 153.692 628.924C163.604 627.557 173.219 624.554 182.146 620.036C184.177 618.955 186.134 617.968 187.867 616.868C189.6 615.769 191.221 614.781 192.674 613.794C194.128 612.806 195.358 611.93 196.401 611.036C197.445 610.141 198.451 609.47 199.196 608.837C199.966 608.18 200.789 607.588 201.656 607.067V607.067Z" fill="#263238"/>
<path d="M90.263 472.642C90.5041 473.449 90.6602 474.28 90.7288 475.12C90.9711 476.983 91.2692 479.182 91.6419 481.921C92.4245 487.847 93.5053 495.673 94.6047 504.282C95.7041 512.891 96.9712 520.754 97.8284 526.643C98.2197 529.363 98.5365 531.637 98.7973 533.444C98.9461 534.268 99.0271 535.104 99.0396 535.941C98.7478 535.152 98.5417 534.333 98.4246 533.5C98.0892 531.916 97.6607 529.605 97.1389 526.754C96.1327 521.053 94.8469 513.152 93.6357 504.394C92.4245 495.636 91.5114 487.623 90.9524 481.921C90.6729 479.033 90.4679 476.704 90.3561 475.083C90.259 474.273 90.2279 473.456 90.263 472.642V472.642Z" fill="#263238"/>
<path d="M224.371 457.548C224.415 457.863 224.415 458.183 224.371 458.498C224.371 459.225 224.371 460.12 224.222 461.2C224.073 463.548 223.812 466.958 223.458 471.151C222.75 479.536 221.594 491.108 220.085 503.872C218.576 516.636 216.955 528.096 215.688 536.481C215.054 540.637 214.514 543.935 214.104 546.32C213.899 547.382 213.731 548.277 213.601 548.985C213.56 549.303 213.485 549.615 213.377 549.917C213.332 549.601 213.332 549.281 213.377 548.966C213.377 548.239 213.563 547.345 213.694 546.264C214.01 543.786 214.439 540.45 214.979 536.388C216.079 528.04 217.57 516.506 219.098 503.76C220.626 491.015 221.855 479.443 222.824 471.076C223.272 467.014 223.626 463.623 223.905 461.182C224.036 460.101 224.147 459.207 224.222 458.48C224.23 458.164 224.28 457.851 224.371 457.548V457.548Z" fill="#263238"/>
<path d="M231.005 517.549L177.693 549.674L163.923 545.798L100.717 533.612L87.6543 575.072L137.388 579.768L159.32 590.278L169.923 585.694L216.172 553.923L231.005 517.549Z" fill="#BD6AF0"/>
<path d="M159.302 590.128C159.996 588.086 160.83 586.094 161.799 584.166C163.438 580.439 165.693 575.501 168.097 569.929C170.501 564.358 172.625 559.252 174.134 555.563C174.876 553.537 175.754 551.563 176.762 549.656C176.699 550.238 176.555 550.809 176.333 551.351C175.998 552.413 175.457 553.941 174.787 555.823C173.426 559.55 171.414 564.712 168.991 570.302C166.569 575.892 164.221 580.886 162.432 584.464C161.538 586.327 160.774 587.669 160.233 588.656C159.989 589.186 159.675 589.681 159.302 590.128V590.128Z" fill="#263238"/>
<path d="M157.811 559.774C158.219 557.375 158.953 555.043 159.991 552.842C160.732 550.53 161.772 548.325 163.084 546.283C162.672 548.675 161.939 551 160.904 553.196C160.156 555.511 159.117 557.721 157.811 559.774V559.774Z" fill="#263238"/>
<path d="M170.333 547.606C170.333 547.606 171.935 541.233 176.761 538.755C181.587 536.276 221.613 515.462 221.613 515.462L226.365 520.344L177.693 549.674L170.333 547.606Z" fill="#E0E0E0"/>
<path d="M106.214 534.674L114.32 530.612C114.32 530.612 137.277 528.133 150.544 530.612C163.812 533.09 170.762 540.506 170.334 547.606L106.214 534.674Z" fill="#E0E0E0"/>
<path d="M200.297 551.798C196.174 553.565 192.885 556.847 191.11 560.966C187.924 568.029 185.818 571.569 181.924 574.01C178.029 576.451 175.924 578.24 171.34 576.116C166.756 573.991 159.302 567.06 155.78 566.501C153.693 566.165 152.967 569.407 152.967 569.407C152.967 569.407 143.799 563.296 140.612 564.414C137.426 565.532 140.258 567.991 142.476 570.47C143.789 572.012 144.967 573.664 145.997 575.408C146.687 575.128 139.625 568.476 135.264 569.817C134.904 569.88 134.562 570.019 134.26 570.225C133.959 570.431 133.705 570.699 133.516 571.012C133.327 571.325 133.207 571.674 133.165 572.037C133.122 572.4 133.158 572.768 133.27 573.116L138.581 577.029C138.581 577.029 135.767 582.079 138.227 583.141C140.687 584.203 158.37 596.557 162.246 596.557C166.122 596.557 183.787 599.744 191.203 597.973C198.62 596.203 206.893 593.669 206.893 593.669C206.893 593.669 236.055 584.203 244.869 572.911L218.39 556.662C218.39 556.662 200.744 579.619 199.756 577.159C198.212 572.991 197.845 568.478 198.694 564.115C199.589 558.861 203.353 550.084 200.297 551.798Z" fill="#9D6054"/>
<path d="M175.83 586.29C174.397 586.172 173.003 585.767 171.731 585.097C168.69 583.532 165.769 581.745 162.991 579.749C160.05 577.94 157.372 575.733 155.035 573.19C153.997 572.176 153.278 570.881 152.966 569.464C153.759 570.611 154.618 571.713 155.538 572.762C157.972 575.098 160.645 577.172 163.513 578.948C166.904 581.128 169.718 583.346 172.029 584.538C174.339 585.731 175.886 586.141 175.83 586.29Z" fill="#724A44"/>
<path d="M169.811 593.743C168.481 593.171 167.229 592.432 166.084 591.545C163.848 590.073 160.83 587.93 157.587 585.433C154.345 582.936 151.531 580.532 149.537 578.743C148.402 577.835 147.376 576.797 146.481 575.65C147.732 576.381 148.906 577.236 149.985 578.203L158.184 584.669L166.494 590.986C167.689 591.792 168.8 592.716 169.811 593.743V593.743Z" fill="#724A44"/>
<path d="M155.072 591.395C154.848 591.582 151.68 587.669 147.022 583.756C142.363 579.842 138.077 577.215 138.226 576.973C141.71 578.404 144.905 580.456 147.655 583.029C150.604 585.356 153.115 588.189 155.072 591.395V591.395Z" fill="#724A44"/>
<path d="M160.439 487.586C160.305 487.176 160.193 486.759 160.103 486.338C159.779 485.27 159.127 484.332 158.24 483.654C157.511 483.128 156.651 482.812 155.755 482.741C154.859 482.671 153.96 482.848 153.158 483.254C152.355 483.66 151.68 484.279 151.206 485.043C150.732 485.807 150.477 486.687 150.47 487.586C150.48 488.57 150.785 489.528 151.347 490.335C151.908 491.143 152.7 491.763 153.619 492.114C154.384 492.397 155.206 492.489 156.015 492.381C156.824 492.274 157.594 491.971 158.259 491.499C159.145 490.822 159.797 489.883 160.122 488.816C160.206 488.399 160.319 487.988 160.457 487.586C160.457 487.586 160.625 488.052 160.457 488.909C160.238 490.144 159.575 491.257 158.594 492.04C157.854 492.633 156.974 493.029 156.038 493.188C155.103 493.348 154.142 493.267 153.246 492.953C152.134 492.56 151.172 491.832 150.491 490.869C149.81 489.906 149.445 488.756 149.445 487.577C149.445 486.398 149.81 485.247 150.491 484.285C151.172 483.322 152.134 482.594 153.246 482.201C154.142 481.886 155.103 481.805 156.038 481.965C156.974 482.125 157.854 482.52 158.594 483.114C159.571 483.9 160.233 485.011 160.457 486.244C160.662 487.102 160.495 487.586 160.439 487.586Z" fill="#263238"/>
<path d="M162.32 523.139C162.32 523.139 162.208 522.674 161.966 521.891C161.635 520.831 160.984 519.901 160.103 519.226C159.545 518.81 158.905 518.517 158.225 518.369C157.546 518.221 156.842 518.22 156.162 518.367C155.482 518.515 154.841 518.806 154.283 519.222C153.725 519.638 153.263 520.168 152.928 520.778C152.593 521.388 152.392 522.063 152.34 522.757C152.288 523.45 152.385 524.147 152.626 524.801C152.866 525.454 153.244 526.047 153.733 526.542C154.222 527.037 154.812 527.42 155.463 527.668C156.227 527.955 157.05 528.049 157.86 527.942C158.669 527.835 159.44 527.529 160.103 527.053C160.984 526.378 161.635 525.447 161.966 524.388C162.208 523.605 162.227 523.139 162.32 523.139C162.437 523.573 162.437 524.029 162.32 524.462C162.092 525.695 161.431 526.805 160.457 527.593C159.716 528.187 158.837 528.582 157.901 528.742C156.965 528.902 156.004 528.82 155.109 528.506C153.995 528.118 153.03 527.393 152.347 526.431C151.663 525.469 151.296 524.319 151.296 523.139C151.296 521.96 151.663 520.81 152.347 519.848C153.03 518.886 153.995 518.161 155.109 517.773C156.003 517.456 156.963 517.372 157.898 517.528C158.834 517.685 159.714 518.077 160.457 518.667C161.425 519.461 162.085 520.568 162.32 521.798C162.438 522.237 162.438 522.7 162.32 523.139V523.139Z" fill="#263238"/>
<path d="M165.805 607.383C165.664 606.98 165.546 606.57 165.451 606.154C165.133 605.083 164.48 604.142 163.588 603.47C162.926 602.998 162.159 602.695 161.354 602.588C160.548 602.481 159.728 602.573 158.966 602.855C158.042 603.201 157.246 603.821 156.684 604.632C156.121 605.443 155.82 606.406 155.82 607.393C155.82 608.379 156.121 609.343 156.684 610.154C157.246 610.964 158.042 611.584 158.966 611.93C159.728 612.213 160.548 612.305 161.354 612.197C162.159 612.09 162.926 611.787 163.588 611.315C164.476 610.64 165.128 609.7 165.451 608.632C165.712 607.868 165.731 607.383 165.805 607.383C165.88 607.383 165.973 607.868 165.805 608.725C165.577 609.957 164.916 611.068 163.942 611.856C163.201 612.449 162.322 612.845 161.386 613.004C160.45 613.164 159.489 613.083 158.594 612.769C157.482 612.376 156.52 611.648 155.839 610.685C155.158 609.722 154.792 608.572 154.792 607.393C154.792 606.214 155.158 605.063 155.839 604.101C156.52 603.138 157.482 602.41 158.594 602.017C159.489 601.703 160.45 601.621 161.386 601.781C162.322 601.941 163.201 602.336 163.942 602.93C164.92 603.715 165.582 604.826 165.805 606.06C165.973 606.918 165.861 607.402 165.805 607.383Z" fill="#263238"/>
<path d="M165.003 640.571C165.003 640.571 164.892 640.086 164.649 639.322C164.32 638.257 163.669 637.32 162.786 636.639C162.121 636.167 161.351 635.864 160.542 635.757C159.734 635.649 158.911 635.741 158.146 636.024C157.222 636.37 156.426 636.99 155.863 637.8C155.301 638.611 155 639.575 155 640.561C155 641.548 155.301 642.511 155.863 643.322C156.426 644.133 157.222 644.753 158.146 645.099C158.911 645.381 159.734 645.473 160.542 645.366C161.351 645.259 162.121 644.956 162.786 644.484C163.673 643.806 164.324 642.868 164.649 641.8C164.892 641.036 164.91 640.552 165.003 640.571C165.122 641.004 165.122 641.461 165.003 641.894C164.772 643.125 164.112 644.234 163.14 645.024C162.399 645.618 161.52 646.013 160.584 646.173C159.649 646.333 158.688 646.251 157.792 645.937C156.68 645.544 155.718 644.816 155.037 643.853C154.356 642.891 153.991 641.74 153.991 640.561C153.991 639.382 154.356 638.232 155.037 637.269C155.718 636.306 156.68 635.578 157.792 635.185C158.688 634.871 159.649 634.79 160.584 634.95C161.52 635.109 162.399 635.505 163.14 636.098C164.108 636.892 164.768 637.999 165.003 639.229C165.12 639.669 165.12 640.131 165.003 640.571Z" fill="#263238"/>
<path d="M117.897 340.676C118.844 337.282 120.456 334.11 122.641 331.346C124.827 328.582 127.54 326.28 130.624 324.576C137.606 321.066 145.594 320.104 153.209 321.856C160.747 323.614 167.947 326.591 174.526 330.67C178.383 332.657 181.834 335.35 184.7 338.608C189.619 344.794 190.29 353.235 190.775 361.117C191.147 367.509 191.483 374.161 188.781 379.994C187.517 382.65 185.675 384.989 183.388 386.84C181.102 388.691 178.431 390.006 175.569 390.69" fill="#263238"/>
<path d="M187.196 372.671C190.901 368.388 193.709 363.406 195.453 358.02C197.198 352.633 197.843 346.951 197.352 341.31C196.998 337.583 195.954 333.521 193.047 331.08C191.557 329.831 189.712 329.086 188.184 327.875C185.426 325.676 184.066 322.098 181.457 319.732C180.106 318.514 178.467 317.659 176.695 317.248C174.923 316.838 173.075 316.884 171.326 317.383C169.576 317.883 167.982 318.818 166.694 320.103C165.406 321.387 164.465 322.978 163.96 324.725C162.581 329.514 164.649 334.546 166.662 339.111L175.979 360.242C177.018 362.935 178.47 365.449 180.283 367.695C181.197 368.822 182.358 369.722 183.677 370.327C184.996 370.931 186.436 371.223 187.886 371.18" fill="#263238"/>
<path d="M121.102 335.906C115.508 341.966 112.143 349.748 111.561 357.975C110.978 366.201 113.213 374.38 117.897 381.168C121.83 363.845 127.267 346.898 134.146 330.521" fill="#263238"/>
<path d="M114.376 359.496C115.196 346.937 123.562 331.546 136.084 332.887L165.041 340.341C169.489 341.486 173.454 344.024 176.354 347.585C179.255 351.146 180.939 355.543 181.16 360.13C181.16 360.614 181.16 360.018 181.16 360.391L179.296 431.293L152.352 461.703L133.867 433.268C133.867 427.156 133.867 422.274 133.867 422.311C133.867 422.349 117.804 419.535 114.544 398.59C112.922 388.174 113.481 373.453 114.376 359.496Z" fill="#9D6054"/>
<path d="M143.165 352.937C141.21 353.642 139.164 354.063 137.09 354.186C135.032 354.478 132.943 354.478 130.885 354.186C130.885 354.037 133.661 354.037 137.034 353.683C140.407 353.329 143.127 352.788 143.165 352.937Z" fill="#724A44"/>
<path d="M138.488 352.192C136.029 353.028 133.392 353.195 130.848 352.676C132.083 352.511 133.328 352.436 134.574 352.453C135.87 352.264 137.178 352.177 138.488 352.192Z" fill="#724A44"/>
<path d="M147.208 393.671C147.059 393.671 146.873 392.832 146.035 392.292C145.196 391.752 144.358 391.882 144.32 391.752C144.283 391.621 144.488 391.547 144.879 391.491C145.387 391.437 145.897 391.569 146.314 391.863C146.744 392.147 147.065 392.567 147.227 393.056C147.32 393.41 147.264 393.671 147.208 393.671Z" fill="#724A44"/>
<path d="M122.127 375.764C122.116 376.463 122.379 377.138 122.86 377.647C123.34 378.155 124 378.455 124.698 378.484C125.041 378.512 125.385 378.471 125.711 378.364C126.037 378.256 126.339 378.085 126.598 377.859C126.856 377.633 127.067 377.358 127.218 377.049C127.369 376.741 127.456 376.405 127.475 376.062C127.485 375.365 127.221 374.691 126.741 374.186C126.26 373.681 125.6 373.384 124.903 373.36C124.562 373.33 124.218 373.368 123.892 373.473C123.566 373.579 123.264 373.748 123.005 373.973C122.746 374.197 122.535 374.471 122.384 374.779C122.233 375.087 122.145 375.422 122.127 375.764Z" fill="#263238"/>
<path d="M118.065 368.385C118.4 368.739 120.431 367.229 123.319 367.248C126.208 367.267 128.332 368.701 128.649 368.366C128.965 368.031 128.462 367.565 127.549 366.894C126.296 366.027 124.806 365.565 123.282 365.571C121.778 365.565 120.311 366.035 119.09 366.913C118.214 367.583 117.897 368.217 118.065 368.385Z" fill="#263238"/>
<path d="M149.072 375.764C149.061 376.463 149.324 377.138 149.805 377.647C150.285 378.155 150.944 378.455 151.643 378.484C151.985 378.51 152.328 378.467 152.653 378.359C152.979 378.25 153.279 378.078 153.537 377.853C153.795 377.628 154.006 377.353 154.158 377.046C154.309 376.739 154.398 376.404 154.42 376.062C154.43 375.365 154.166 374.691 153.685 374.186C153.205 373.681 152.545 373.384 151.848 373.36C151.506 373.327 151.161 373.363 150.834 373.468C150.507 373.572 150.204 373.742 149.944 373.966C149.685 374.191 149.473 374.467 149.323 374.776C149.173 375.085 149.088 375.421 149.072 375.764V375.764Z" fill="#263238"/>
<path d="M146.463 368.981C146.799 369.335 148.849 367.844 151.737 367.844C154.625 367.844 156.731 369.316 157.047 368.962C157.364 368.608 156.88 368.18 155.948 367.49C154.694 366.623 153.205 366.162 151.681 366.167C150.184 366.169 148.725 366.638 147.507 367.509C146.612 368.198 146.314 368.832 146.463 368.981Z" fill="#263238"/>
<path d="M135.935 390.391C134.413 389.903 132.835 389.615 131.239 389.534C130.512 389.534 129.804 389.311 129.692 388.807C129.627 388.048 129.796 387.287 130.177 386.627C130.885 384.764 131.612 382.901 132.376 381.037C135.432 373.043 137.63 366.484 137.314 366.354C136.997 366.223 134.258 372.615 131.202 380.609C130.475 382.584 129.767 384.466 129.115 386.199C128.64 387.089 128.501 388.121 128.723 389.106C128.831 389.365 128.995 389.598 129.205 389.785C129.415 389.972 129.664 390.109 129.935 390.186C130.343 390.291 130.762 390.347 131.183 390.354C132.759 390.572 134.356 390.585 135.935 390.391V390.391Z" fill="#263238"/>
<path d="M161.631 414.783C161.631 414.783 154.83 429.169 133.867 427.156V422.237C143.634 422.376 153.247 419.796 161.631 414.783V414.783Z" fill="#724A44"/>
<path d="M137.146 397.398C137.703 396.715 138.424 396.186 139.243 395.86C140.061 395.534 140.949 395.422 141.823 395.534C142.468 395.604 143.092 395.805 143.656 396.125C144.221 396.446 144.713 396.879 145.102 397.398C145.486 397.878 145.712 398.466 145.748 399.08C145.785 399.693 145.631 400.304 145.307 400.826C144.851 401.337 144.253 401.7 143.589 401.87C142.925 402.039 142.226 402.007 141.581 401.777C140.207 401.294 138.941 400.547 137.854 399.578C137.53 399.345 137.252 399.055 137.034 398.721C136.929 398.56 136.873 398.372 136.873 398.18C136.873 397.988 136.929 397.801 137.034 397.64" fill="#724A44"/>
<path d="M144.432 392.404C143.966 392.404 143.948 395.516 141.264 397.733C138.581 399.951 135.246 399.597 135.208 400.044C135.171 400.491 135.954 400.659 137.37 400.696C139.207 400.728 140.996 400.107 142.42 398.944C143.786 397.835 144.668 396.238 144.879 394.491C145.01 393.168 144.656 392.385 144.432 392.404Z" fill="#263238"/>
<path d="M145.755 360.521C146.034 361.304 148.923 360.95 152.314 361.36C155.705 361.77 158.445 362.701 158.892 361.993C159.097 361.658 158.631 360.931 157.513 360.13C156.043 359.187 154.377 358.594 152.642 358.397C150.907 358.2 149.15 358.404 147.506 358.993C146.277 359.534 145.755 360.13 145.755 360.521Z" fill="#263238"/>
<path d="M119.146 360.018C119.649 360.67 121.642 360.018 124.046 360.018C126.45 360.018 128.462 360.465 128.928 359.776C129.133 359.44 128.817 358.788 127.941 358.173C126.755 357.418 125.371 357.035 123.965 357.075C122.56 357.115 121.199 357.575 120.059 358.397C119.201 359.031 118.922 359.701 119.146 360.018Z" fill="#263238"/>
<path d="M120.077 340.359C120.815 338.823 121.965 337.523 123.401 336.605C124.836 335.687 126.498 335.186 128.202 335.16C131.63 335.14 134.99 336.118 137.873 337.974C150.339 345.185 157.345 359.496 169.662 366.95C172.843 368.521 175.848 370.426 178.625 372.633C181.197 375.056 182.874 378.95 181.439 382.192C183.204 379.998 184.647 377.564 185.725 374.962C186.251 373.656 186.492 372.251 186.431 370.843C186.37 369.436 186.008 368.057 185.371 366.801C184.308 364.937 182.426 363.54 181.905 361.472C181.383 359.403 182.166 357.745 182.091 355.881C181.903 353.982 181.264 352.155 180.228 350.552C175.596 341.839 168.677 334.553 160.215 329.477C154.632 326.262 148.283 324.62 141.842 324.725C135.367 324.879 129.16 327.345 124.344 331.676C121.605 334.247 118.754 336.893 120.133 340.378" fill="#263238"/>
<path d="M181.29 382.248C181.29 382.248 181.532 381.969 181.942 381.391C182.538 380.566 182.991 379.646 183.283 378.671C184.252 374.994 183.841 371.09 182.128 367.695C181.196 365.515 179.855 363.26 178.401 360.782C176.968 358.13 175.686 355.399 174.563 352.602C173.35 349.526 171.879 346.559 170.165 343.732C168.278 340.733 165.94 338.043 163.233 335.757C158.022 331.272 151.656 328.341 144.86 327.297C139.329 326.322 133.631 327.091 128.556 329.496C125.169 331.196 122.419 333.939 120.711 337.322C120.271 338.243 119.922 339.204 119.667 340.192C119.611 340.548 119.517 340.898 119.388 341.235C119.379 341.148 119.379 341.061 119.388 340.974C119.417 340.705 119.46 340.438 119.518 340.173C119.741 339.163 120.079 338.181 120.524 337.247C122.199 333.775 124.96 330.943 128.388 329.179C133.519 326.675 139.31 325.853 144.935 326.831C151.825 327.866 158.284 330.824 163.569 335.365C166.317 337.687 168.687 340.421 170.594 343.471C172.32 346.324 173.791 349.323 174.991 352.434C176.083 355.215 177.327 357.934 178.718 360.577C180.06 363.055 181.383 365.329 182.314 367.565C184.036 371.035 184.395 375.024 183.321 378.745C183.002 379.737 182.509 380.664 181.867 381.484C181.692 381.752 181.499 382.007 181.29 382.248V382.248Z" fill="#455A64"/>
<path d="M190.942 371.31C190.918 371.112 190.918 370.912 190.942 370.714C190.942 370.267 190.942 369.708 190.942 369C190.942 367.528 191.054 365.385 190.942 362.739C190.874 359.646 190.531 356.566 189.918 353.533C189.244 349.81 187.713 346.295 185.445 343.266C183.041 340.341 180.35 337.663 177.414 335.272C174.75 332.98 172.29 331.024 170.147 329.477C168.004 327.93 166.178 326.775 164.911 326.03L163.42 325.173C163.24 325.087 163.071 324.981 162.917 324.856C163.114 324.9 163.303 324.975 163.476 325.079C163.83 325.247 164.352 325.508 165.004 325.862C166.852 326.858 168.638 327.966 170.352 329.179C172.532 330.688 175.048 332.626 177.712 334.9C180.694 337.298 183.423 339.995 185.855 342.949C188.164 346.037 189.715 349.624 190.383 353.422C190.982 356.491 191.288 359.611 191.296 362.739C191.296 365.403 191.296 367.546 191.091 369.037C191.091 369.782 190.98 370.341 190.942 370.733C190.963 370.925 190.963 371.118 190.942 371.31V371.31Z" fill="#455A64"/>
<path d="M181.755 320.682C182.056 321.44 182.251 322.237 182.333 323.048C182.633 325.002 182.727 326.982 182.612 328.955C182.494 330.923 182.163 332.873 181.625 334.769C181.45 335.57 181.161 336.342 180.768 337.061C181.388 334.379 181.83 331.659 182.091 328.918C182.168 326.168 182.056 323.416 181.755 320.682Z" fill="#455A64"/>
<path d="M196.476 336.185C196.378 336.816 196.135 337.415 195.768 337.937C195.002 339.261 193.967 340.409 192.731 341.31C191.494 342.207 190.086 342.841 188.594 343.173C187.992 343.361 187.356 343.418 186.73 343.341C187.338 343.122 187.961 342.947 188.594 342.819C191.429 341.958 193.887 340.157 195.563 337.713C195.841 337.189 196.145 336.679 196.476 336.185V336.185Z" fill="#455A64"/>
<path d="M197.519 350.273C196.209 350.858 194.776 351.114 193.345 351.018C191.912 351.036 190.496 350.696 189.227 350.03C189.227 349.863 191.09 350.422 193.364 350.515C195.637 350.608 197.482 350.105 197.519 350.273Z" fill="#455A64"/>
<path d="M188.408 386.87C187.923 386.609 188.166 385.23 188.222 382.975C188.301 381.717 188.156 380.455 187.793 379.248C187.685 378.959 187.554 378.678 187.402 378.41C187.332 378.279 187.251 378.154 187.159 378.037L186.824 377.553C186.298 376.839 185.718 376.167 185.091 375.54C184.572 374.984 183.935 374.551 183.228 374.273C183.004 374.273 182.948 374.273 183.041 374.273L182.315 374.422L181.532 374.609C180.498 374.865 179.498 375.24 178.551 375.727C178.047 375.987 177.563 376.267 177.041 376.584L176.668 376.845L176.016 377.217C175.588 377.455 175.147 377.666 174.693 377.851C172.829 378.614 170.817 378.952 168.805 378.838C167.581 378.769 166.38 378.472 165.265 377.963L164.817 377.72L164.463 377.515C164.218 377.382 163.981 377.232 163.755 377.068C163.297 376.75 162.861 376.402 162.451 376.025C160.967 374.621 159.749 372.961 158.854 371.124C158.016 369.466 157.382 367.844 156.767 366.372C154.561 361.005 151.524 356.018 147.767 351.596C144.668 347.949 141.146 344.684 137.276 341.869C134.766 339.903 131.986 338.309 129.022 337.136C126.935 336.353 125.574 336.148 125.481 335.589C125.388 335.03 126.73 334.229 129.469 334.154C133.208 334.297 136.858 335.339 140.109 337.192C144.917 339.666 149.286 342.914 153.041 346.807C157.689 351.604 161.376 357.246 163.904 363.428C164.556 365.012 165.115 366.447 165.768 367.658C166.238 368.693 166.867 369.649 167.631 370.49C167.789 370.65 167.957 370.799 168.134 370.938C168.214 371.004 168.301 371.061 168.395 371.105H168.525C168.792 371.247 169.083 371.336 169.383 371.366C170.313 371.457 171.251 371.355 172.14 371.068L172.755 370.826L173.035 370.695L173.557 370.416C174.27 370.033 175.004 369.691 175.755 369.391C177.218 368.808 178.744 368.402 180.302 368.18L181.383 368.049H181.905H182.501C183.66 367.994 184.811 368.272 185.818 368.851C187.149 369.624 188.294 370.68 189.172 371.944C189.888 372.908 190.512 373.937 191.035 375.019C191.147 375.279 191.259 375.484 191.371 375.801C191.504 376.095 191.61 376.401 191.687 376.714C191.86 377.271 191.966 377.847 192.004 378.429C192.116 380.176 191.816 381.924 191.128 383.534C190.066 386.217 188.855 387.093 188.408 386.87Z" fill="#263238"/>
<path d="M178.327 375.223C178.532 374.627 189.507 370.677 189.507 382.286C189.657 393.578 178.327 391.36 178.327 391.025C178.327 390.69 178.327 375.223 178.327 375.223Z" fill="#9D6054"/>
<path d="M181.793 386.721C181.793 386.721 181.979 386.851 182.314 387C182.787 387.19 183.314 387.19 183.786 387C184.512 386.534 185.101 385.882 185.491 385.112C185.881 384.342 186.058 383.482 186.004 382.621C186.013 381.653 185.816 380.694 185.426 379.807C185.314 379.458 185.12 379.141 184.861 378.882C184.602 378.623 184.284 378.429 183.935 378.317C183.708 378.257 183.466 378.28 183.255 378.383C183.043 378.485 182.875 378.66 182.78 378.876C182.631 379.192 182.78 379.416 182.631 379.435C182.482 379.453 182.389 379.248 182.482 378.782C182.534 378.502 182.686 378.251 182.911 378.074C183.064 377.953 183.241 377.864 183.43 377.813C183.619 377.762 183.816 377.749 184.01 377.776C184.472 377.862 184.905 378.064 185.267 378.365C185.629 378.665 185.908 379.052 186.078 379.491C186.561 380.469 186.804 381.549 186.786 382.64C186.85 383.645 186.616 384.646 186.112 385.518C185.608 386.391 184.857 387.094 183.954 387.54C183.643 387.64 183.313 387.667 182.99 387.619C182.667 387.57 182.359 387.448 182.091 387.261C181.811 387 181.755 386.739 181.793 386.721Z" fill="#724A44"/>
<path d="M187.01 375.037C186.874 374.771 186.719 374.516 186.544 374.273C186.027 373.589 185.321 373.071 184.513 372.782C183.234 372.334 181.863 372.213 180.525 372.428C178.754 372.798 177.046 373.425 175.457 374.292C173.49 375.36 171.286 375.917 169.047 375.913C166.453 375.613 164.07 374.341 162.376 372.354C160.555 370.165 159.199 367.629 158.388 364.9C157.438 362.142 156.525 359.31 155.463 356.422C153.501 350.993 150.48 346.008 146.574 341.757C143.343 338.331 139.209 335.89 134.649 334.713C132.902 334.259 131.105 334.027 129.301 334.024C127.94 334.044 126.585 334.206 125.257 334.508C123.077 335.049 121.978 335.664 121.94 335.589L122.145 335.477L122.76 335.198C123.542 334.824 124.36 334.531 125.201 334.322C126.54 333.965 127.916 333.771 129.301 333.744C131.127 333.711 132.951 333.918 134.723 334.359C139.383 335.498 143.619 337.949 146.929 341.422C150.907 345.734 153.974 350.804 155.947 356.329C157.084 359.18 157.941 362.087 158.854 364.826C159.656 367.474 160.973 369.937 162.73 372.074C164.34 373.981 166.608 375.211 169.084 375.522C171.259 375.535 173.404 375.01 175.327 373.994C176.95 373.151 178.69 372.555 180.488 372.223C181.87 372.015 183.283 372.169 184.588 372.671C185.419 372.983 186.13 373.551 186.619 374.292C186.752 374.474 186.859 374.675 186.936 374.888C187.01 375.037 187.029 375.037 187.01 375.037Z" fill="#455A64"/>
<path d="M182.799 369.447C182.564 369.344 182.34 369.219 182.128 369.074C181.7 368.795 181.029 368.422 180.265 367.863C178.046 366.222 176.01 364.348 174.19 362.273C171.531 359.187 169.043 355.959 166.736 352.602C163.959 348.486 160.842 344.609 157.42 341.012C155.594 339.212 153.575 337.618 151.401 336.26C149.368 335.017 147.19 334.028 144.916 333.316C141.064 332.074 137.011 331.574 132.972 331.844C130.244 332.016 127.551 332.542 124.959 333.409C124.046 333.688 123.357 334.005 122.872 334.192C122.638 334.3 122.395 334.388 122.146 334.452C122.357 334.302 122.589 334.183 122.835 334.098C123.505 333.762 124.195 333.469 124.903 333.223C127.483 332.263 130.188 331.679 132.935 331.49C137.029 331.158 141.149 331.627 145.065 332.869C147.382 333.57 149.599 334.566 151.662 335.831C153.87 337.203 155.92 338.815 157.774 340.639C161.21 344.257 164.327 348.167 167.091 352.322C169.363 355.682 171.807 358.923 174.414 362.031C176.205 364.086 178.196 365.959 180.358 367.621C181.122 368.217 181.774 368.608 182.221 368.907C182.431 369.068 182.624 369.249 182.799 369.447V369.447Z" fill="#455A64"/>
<path d="M183.022 388.714C183.577 388.609 184.15 388.72 184.626 389.023C185.102 389.326 185.445 389.8 185.584 390.347C185.723 390.893 185.648 391.473 185.375 391.967C185.102 392.46 184.651 392.831 184.113 393.004C183.576 393.177 182.993 393.138 182.483 392.896C181.974 392.654 181.575 392.227 181.37 391.701C181.164 391.175 181.167 390.591 181.377 390.068C181.587 389.544 181.989 389.12 182.5 388.882" fill="white"/>
<path d="M182.538 388.882C182.064 389.277 181.714 389.801 181.532 390.391C181.446 390.698 181.44 391.022 181.515 391.332C181.59 391.642 181.744 391.928 181.96 392.162C182.222 392.446 182.557 392.654 182.928 392.762C183.299 392.87 183.692 392.875 184.066 392.777C184.428 392.64 184.747 392.41 184.99 392.108C185.233 391.806 185.39 391.445 185.445 391.062C185.479 390.746 185.436 390.427 185.319 390.131C185.202 389.836 185.015 389.573 184.774 389.367C184.285 388.974 183.686 388.746 183.06 388.714C183.224 388.62 183.411 388.575 183.6 388.584C184.108 388.597 184.598 388.774 184.998 389.087C185.311 389.319 185.56 389.627 185.72 389.983C185.88 390.339 185.946 390.73 185.911 391.118C185.879 391.605 185.701 392.071 185.4 392.455C185.099 392.838 184.689 393.123 184.224 393.27C183.758 393.417 183.26 393.42 182.793 393.278C182.326 393.137 181.912 392.858 181.606 392.478C181.354 392.182 181.183 391.826 181.108 391.444C181.033 391.063 181.057 390.668 181.178 390.298C181.326 389.813 181.627 389.388 182.035 389.087C182.333 388.882 182.538 388.863 182.538 388.882Z" fill="#263238"/>
<path d="M789.967 832.612C791.626 826.873 795.166 821.338 800.644 818.99C806.123 816.643 812.924 817.928 818.757 820.034C824.589 822.14 830.31 824.99 836.496 825.382C842.683 825.773 849.67 822.829 851.534 816.903C853.267 811.313 849.913 805.406 845.72 801.363C841.285 797.091 835.846 794.006 829.904 792.39C823.963 790.774 817.71 790.68 811.723 792.117C805.736 793.554 800.207 796.476 795.646 800.612C791.085 804.748 787.639 809.967 785.625 815.785" fill="#263238"/>
<path d="M740.923 857.469C731.848 848.842 732.296 833.823 736.824 822.158C741.352 810.493 751.246 801.493 762.296 795.586C773.077 789.925 784.999 786.779 797.17 786.385C809.34 785.992 821.441 788.36 832.565 793.313C827.117 793.545 821.811 795.111 817.109 797.872C812.408 800.634 808.457 804.507 805.601 809.152C800.626 817.425 799.508 827.45 795.409 836.171C790.774 846.016 782.542 853.71 772.408 857.672C762.273 861.634 751.006 861.561 740.923 857.469" fill="#455A64"/>
<path d="M736.562 805.648C726.5 793.779 725.158 774.716 726.649 759.231C728.14 743.747 731.717 728.169 729.276 712.796C727.823 703.702 724.301 695 723.108 685.87C721.916 676.739 723.593 666.397 730.674 660.49C738.817 653.707 751.637 655.31 760.097 661.683C768.557 668.056 773.476 678.043 777.054 688.013C784.936 709.907 787.824 734.206 781.358 756.548C774.892 778.89 759.705 798.884 737.438 805.648" fill="#455A64"/>
<path d="M731.735 903.029C731.686 902.571 731.686 902.109 731.735 901.65C731.735 900.756 731.735 899.433 731.735 897.737C731.866 894.327 732.183 889.408 732.928 883.352C733.821 876.267 735.109 869.237 736.785 862.295C738.86 853.764 742.095 845.556 746.4 837.904C750.705 830.253 755.986 823.194 762.109 816.903C767.092 811.765 772.614 807.179 778.581 803.226C781.097 801.493 783.538 800.17 785.625 798.959C787.712 797.748 789.65 796.909 791.215 796.164L794.849 794.654C795.243 794.488 795.656 794.369 796.078 794.3C795.688 794.535 795.283 794.747 794.867 794.934L791.327 796.611C789.817 797.394 787.973 798.362 785.867 799.518C783.761 800.673 781.414 802.127 778.954 803.878C765.882 812.825 755.044 824.658 747.276 838.463C737.959 854.637 735.5 871.612 733.655 883.538C732.816 889.557 732.388 894.458 732.145 897.849C732.052 899.47 731.978 900.775 731.903 901.762C731.875 902.188 731.819 902.611 731.735 903.029V903.029Z" fill="#263238"/>
<path d="M644.995 758.896C626.361 770.076 626.454 780.325 629.566 789.977C632.678 799.63 644.082 806.319 653.548 802.704C658.896 800.673 662.772 796.015 666.089 791.338C669.405 786.66 672.517 781.667 677.157 778.294C681.797 774.921 688.524 773.654 693.182 776.971" fill="#263238"/>
<path d="M631.075 771.12C635.939 764.393 647.957 762.455 655.541 765.809C663.126 769.163 668.678 775.815 673.654 782.449C678.629 789.083 683.474 796.108 690.424 800.729C697.375 805.35 706.953 807.009 713.81 802.369C716.003 800.735 717.839 798.671 719.208 796.304C720.576 793.936 721.446 791.314 721.766 788.598C722.37 783.172 721.997 777.682 720.667 772.387C719.027 764.579 716.344 756.436 710.102 751.479C703.151 745.889 693.48 745.684 684.61 745.983C674.418 746.318 664.113 747.082 654.517 750.604C644.92 754.125 635.193 761.784 631.131 771.101" fill="#455A64"/>
<path d="M716.27 888.122C716.182 887.593 716.138 887.057 716.14 886.52C716.14 885.383 716.046 883.836 715.972 881.898C715.841 877.799 715.674 872.022 715.45 864.923C715.227 857.823 714.928 849.215 714.407 839.749C713.885 830.283 713.177 819.885 711.742 809.058C711.13 803.791 710.096 798.582 708.649 793.481C707.181 788.773 705.279 784.213 702.965 779.859C699.142 772.42 694.082 765.684 688.002 759.939C683.853 756.116 679.17 752.915 674.101 750.436C672.726 749.739 671.314 749.117 669.872 748.573C669.357 748.398 668.858 748.18 668.381 747.921C668.906 748.042 669.423 748.197 669.927 748.386C671.406 748.843 672.851 749.403 674.251 750.063C679.436 752.418 684.226 755.561 688.45 759.38C694.666 765.118 699.843 771.889 703.748 779.393C706.111 783.792 708.058 788.402 709.562 793.164C711.039 798.31 712.086 803.571 712.692 808.891C714.146 819.773 714.817 830.189 715.301 839.674C715.786 849.159 715.991 857.693 716.14 864.867C716.289 872.041 716.326 877.911 716.345 881.861V886.482C716.366 887.03 716.341 887.579 716.27 888.122V888.122Z" fill="#263238"/>
<path d="M722.96 896.526C722.06 893.927 721.368 891.26 720.892 888.551C719.596 881.139 719.302 873.587 720.016 866.097C721.166 854.977 723.554 844.021 727.134 833.432C730.861 821.469 736.134 808.667 740.569 794.915C744.799 782.033 747.465 768.688 748.507 755.169C749.358 744.103 749.563 732.997 749.122 721.908C748.805 712.441 748.302 704.783 748.004 699.547C747.855 696.957 747.743 694.926 747.65 693.454C747.65 692.801 747.65 692.28 747.65 691.87C747.63 691.69 747.63 691.509 747.65 691.329C747.679 691.508 747.679 691.691 747.65 691.87L747.818 693.435C747.93 694.907 748.116 696.938 748.34 699.528C748.768 704.82 749.365 712.479 749.756 721.889C750.35 732.977 750.263 744.091 749.495 755.169C748.989 761.728 748.118 768.254 746.886 774.716C745.522 781.651 743.736 788.496 741.538 795.213C737.103 809.021 731.886 821.804 728.047 833.73C724.46 844.223 722.029 855.076 720.799 866.097C720.025 873.544 720.213 881.059 721.358 888.458C721.824 891.066 722.233 893.079 722.588 894.439L722.96 895.986C722.983 896.165 722.983 896.347 722.96 896.526V896.526Z" fill="#263238"/>
<path d="M769.078 904.949H681.722L679.729 888.122H769.078V904.949Z" fill="#263238"/>
<path d="M691.114 903.029L702.034 953.471H749.494L759.706 903.029H691.114Z" fill="#263238"/>
<path d="M769.079 904.949C769.079 905.209 749.886 905.377 726.221 905.303C702.556 905.228 683.363 904.967 683.363 904.706C683.363 904.445 702.556 904.278 726.221 904.334C749.886 904.39 769.079 904.669 769.079 904.949Z" fill="#455A64"/>
<path d="M754.096 929.843C751.703 928.09 749.114 926.62 746.382 925.465C743.408 924.307 740.255 923.677 737.065 923.601C733.144 923.614 729.257 924.327 725.587 925.707C721.599 927.048 717.891 928.614 714.257 929.434C711.035 930.127 707.714 930.228 704.456 929.732C702.259 929.405 700.131 928.719 698.157 927.701C697.63 927.418 697.125 927.094 696.648 926.732C696.313 926.489 696.164 926.34 696.182 926.303C698.765 927.754 701.608 928.684 704.549 929.042C707.72 929.438 710.935 929.28 714.052 928.576C717.537 927.701 721.263 926.117 725.232 924.85C729.009 923.433 733.014 922.726 737.046 922.763C740.341 922.872 743.587 923.586 746.624 924.868C748.628 925.734 750.507 926.862 752.214 928.222C752.689 928.588 753.144 928.98 753.575 929.396C753.966 929.657 754.115 929.806 754.096 929.843Z" fill="#455A64"/>
<path d="M753.427 933.198C751.095 931.513 748.597 930.071 745.973 928.893C743.106 927.725 740.049 927.094 736.954 927.03C733.17 927.042 729.418 927.717 725.867 929.024C722.01 930.309 718.413 931.8 714.947 932.75C711.886 933.629 708.698 933.982 705.519 933.794C703.37 933.658 701.272 933.087 699.351 932.117C698.837 931.838 698.344 931.521 697.879 931.167C697.581 930.924 697.413 930.794 697.432 930.757C697.45 930.719 698.177 931.167 699.519 931.782C701.441 932.584 703.493 933.033 705.575 933.104C708.663 933.19 711.746 932.781 714.705 931.893C718.078 930.924 721.656 929.434 725.55 928.167C729.213 926.82 733.089 926.151 736.991 926.191C740.203 926.276 743.368 926.985 746.308 928.278C748.264 929.14 750.095 930.262 751.749 931.614C752.212 931.966 752.648 932.352 753.054 932.769C753.327 933.042 753.451 933.185 753.427 933.198Z" fill="white"/>
<path d="M754.954 926.49C752.485 924.678 749.83 923.135 747.035 921.887C743.995 920.586 740.756 919.81 737.457 919.595C733.414 919.511 729.394 920.22 725.624 921.682C721.787 923.183 717.868 924.465 713.885 925.521C710.536 926.092 707.115 926.092 703.767 925.521C701.524 925.154 699.351 924.451 697.319 923.434C696.773 923.146 696.249 922.815 695.754 922.446C695.419 922.185 695.251 922.036 695.269 922.017C695.288 921.999 696.052 922.446 697.487 923.098C699.549 923.96 701.718 924.543 703.934 924.831C707.202 925.304 710.525 925.241 713.773 924.645C717.7 923.552 721.569 922.258 725.363 920.769C729.251 919.266 733.402 918.563 737.568 918.701C743.264 919.142 748.705 921.241 753.221 924.738C753.704 925.115 754.164 925.519 754.6 925.949C754.823 926.303 754.973 926.471 754.954 926.49Z" fill="white"/>
</svg>
