<svg width="416" height="43" viewBox="0 0 416 43" fill="none" xmlns="http://www.w3.org/2000/svg">
<path d="M28.7298 15.152C28.7298 17.104 28.2818 18.896 27.3858 20.528C26.4898 22.128 25.1138 23.424 23.2578 24.416C21.4018 25.408 19.0978 25.904 16.3458 25.904H11.2578V38H3.04975V4.304H16.3458C19.0338 4.304 21.3058 4.768 23.1618 5.696C25.0178 6.624 26.4098 7.904 27.3378 9.536C28.2658 11.168 28.7298 13.04 28.7298 15.152ZM15.7218 19.376C17.2898 19.376 18.4578 19.008 19.2258 18.272C19.9938 17.536 20.3778 16.496 20.3778 15.152C20.3778 13.808 19.9938 12.768 19.2258 12.032C18.4578 11.296 17.2898 10.928 15.7218 10.928H11.2578V19.376H15.7218ZM55.6589 32.048H43.0829L41.0669 38H32.4749L44.6669 4.304H54.1709L66.3629 38H57.6749L55.6589 32.048ZM53.5469 25.712L49.3709 13.376L45.2429 25.712H53.5469ZM95.9935 4.304V10.88H87.0655V38H78.8575V10.88H69.9295V4.304H95.9935ZM130.977 4.304V38H122.769V24.128H110.001V38H101.793V4.304H110.001V17.504H122.769V4.304H130.977Z" fill="white"/>
<path d="M155.2 14.418V22.338C155.2 23.586 155.494 24.51 156.082 25.11C156.682 25.71 157.498 26.01 158.53 26.01C159.562 26.01 160.366 25.716 160.942 25.128C161.53 24.528 161.824 23.598 161.824 22.338V14.418H163.084V22.32C163.084 23.916 162.658 25.116 161.806 25.92C160.966 26.724 159.868 27.126 158.512 27.126C157.156 27.126 156.052 26.724 155.2 25.92C154.36 25.116 153.94 23.916 153.94 22.32V14.418H155.2ZM178.819 14.58V27H177.559V17.082L173.131 27H172.213L167.785 17.118V27H166.525V14.58H167.857L172.663 25.344L177.469 14.58H178.819ZM187.301 20.7C187.301 19.464 187.571 18.36 188.111 17.388C188.651 16.404 189.389 15.642 190.325 15.102C191.261 14.55 192.305 14.274 193.457 14.274C194.861 14.274 196.061 14.61 197.057 15.282C198.065 15.942 198.797 16.878 199.253 18.09H197.777C197.417 17.238 196.865 16.572 196.121 16.092C195.389 15.612 194.501 15.372 193.457 15.372C192.533 15.372 191.699 15.588 190.955 16.02C190.223 16.452 189.647 17.076 189.227 17.892C188.807 18.696 188.597 19.632 188.597 20.7C188.597 21.768 188.807 22.704 189.227 23.508C189.647 24.312 190.223 24.93 190.955 25.362C191.699 25.794 192.533 26.01 193.457 26.01C194.501 26.01 195.389 25.776 196.121 25.308C196.865 24.828 197.417 24.168 197.777 23.328H199.253C198.797 24.528 198.065 25.458 197.057 26.118C196.049 26.778 194.849 27.108 193.457 27.108C192.305 27.108 191.261 26.838 190.325 26.298C189.389 25.746 188.651 24.984 188.111 24.012C187.571 23.04 187.301 21.936 187.301 20.7ZM209.683 24.012H203.959L202.861 27H201.529L206.119 14.58H207.541L212.113 27H210.781L209.683 24.012ZM209.305 22.968L206.821 16.164L204.337 22.968H209.305ZM227.059 14.58V27H225.799V17.082L221.371 27H220.453L216.025 17.118V27H214.765V14.58H216.097L220.903 25.344L225.709 14.58H227.059ZM231.808 14.418V27H230.548V14.418H231.808ZM244.777 27H243.517L236.551 16.416V27H235.291V14.418H236.551L243.517 24.984V14.418H244.777V27ZM257.603 14.418V27H256.343V21.114H249.521V27H248.261V14.418H249.521V20.07H256.343V14.418H257.603ZM266.76 27.126C265.596 27.126 264.54 26.856 263.592 26.316C262.644 25.764 261.894 25.002 261.342 24.03C260.802 23.046 260.532 21.936 260.532 20.7C260.532 19.464 260.802 18.36 261.342 17.388C261.894 16.404 262.644 15.642 263.592 15.102C264.54 14.55 265.596 14.274 266.76 14.274C267.936 14.274 268.998 14.55 269.946 15.102C270.894 15.642 271.638 16.404 272.178 17.388C272.718 18.36 272.988 19.464 272.988 20.7C272.988 21.936 272.718 23.046 272.178 24.03C271.638 25.002 270.894 25.764 269.946 26.316C268.998 26.856 267.936 27.126 266.76 27.126ZM266.76 26.028C267.696 26.028 268.536 25.812 269.28 25.38C270.024 24.948 270.612 24.33 271.044 23.526C271.476 22.71 271.692 21.768 271.692 20.7C271.692 19.632 271.476 18.696 271.044 17.892C270.612 17.088 270.024 16.47 269.28 16.038C268.536 15.606 267.696 15.39 266.76 15.39C265.824 15.39 264.984 15.606 264.24 16.038C263.496 16.47 262.908 17.088 262.476 17.892C262.044 18.696 261.828 19.632 261.828 20.7C261.828 21.768 262.044 22.71 262.476 23.526C262.908 24.33 263.496 24.948 264.24 25.38C264.984 25.812 265.824 26.028 266.76 26.028ZM289.539 18.036C289.539 19.116 289.185 19.986 288.477 20.646C287.769 21.306 286.707 21.636 285.291 21.636H282.753V27H281.493V14.418H285.291C286.695 14.418 287.751 14.748 288.459 15.408C289.179 16.068 289.539 16.944 289.539 18.036ZM285.291 20.556C287.259 20.556 288.243 19.716 288.243 18.036C288.243 17.196 288.009 16.56 287.541 16.128C287.073 15.696 286.323 15.48 285.291 15.48H282.753V20.556H285.291ZM299.573 24.012H293.849L292.751 27H291.419L296.009 14.58H297.431L302.003 27H300.671L299.573 24.012ZM299.195 22.968L296.711 16.164L294.227 22.968H299.195ZM311.351 27L308.237 21.744H305.915V27H304.655V14.418H308.435C309.839 14.418 310.901 14.754 311.621 15.426C312.353 16.098 312.719 16.98 312.719 18.072C312.719 18.984 312.455 19.764 311.927 20.412C311.411 21.048 310.643 21.462 309.623 21.654L312.863 27H311.351ZM305.915 20.718H308.453C309.437 20.718 310.175 20.478 310.667 19.998C311.171 19.518 311.423 18.876 311.423 18.072C311.423 17.244 311.183 16.608 310.703 16.164C310.223 15.708 309.467 15.48 308.435 15.48H305.915V20.718ZM323.14 24.012H317.416L316.318 27H314.986L319.576 14.58H320.998L325.57 27H324.238L323.14 24.012ZM322.762 22.968L320.278 16.164L317.794 22.968H322.762ZM335.051 15.444V20.142H339.821V21.186H335.051V25.956H340.361V27H333.791V14.4H340.361V15.444H335.051ZM355.768 14.58V27H354.508V17.082L350.08 27H349.162L344.734 17.118V27H343.474V14.58H344.806L349.612 25.344L354.418 14.58H355.768ZM367.302 18.036C367.302 19.116 366.948 19.986 366.24 20.646C365.532 21.306 364.47 21.636 363.054 21.636H360.516V27H359.256V14.418H363.054C364.458 14.418 365.514 14.748 366.222 15.408C366.942 16.068 367.302 16.944 367.302 18.036ZM363.054 20.556C365.022 20.556 366.006 19.716 366.006 18.036C366.006 17.196 365.772 16.56 365.304 16.128C364.836 15.696 364.086 15.48 363.054 15.48H360.516V20.556H363.054ZM377.336 24.012H371.612L370.514 27H369.182L373.772 14.58H375.194L379.766 27H378.434L377.336 24.012ZM376.958 22.968L374.474 16.164L371.99 22.968H376.958ZM389.781 14.418V15.462H386.289V27H385.029V15.462H381.519V14.418H389.781ZM393.66 14.418V27H392.4V14.418H393.66ZM404.433 24.012H398.709L397.611 27H396.279L400.869 14.58H402.291L406.863 27H405.531L404.433 24.012ZM404.055 22.968L401.571 16.164L399.087 22.968H404.055Z" fill="white"/>
</svg>
