<svg width="338" height="43" viewBox="0 0 338 43" fill="none" xmlns="http://www.w3.org/2000/svg">
<path d="M28.7298 15.152C28.7298 17.104 28.2818 18.896 27.3858 20.528C26.4898 22.128 25.1138 23.424 23.2578 24.416C21.4018 25.408 19.0978 25.904 16.3458 25.904H11.2578V38H3.04975V4.304H16.3458C19.0338 4.304 21.3058 4.768 23.1618 5.696C25.0178 6.624 26.4098 7.904 27.3378 9.536C28.2658 11.168 28.7298 13.04 28.7298 15.152ZM15.7218 19.376C17.2898 19.376 18.4578 19.008 19.2258 18.272C19.9938 17.536 20.3778 16.496 20.3778 15.152C20.3778 13.808 19.9938 12.768 19.2258 12.032C18.4578 11.296 17.2898 10.928 15.7218 10.928H11.2578V19.376H15.7218ZM55.6589 32.048H43.0829L41.0669 38H32.4749L44.6669 4.304H54.1709L66.3629 38H57.6749L55.6589 32.048ZM53.5469 25.712L49.3709 13.376L45.2429 25.712H53.5469ZM95.9935 4.304V10.88H87.0655V38H78.8575V10.88H69.9295V4.304H95.9935ZM130.977 4.304V38H122.769V24.128H110.001V38H101.793V4.304H110.001V17.504H122.769V4.304H130.977Z" fill="#9349B0"/>
<path d="M159.123 24.012H153.399L152.301 27H150.969L155.559 14.58H156.981L161.553 27H160.221L159.123 24.012ZM158.745 22.968L156.261 16.164L153.777 22.968H158.745ZM176.47 27L173.356 21.744H171.034V27H169.774V14.418H173.554C174.958 14.418 176.02 14.754 176.74 15.426C177.472 16.098 177.838 16.98 177.838 18.072C177.838 18.984 177.574 19.764 177.046 20.412C176.53 21.048 175.762 21.462 174.742 21.654L177.982 27H176.47ZM171.034 20.718H173.572C174.556 20.718 175.294 20.478 175.786 19.998C176.29 19.518 176.542 18.876 176.542 18.072C176.542 17.244 176.302 16.608 175.822 16.164C175.342 15.708 174.586 15.48 173.554 15.48H171.034V20.718ZM186.621 27.126C185.457 27.126 184.401 26.856 183.453 26.316C182.505 25.764 181.755 25.002 181.203 24.03C180.663 23.046 180.393 21.936 180.393 20.7C180.393 19.464 180.663 18.36 181.203 17.388C181.755 16.404 182.505 15.642 183.453 15.102C184.401 14.55 185.457 14.274 186.621 14.274C187.797 14.274 188.859 14.55 189.807 15.102C190.755 15.642 191.499 16.404 192.039 17.388C192.579 18.36 192.849 19.464 192.849 20.7C192.849 21.936 192.579 23.046 192.039 24.03C191.499 25.002 190.755 25.764 189.807 26.316C188.859 26.856 187.797 27.126 186.621 27.126ZM186.621 26.028C187.557 26.028 188.397 25.812 189.141 25.38C189.885 24.948 190.473 24.33 190.905 23.526C191.337 22.71 191.553 21.768 191.553 20.7C191.553 19.632 191.337 18.696 190.905 17.892C190.473 17.088 189.885 16.47 189.141 16.038C188.397 15.606 187.557 15.39 186.621 15.39C185.685 15.39 184.845 15.606 184.101 16.038C183.357 16.47 182.769 17.088 182.337 17.892C181.905 18.696 181.689 19.632 181.689 20.7C181.689 21.768 181.905 22.71 182.337 23.526C182.769 24.33 183.357 24.948 184.101 25.38C184.845 25.812 185.685 26.028 186.621 26.028ZM203.074 24.012H197.35L196.252 27H194.92L199.51 14.58H200.932L205.504 27H204.172L203.074 24.012ZM202.696 22.968L200.212 16.164L197.728 22.968H202.696ZM211.882 14.418C213.274 14.418 214.468 14.67 215.464 15.174C216.46 15.678 217.222 16.404 217.75 17.352C218.278 18.3 218.542 19.428 218.542 20.736C218.542 22.032 218.278 23.154 217.75 24.102C217.222 25.038 216.46 25.758 215.464 26.262C214.468 26.754 213.274 27 211.882 27H208.156V14.418H211.882ZM211.882 25.956C213.634 25.956 214.966 25.5 215.878 24.588C216.802 23.664 217.264 22.38 217.264 20.736C217.264 19.08 216.802 17.79 215.878 16.866C214.966 15.93 213.634 15.462 211.882 15.462H209.416V25.956H211.882ZM234.427 14.418V15.462H230.935V27H229.675V15.462H226.165V14.418H234.427ZM242.698 27.126C241.534 27.126 240.478 26.856 239.53 26.316C238.582 25.764 237.832 25.002 237.28 24.03C236.74 23.046 236.47 21.936 236.47 20.7C236.47 19.464 236.74 18.36 237.28 17.388C237.832 16.404 238.582 15.642 239.53 15.102C240.478 14.55 241.534 14.274 242.698 14.274C243.874 14.274 244.936 14.55 245.884 15.102C246.832 15.642 247.576 16.404 248.116 17.388C248.656 18.36 248.926 19.464 248.926 20.7C248.926 21.936 248.656 23.046 248.116 24.03C247.576 25.002 246.832 25.764 245.884 26.316C244.936 26.856 243.874 27.126 242.698 27.126ZM242.698 26.028C243.634 26.028 244.474 25.812 245.218 25.38C245.962 24.948 246.55 24.33 246.982 23.526C247.414 22.71 247.63 21.768 247.63 20.7C247.63 19.632 247.414 18.696 246.982 17.892C246.55 17.088 245.962 16.47 245.218 16.038C244.474 15.606 243.634 15.39 242.698 15.39C241.762 15.39 240.922 15.606 240.178 16.038C239.434 16.47 238.846 17.088 238.414 17.892C237.982 18.696 237.766 19.632 237.766 20.7C237.766 21.768 237.982 22.71 238.414 23.526C238.846 24.33 239.434 24.948 240.178 25.38C240.922 25.812 241.762 26.028 242.698 26.028ZM258.691 15.444V20.142H263.461V21.186H258.691V25.956H264.001V27H257.431V14.4H264.001V15.444H258.691ZM279.408 14.58V27H278.148V17.082L273.72 27H272.802L268.374 17.118V27H267.114V14.58H268.446L273.252 25.344L278.058 14.58H279.408ZM290.943 18.036C290.943 19.116 290.589 19.986 289.881 20.646C289.173 21.306 288.111 21.636 286.695 21.636H284.157V27H282.897V14.418H286.695C288.099 14.418 289.155 14.748 289.863 15.408C290.583 16.068 290.943 16.944 290.943 18.036ZM286.695 20.556C288.663 20.556 289.647 19.716 289.647 18.036C289.647 17.196 289.413 16.56 288.945 16.128C288.477 15.696 287.727 15.48 286.695 15.48H284.157V20.556H286.695ZM300.977 24.012H295.253L294.155 27H292.823L297.413 14.58H298.835L303.407 27H302.075L300.977 24.012ZM300.599 22.968L298.115 16.164L295.631 22.968H300.599ZM313.421 14.418V15.462H309.929V27H308.669V15.462H305.159V14.418H313.421ZM325.382 14.418V27H324.122V21.114H317.3V27H316.04V14.418H317.3V20.07H324.122V14.418H325.382ZM337.203 14.418L333.171 22.104V27H331.911V22.104L327.843 14.418H329.265L332.541 20.952L335.799 14.418H337.203Z" fill="#9349B0"/>
</svg>
