<svg width="168" height="75" viewBox="0 0 168 75" fill="none" xmlns="http://www.w3.org/2000/svg">
<path d="M92.492 32.864C92.492 34.328 92.156 35.672 91.484 36.896C90.812 38.096 89.78 39.068 88.388 39.812C86.996 40.556 85.268 40.928 83.204 40.928H79.388V50H73.232V24.728H83.204C85.22 24.728 86.924 25.076 88.316 25.772C89.708 26.468 90.752 27.428 91.448 28.652C92.144 29.876 92.492 31.28 92.492 32.864ZM82.736 36.032C83.912 36.032 84.788 35.756 85.364 35.204C85.94 34.652 86.228 33.872 86.228 32.864C86.228 31.856 85.94 31.076 85.364 30.524C84.788 29.972 83.912 29.696 82.736 29.696H79.388V36.032H82.736ZM111.429 45.536H101.997L100.485 50H94.0408L103.185 24.728H110.313L119.457 50H112.941L111.429 45.536ZM109.845 40.784L106.713 31.532L103.617 40.784H109.845ZM140.42 24.728V29.66H133.724V50H127.568V29.66H120.872V24.728H140.42ZM165.397 24.728V50H159.241V39.596H149.665V50H143.509V24.728H149.665V34.628H159.241V24.728H165.397Z" fill="white"/>
<circle cx="30.5" cy="43.1151" r="30" fill="white" stroke="#BD6AF0"/>
<path d="M10.109 47.283C10.109 47.283 8.78518 50.6511 8.58234 52.3806C8.37951 54.1101 9.50046 57.2754 10.52 57.8893C11.5395 58.5031 14.9024 57.174 15.4148 56.3573C15.9272 55.5406 18.2652 50.2401 18.2652 50.2401C15.3302 50.0051 12.5127 48.9835 10.109 47.283V47.283Z" fill="white" stroke="#263238" stroke-linecap="round" stroke-linejoin="round"/>
<path d="M42.3656 49.3434L38.3462 67.1665H40.9671L44.8157 48.9911L42.3656 49.3434Z" fill="#263238" stroke="#263238" stroke-linecap="round" stroke-linejoin="round"/>
<path d="M45.6378 35.2996C45.6378 35.2996 47.5594 34.9526 48.0825 35.2996C48.6056 35.6465 48.6163 37.3973 48.6163 38.0966C48.6163 38.7959 48.0825 40.7175 48.2693 41.5929C48.4561 42.4683 51.4186 46.5998 52.641 49.226C53.8634 51.8522 52.294 56.0371 50.8955 57.7666C49.497 59.496 46.6946 53.2828 45.8192 51.185C44.9438 49.0872 43.5507 36.1536 43.5507 36.1536L45.6378 35.2996Z" fill="white" stroke="#263238" stroke-linecap="round" stroke-linejoin="round"/>
<path d="M49.3741 46.1781C49.3741 46.1781 52.1498 50.9234 52.2512 52.4554C52.3526 53.9873 51.6374 57.2594 50.9274 58.3697C50.2175 59.48 48.3813 58.5245 47.0521 57.8092C45.8214 57.1924 44.8465 56.1627 44.2978 54.9001C43.6839 53.5763 42.0345 50.2562 42.0345 50.2562C42.0345 50.2562 46.5237 49.0338 49.3741 46.1781Z" fill="white" stroke="#263238" stroke-linecap="round" stroke-linejoin="round"/>
<path d="M24.3823 26.2998C23.0984 26.6008 21.8637 27.0825 20.7152 27.7304C18.9804 28.7499 16.2261 30.789 15.308 32.417C14.3898 34.0451 11.6409 41.0857 10.3117 43.7386C8.98262 46.3915 8.58228 47.3043 8.58228 47.3043C8.58228 47.3043 10.1836 49.6529 12.3508 50.571C14.518 51.4891 18.2651 51.692 18.2651 51.692C18.2651 51.692 18.7989 62.0901 19.0818 63.6221C19.3647 65.154 22.8557 66.0668 27.9533 66.291C33.051 66.5152 40.1877 64.6629 41.1058 63.6221C42.0239 62.5812 40.8015 51.692 40.8015 51.692C42.46 51.4475 44.0967 51.0727 45.6963 50.571C47.7354 49.8558 50.3883 46.3862 50.3883 46.3862C50.3883 46.3862 46.7158 37.4132 46.0006 35.8866C45.2853 34.36 45.7977 33.7515 42.942 31.7071C41.119 30.4241 39.1716 29.3279 37.1291 28.435C37.1291 28.435 32.8588 26.3959 29.2771 25.9902C25.6954 25.5846 24.3823 26.2998 24.3823 26.2998Z" fill="white" stroke="#263238" stroke-linecap="round" stroke-linejoin="round"/>
<path d="M39.1682 12.4215C39.1682 12.4215 40.2892 13.0354 40.2892 13.6492C40.2892 14.2631 39.0668 15.5869 39.0668 15.5869C39.1761 16.5339 39.1761 17.4903 39.0668 18.4373C38.864 19.4568 39.8835 20.5724 39.0668 21.293C38.2501 22.0136 35.8054 22.0083 35.8054 22.0083L35.0901 26.4974L25.9144 25.2697L25.6101 22.414C25.6101 22.414 23.16 20.3749 22.3433 18.1437C21.5266 15.9125 21.6334 15.2879 21.8096 13.8734C21.9857 12.4589 23.5444 9.4857 26.6136 8.77577C29.2989 8.13431 32.1014 8.16916 34.7699 8.87719C36.9263 9.45368 39.1682 12.4215 39.1682 12.4215Z" fill="white" stroke="#263238" stroke-linecap="round" stroke-linejoin="round"/>
<path d="M35.0791 19.4718V19.4462V19.4718Z" fill="white" stroke="#263238" stroke-linecap="round" stroke-linejoin="round"/>
<path d="M32.4427 21.7948C33.5585 21.3405 34.4878 20.5222 35.0796 19.4728C35.0422 19.5475 34.8821 19.7557 34.3803 19.7557C33.7665 19.7557 32.336 18.6348 31.9303 17.6206C31.5246 16.6064 32.5441 15.3733 33.254 15.3733C33.964 15.3733 34.9888 16.8039 35.8055 16.2914C36.6222 15.779 36.5208 13.5424 36.5208 13.5424C36.7226 12.5118 37.0303 11.5047 37.4389 10.5372C36.6846 9.78502 35.7732 9.20901 34.77 8.85047C32.1015 8.14244 29.299 8.10759 26.6138 8.74906C23.5552 9.45899 22.0232 12.4162 21.8097 13.8467C21.5962 15.2772 21.5055 15.8858 22.3435 18.117C23.1815 20.3482 25.6103 22.3873 25.6103 22.3873C27.3397 22.51 30.5051 22.6115 32.4427 21.7948Z" fill="#263238" stroke="#263238" stroke-linecap="round" stroke-linejoin="round"/>
<path d="M21.4305 27.3996C21.4305 27.3996 23.2614 24.4424 24.1795 24.0367C25.0976 23.631 31.7273 23.631 33.051 23.8339C34.3748 24.0367 36.7235 25.6701 37.1292 26.5882C37.5348 27.5063 37.8444 28.2162 37.8444 28.2162V28.8301C37.8444 28.8301 33.4621 26.791 29.3039 26.791C26.6681 26.8011 24.0366 27.0045 21.4305 27.3996Z" fill="white" stroke="#263238" stroke-linecap="round" stroke-linejoin="round"/>
<path d="M37.8441 28.83C36.9888 30.66 36.0153 32.4323 34.9297 34.1358C33.7784 36.0126 32.8809 38.0336 32.2607 40.1462L35.4635 40.4772C35.4635 40.4772 37.6893 34.6055 39.0238 32.6893C39.5658 31.8714 40.1614 31.0904 40.8066 30.3513C40.8066 30.3513 39.5362 28.7499 37.8441 28.83Z" fill="#263238" stroke="#263238" stroke-linecap="round" stroke-linejoin="round"/>
<path d="M21.4306 27.3995C21.4306 27.3995 20.8968 31.136 21.1316 33.1377C21.2543 34.84 21.2543 36.549 21.1316 38.2514L18.7937 39.0307C18.7937 39.0307 18.1264 32.5772 18.3506 31.1307C18.5748 29.6841 18.7937 28.6859 18.7937 28.6859C18.7937 28.6859 20.2776 27.3675 21.4306 27.3995Z" fill="#263238" stroke="#263238" stroke-linecap="round" stroke-linejoin="round"/>
<path d="M16.6798 61.6205C16.6798 61.6205 15.1264 62.1543 14.5446 64.8232C13.9628 67.4921 15.5481 70.3906 18.7722 71.725C21.9962 73.0595 27.2327 73.7267 32.1168 73.9509C37.0009 74.1751 41.015 73.7267 42.7925 70.6094C44.57 67.4921 43.9028 64.156 41.789 63.6008C39.6752 63.0457 37.3372 64.2681 29.2184 63.4887C25.0019 63.1455 20.8131 62.5214 16.6798 61.6205V61.6205Z" fill="#BD6AF0" stroke="#263238" stroke-linecap="round" stroke-linejoin="round"/>
<path d="M36.3123 65.4691C34.2572 67.8658 33.7448 73.6894 37.8549 73.6894H38.0631C40.1982 73.2623 41.8476 72.3603 42.8297 70.6361C44.2122 68.2127 44.1108 65.6559 43.0059 64.3802L41.3512 63.2646C40.402 63.2468 39.4602 63.4347 38.5904 63.8152C37.7206 64.1958 36.9435 64.7599 36.3123 65.4691V65.4691Z" fill="#BD6AF0" stroke="#263238" stroke-linecap="round" stroke-linejoin="round"/>
<path d="M38.7945 68.6078C38.7945 68.6078 38.7144 70.3105 40.7321 69.6753C41.2076 69.4852 41.6199 69.1652 41.922 68.7517C42.2241 68.3382 42.4037 67.8481 42.4402 67.3374C42.4569 67.2117 42.4658 67.0851 42.4669 66.9584C42.4936 66.1043 42.1947 65.357 41.5862 65.1809C40.1876 64.7912 36.7821 67.348 36.7821 69.2109C36.7821 71.0739 38.9546 71.693 40.8922 70.4493C42.8299 69.2056 43.3743 67.8925 43.2195 64.7912" stroke="#263238" stroke-linecap="round" stroke-linejoin="round"/>
<path d="M17.1282 36.586C17.1282 36.586 26.0264 37.3653 30.8145 37.4721C35.6025 37.5788 37.9352 37.1411 39.355 38.6998C40.7749 40.2584 42.5577 56.9445 43.3584 59.9497C44.1591 62.9549 42.8246 63.8464 39.4671 65.0687C36.1096 66.2911 30.7878 66.2911 24.6653 65.0687C18.5428 63.8464 15.8738 62.9336 15.2066 60.2647C14.5394 57.5958 14.9877 49.0232 14.9877 44.2511C14.9877 39.4791 14.566 36.6981 17.1282 36.586Z" fill="#BD6AF0" stroke="#263238" stroke-linecap="round" stroke-linejoin="round"/>
<path d="M38.1648 53.9713C39.5687 53.8218 40.949 53.5009 42.2749 53.0159C41.4209 47.1442 40.3373 39.714 39.3978 38.6998C37.9513 37.1411 35.6133 37.5842 30.8573 37.4721C26.1013 37.36 17.171 36.586 17.171 36.586C14.6089 36.6981 15.0359 39.4791 15.0359 44.2618C15.0359 46.2421 14.9558 48.863 14.9185 51.4519C15.5483 51.8309 22.8558 55.7915 38.1648 53.9713Z" fill="#BD6AF0" stroke="#263238" stroke-linecap="round" stroke-linejoin="round"/>
<path d="M16.8775 50.9127C17.0212 52.526 16.9783 54.1506 16.7494 55.7541C16.5277 57.1011 16.4011 58.4621 16.3704 59.8269L18.5322 60.7183C18.5322 60.7183 18.9165 57.2807 19.1727 55.7541C19.3469 54.316 19.4325 52.8684 19.4289 51.4198L16.8775 50.9127Z" fill="#263238" stroke="#263238" stroke-linecap="round" stroke-linejoin="round"/>
<path d="M33.4353 52.4554C33.4353 52.4554 33.3072 54.7506 33.0563 56.4054C32.8054 58.0601 32.4158 61.9781 32.4158 61.9781H34.9619C34.9619 61.9781 35.8533 58.0601 35.8533 56.5335C35.8533 55.0069 35.9814 52.3273 35.9814 52.3273L33.4353 52.4554Z" fill="#263238" stroke="#263238" stroke-linecap="round" stroke-linejoin="round"/>
<path d="M43.385 59.9283C42.6057 56.9231 40.8282 40.237 39.3816 38.6784C39.1585 38.4421 38.9012 38.2406 38.6183 38.0806C37.6895 38.3795 36.323 39.1161 36.9316 40.7922C37.823 43.2369 38.7144 55.2577 38.266 59.0369C37.8176 62.8161 35.3729 64.6043 37.5988 65.4904L37.7216 65.5384C38.3232 65.4171 38.9154 65.253 39.4937 65.0473C42.8299 63.8463 44.1643 62.9549 43.385 59.9283Z" fill="#BD6AF0" stroke="#263238" stroke-linecap="round" stroke-linejoin="round"/>
<path d="M19.7866 7.41994C19.7866 7.41994 21.0197 14.3591 21.0197 15.1652C21.0197 15.9712 21.2225 16.1847 24.4893 16.3875C27.756 16.5904 32.2345 16.7985 34.786 15.4747C37.3375 14.151 41.8213 11.087 42.7394 9.06933C43.6575 7.05163 43.0436 6.72602 40.6042 6.72602H37.5456C37.5456 6.72602 36.8304 3.76885 34.8767 2.85074C32.9231 1.93263 29.8805 0.0964089 26.6191 1.52695C23.3576 2.95749 20.9236 3.6354 19.7866 7.41994Z" fill="#BD6AF0" stroke="#263238" stroke-linecap="round" stroke-linejoin="round"/>
<path d="M36.8248 13.8414C36.6023 14.0529 36.4308 14.312 36.323 14.5994C38.8371 13.0781 41.9865 10.7188 42.7284 9.04803C43.6465 7.00897 43.0327 6.70471 40.5933 6.70471H37.5347C37.5347 6.70471 38.4528 9.66188 38.4528 10.6814C38.4528 11.7009 38.0471 12.619 36.8248 13.8414Z" fill="#263238" stroke="#263238" stroke-linecap="round" stroke-linejoin="round"/>
<path d="M22.8824 15.4321C22.8824 15.4321 22.0283 12.4482 23.5923 12.1653C25.1563 11.8824 26.8644 15.7203 26.8644 15.7203C25.5307 15.8737 24.1801 15.7759 22.8824 15.4321V15.4321Z" fill="#263238" stroke="#263238" stroke-linecap="round" stroke-linejoin="round"/>
</svg>
