<svg width="405" height="43" viewBox="0 0 405 43" fill="none" xmlns="http://www.w3.org/2000/svg">
<path d="M28.7298 15.152C28.7298 17.104 28.2818 18.896 27.3858 20.528C26.4898 22.128 25.1138 23.424 23.2578 24.416C21.4018 25.408 19.0978 25.904 16.3458 25.904H11.2578V38H3.04975V4.304H16.3458C19.0338 4.304 21.3058 4.768 23.1618 5.696C25.0178 6.624 26.4098 7.904 27.3378 9.536C28.2658 11.168 28.7298 13.04 28.7298 15.152ZM15.7218 19.376C17.2898 19.376 18.4578 19.008 19.2258 18.272C19.9938 17.536 20.3778 16.496 20.3778 15.152C20.3778 13.808 19.9938 12.768 19.2258 12.032C18.4578 11.296 17.2898 10.928 15.7218 10.928H11.2578V19.376H15.7218ZM55.6589 32.048H43.0829L41.0669 38H32.4749L44.6669 4.304H54.1709L66.3629 38H57.6749L55.6589 32.048ZM53.5469 25.712L49.3709 13.376L45.2429 25.712H53.5469ZM95.9935 4.304V10.88H87.0655V38H78.8575V10.88H69.9295V4.304H95.9935ZM130.977 4.304V38H122.769V24.128H110.001V38H101.793V4.304H110.001V17.504H122.769V4.304H130.977Z" fill="#9349B0"/>
<path d="M152.646 14.418V22.338C152.646 23.586 152.94 24.51 153.528 25.11C154.128 25.71 154.944 26.01 155.976 26.01C157.008 26.01 157.812 25.716 158.388 25.128C158.976 24.528 159.27 23.598 159.27 22.338V14.418H160.53V22.32C160.53 23.916 160.104 25.116 159.252 25.92C158.412 26.724 157.314 27.126 155.958 27.126C154.602 27.126 153.498 26.724 152.646 25.92C151.806 25.116 151.386 23.916 151.386 22.32V14.418H152.646ZM176.264 14.58V27H175.004V17.082L170.576 27H169.658L165.23 17.118V27H163.97V14.58H165.302L170.108 25.344L174.914 14.58H176.264ZM184.746 20.7C184.746 19.464 185.016 18.36 185.556 17.388C186.096 16.404 186.834 15.642 187.77 15.102C188.706 14.55 189.75 14.274 190.902 14.274C192.306 14.274 193.506 14.61 194.502 15.282C195.51 15.942 196.242 16.878 196.698 18.09H195.222C194.862 17.238 194.31 16.572 193.566 16.092C192.834 15.612 191.946 15.372 190.902 15.372C189.978 15.372 189.144 15.588 188.4 16.02C187.668 16.452 187.092 17.076 186.672 17.892C186.252 18.696 186.042 19.632 186.042 20.7C186.042 21.768 186.252 22.704 186.672 23.508C187.092 24.312 187.668 24.93 188.4 25.362C189.144 25.794 189.978 26.01 190.902 26.01C191.946 26.01 192.834 25.776 193.566 25.308C194.31 24.828 194.862 24.168 195.222 23.328H196.698C196.242 24.528 195.51 25.458 194.502 26.118C193.494 26.778 192.294 27.108 190.902 27.108C189.75 27.108 188.706 26.838 187.77 26.298C186.834 25.746 186.096 24.984 185.556 24.012C185.016 23.04 184.746 21.936 184.746 20.7ZM207.129 24.012H201.405L200.307 27H198.975L203.565 14.58H204.987L209.559 27H208.227L207.129 24.012ZM206.751 22.968L204.267 16.164L201.783 22.968H206.751ZM224.505 14.58V27H223.245V17.082L218.817 27H217.899L213.471 17.118V27H212.211V14.58H213.543L218.349 25.344L223.155 14.58H224.505ZM229.253 14.418V27H227.993V14.418H229.253ZM242.223 27H240.963L233.997 16.416V27H232.737V14.418H233.997L240.963 24.984V14.418H242.223V27ZM255.049 14.418V27H253.789V21.114H246.967V27H245.707V14.418H246.967V20.07H253.789V14.418H255.049ZM264.205 27.126C263.041 27.126 261.985 26.856 261.037 26.316C260.089 25.764 259.339 25.002 258.787 24.03C258.247 23.046 257.977 21.936 257.977 20.7C257.977 19.464 258.247 18.36 258.787 17.388C259.339 16.404 260.089 15.642 261.037 15.102C261.985 14.55 263.041 14.274 264.205 14.274C265.381 14.274 266.443 14.55 267.391 15.102C268.339 15.642 269.083 16.404 269.623 17.388C270.163 18.36 270.433 19.464 270.433 20.7C270.433 21.936 270.163 23.046 269.623 24.03C269.083 25.002 268.339 25.764 267.391 26.316C266.443 26.856 265.381 27.126 264.205 27.126ZM264.205 26.028C265.141 26.028 265.981 25.812 266.725 25.38C267.469 24.948 268.057 24.33 268.489 23.526C268.921 22.71 269.137 21.768 269.137 20.7C269.137 19.632 268.921 18.696 268.489 17.892C268.057 17.088 267.469 16.47 266.725 16.038C265.981 15.606 265.141 15.39 264.205 15.39C263.269 15.39 262.429 15.606 261.685 16.038C260.941 16.47 260.353 17.088 259.921 17.892C259.489 18.696 259.273 19.632 259.273 20.7C259.273 21.768 259.489 22.71 259.921 23.526C260.353 24.33 260.941 24.948 261.685 25.38C262.429 25.812 263.269 26.028 264.205 26.028ZM286.984 18.036C286.984 19.116 286.63 19.986 285.922 20.646C285.214 21.306 284.152 21.636 282.736 21.636H280.198V27H278.938V14.418H282.736C284.14 14.418 285.196 14.748 285.904 15.408C286.624 16.068 286.984 16.944 286.984 18.036ZM282.736 20.556C284.704 20.556 285.688 19.716 285.688 18.036C285.688 17.196 285.454 16.56 284.986 16.128C284.518 15.696 283.768 15.48 282.736 15.48H280.198V20.556H282.736ZM297.019 24.012H291.295L290.197 27H288.865L293.455 14.58H294.877L299.449 27H298.117L297.019 24.012ZM296.641 22.968L294.157 16.164L291.673 22.968H296.641ZM308.797 27L305.683 21.744H303.361V27H302.101V14.418H305.881C307.285 14.418 308.347 14.754 309.067 15.426C309.799 16.098 310.165 16.98 310.165 18.072C310.165 18.984 309.901 19.764 309.373 20.412C308.857 21.048 308.089 21.462 307.069 21.654L310.309 27H308.797ZM303.361 20.718H305.899C306.883 20.718 307.621 20.478 308.113 19.998C308.617 19.518 308.869 18.876 308.869 18.072C308.869 17.244 308.629 16.608 308.149 16.164C307.669 15.708 306.913 15.48 305.881 15.48H303.361V20.718ZM320.585 24.012H314.861L313.763 27H312.431L317.021 14.58H318.443L323.015 27H321.683L320.585 24.012ZM320.207 22.968L317.723 16.164L315.239 22.968H320.207ZM332.497 15.444V20.142H337.267V21.186H332.497V25.956H337.807V27H331.237V14.4H337.807V15.444H332.497ZM353.214 14.58V27H351.954V17.082L347.526 27H346.608L342.18 17.118V27H340.92V14.58H342.252L347.058 25.344L351.864 14.58H353.214ZM364.748 18.036C364.748 19.116 364.394 19.986 363.686 20.646C362.978 21.306 361.916 21.636 360.5 21.636H357.962V27H356.702V14.418H360.5C361.904 14.418 362.96 14.748 363.668 15.408C364.388 16.068 364.748 16.944 364.748 18.036ZM360.5 20.556C362.468 20.556 363.452 19.716 363.452 18.036C363.452 17.196 363.218 16.56 362.75 16.128C362.282 15.696 361.532 15.48 360.5 15.48H357.962V20.556H360.5ZM374.782 24.012H369.058L367.96 27H366.628L371.218 14.58H372.64L377.212 27H375.88L374.782 24.012ZM374.404 22.968L371.92 16.164L369.436 22.968H374.404ZM387.226 14.418V15.462H383.734V27H382.474V15.462H378.964V14.418H387.226ZM391.106 14.418V27H389.846V14.418H391.106ZM401.879 24.012H396.155L395.057 27H393.725L398.315 14.58H399.737L404.309 27H402.977L401.879 24.012ZM401.501 22.968L399.017 16.164L396.533 22.968H401.501Z" fill="#9349B0"/>
</svg>
