<svg width="1200" height="627" viewBox="0 0 1200 627" fill="none" xmlns="http://www.w3.org/2000/svg">
<rect width="1200" height="627" fill="#BC74E9"/>
<g clip-path="url(#clip0_1246_57)">
<g filter="url(#filter0_d_1246_57)">
<path d="M625.117 300.087C625.117 304.322 624.143 308.211 622.195 311.752C620.247 315.224 617.255 318.037 613.22 320.189C609.185 322.342 604.176 323.418 598.193 323.418H587.131V349.667H569.286V276.546H598.193C604.037 276.546 608.976 277.553 613.011 279.567C617.046 281.581 620.073 284.358 622.09 287.9C624.108 291.441 625.117 295.503 625.117 300.087ZM596.836 309.253C600.245 309.253 602.784 308.454 604.454 306.857C606.124 305.26 606.959 303.003 606.959 300.087C606.959 297.17 606.124 294.913 604.454 293.316C602.784 291.719 600.245 290.92 596.836 290.92H587.131V309.253H596.836ZM680.011 336.751H652.67L648.287 349.667H629.606L656.114 276.546H676.776L703.283 349.667H684.394L680.011 336.751ZM675.42 323.002L666.341 296.233L657.366 323.002H675.42ZM764.051 276.546V290.816H744.64V349.667H726.795V290.816H707.385V276.546H764.051ZM836.454 276.546V349.667H818.609V319.564H790.85V349.667H773.005V276.546H790.85V305.19H818.609V276.546H836.454Z" fill="white"/>
</g>
<g filter="url(#filter1_d_1246_57)">
<path d="M445.414 416.546C493.443 416.546 532.378 377.685 532.378 329.746C532.378 281.808 493.443 242.946 445.414 242.946C397.385 242.946 358.449 281.808 358.449 329.746C358.449 377.685 397.385 416.546 445.414 416.546Z" fill="white"/>
</g>
<path d="M386.304 341.805C386.304 341.805 382.467 351.551 381.879 356.555C381.291 361.559 384.54 370.717 387.496 372.493C390.451 374.269 400.199 370.423 401.685 368.06C403.17 365.697 409.947 350.361 409.947 350.361C401.439 349.681 393.272 346.726 386.304 341.805Z" fill="white" stroke="#263238" stroke-linecap="round" stroke-linejoin="round"/>
<path d="M479.81 347.767L468.158 399.335H475.756L486.912 346.748L479.81 347.767Z" fill="#263238" stroke="#263238" stroke-linecap="round" stroke-linejoin="round"/>
<path d="M489.295 307.134C489.295 307.134 494.866 306.13 496.382 307.134C497.898 308.137 497.929 313.203 497.929 315.226C497.929 317.249 496.382 322.809 496.923 325.342C497.465 327.875 506.053 339.829 509.596 347.427C513.14 355.026 508.59 367.134 504.536 372.138C500.482 377.142 492.359 359.165 489.821 353.095C487.283 347.026 483.245 309.604 483.245 309.604L489.295 307.134Z" fill="white" stroke="#263238" stroke-linecap="round" stroke-linejoin="round"/>
<path d="M500.126 338.609C500.126 338.609 508.172 352.338 508.466 356.771C508.76 361.203 506.687 370.671 504.629 373.883C502.571 377.095 497.248 374.331 493.395 372.261C489.828 370.477 487.002 367.497 485.411 363.844C483.631 360.014 478.85 350.408 478.85 350.408C478.85 350.408 491.863 346.871 500.126 338.609Z" fill="white" stroke="#263238" stroke-linecap="round" stroke-linejoin="round"/>
<path d="M427.68 281.094C423.958 281.965 420.379 283.358 417.049 285.233C412.021 288.183 404.036 294.083 401.375 298.793C398.713 303.504 390.745 323.875 386.892 331.55C383.039 339.226 381.878 341.867 381.878 341.867C381.878 341.867 386.52 348.662 392.803 351.319C399.085 353.975 409.947 354.562 409.947 354.562C409.947 354.562 411.494 384.647 412.315 389.08C413.135 393.512 423.254 396.153 438.031 396.802C452.809 397.451 473.497 392.091 476.158 389.08C478.819 386.068 475.276 354.562 475.276 354.562C480.083 353.855 484.828 352.77 489.465 351.319C495.376 349.249 503.066 339.211 503.066 339.211C503.066 339.211 492.42 313.249 490.347 308.832C488.273 304.415 489.759 302.654 481.481 296.739C476.196 293.027 470.551 289.855 464.63 287.272C464.63 287.272 452.251 281.372 441.869 280.198C431.486 279.025 427.68 281.094 427.68 281.094Z" fill="white" stroke="#263238" stroke-linecap="round" stroke-linejoin="round"/>
<path d="M470.541 240.94C470.541 240.94 473.791 242.716 473.791 244.492C473.791 246.268 470.247 250.098 470.247 250.098C470.564 252.838 470.564 255.605 470.247 258.345C469.659 261.295 472.615 264.523 470.247 266.608C467.88 268.693 460.793 268.677 460.793 268.677L458.719 281.666L432.121 278.114L431.239 269.851C431.239 269.851 424.136 263.951 421.769 257.496C419.401 251.04 419.711 249.233 420.222 245.14C420.732 241.048 425.251 232.445 434.148 230.391C441.932 228.535 450.056 228.636 457.791 230.685C464.042 232.353 470.541 240.94 470.541 240.94Z" fill="white" stroke="#263238" stroke-linecap="round" stroke-linejoin="round"/>
<path d="M458.688 261.338V261.264V261.338Z" fill="white" stroke="#263238" stroke-linecap="round" stroke-linejoin="round"/>
<path d="M451.045 268.06C454.28 266.745 456.973 264.378 458.689 261.341C458.581 261.557 458.116 262.16 456.662 262.16C454.883 262.16 450.736 258.917 449.56 255.982C448.384 253.048 451.339 249.48 453.397 249.48C455.455 249.48 458.426 253.619 460.793 252.136C463.161 250.654 462.867 244.183 462.867 244.183C463.452 241.201 464.344 238.287 465.528 235.488C463.342 233.311 460.7 231.645 457.791 230.607C450.056 228.559 441.932 228.458 434.148 230.314C425.282 232.368 420.841 240.924 420.222 245.063C419.603 249.202 419.34 250.963 421.769 257.419C424.199 263.874 431.239 269.774 431.239 269.774C436.252 270.129 445.428 270.423 451.045 268.06Z" fill="#263238" stroke="#263238" stroke-linecap="round" stroke-linejoin="round"/>
<path d="M419.123 284.276C419.123 284.276 424.43 275.72 427.092 274.546C429.753 273.372 448.972 273.372 452.809 273.959C456.646 274.546 463.455 279.272 464.631 281.929C465.806 284.585 466.704 286.639 466.704 286.639V288.415C466.704 288.415 454 282.515 441.947 282.515C434.306 282.545 426.678 283.133 419.123 284.276Z" fill="white" stroke="#263238" stroke-linecap="round" stroke-linejoin="round"/>
<path d="M466.703 288.415C464.223 293.71 461.401 298.837 458.254 303.766C454.917 309.196 452.315 315.044 450.518 321.156L459.802 322.114C459.802 322.114 466.254 305.125 470.123 299.581C471.694 297.215 473.42 294.955 475.291 292.816C475.291 292.816 471.608 288.183 466.703 288.415Z" fill="#263238" stroke="#263238" stroke-linecap="round" stroke-linejoin="round"/>
<path d="M419.123 284.276C419.123 284.276 417.576 295.087 418.256 300.878C418.612 305.804 418.612 310.748 418.256 315.674L411.479 317.929C411.479 317.929 409.545 299.257 410.195 295.071C410.845 290.886 411.479 287.998 411.479 287.998C411.479 287.998 415.781 284.183 419.123 284.276Z" fill="#263238" stroke="#263238" stroke-linecap="round" stroke-linejoin="round"/>
<path d="M405.352 383.289C405.352 383.289 400.849 384.833 399.162 392.555C397.475 400.277 402.071 408.663 411.417 412.524C420.763 416.385 435.942 418.316 450.1 418.965C464.259 419.613 475.895 418.316 481.047 409.297C486.2 400.277 484.266 390.625 478.138 389.018C472.011 387.412 465.233 390.949 441.699 388.694C429.476 387.701 417.333 385.895 405.352 383.289Z" fill="#BD6AF0" stroke="#263238" stroke-linecap="round" stroke-linejoin="round"/>
<path d="M462.263 394.424C456.305 401.358 454.82 418.208 466.734 418.208H467.338C473.527 416.972 478.308 414.362 481.155 409.374C485.163 402.362 484.869 394.964 481.666 391.273L476.869 388.046C474.118 387.994 471.388 388.538 468.866 389.639C466.345 390.74 464.092 392.372 462.263 394.424Z" fill="#BD6AF0" stroke="#263238" stroke-linecap="round" stroke-linejoin="round"/>
<path d="M469.458 403.505C469.458 403.505 469.226 408.432 475.075 406.594C476.453 406.044 477.648 405.118 478.524 403.922C479.4 402.725 479.92 401.307 480.026 399.83C480.074 399.466 480.1 399.1 480.103 398.733C480.181 396.262 479.314 394.1 477.55 393.59C473.496 392.463 463.624 399.86 463.624 405.25C463.624 410.64 469.922 412.432 475.539 408.833C481.156 405.235 482.734 401.436 482.285 392.463" stroke="#263238" stroke-linecap="round" stroke-linejoin="round"/>
<path d="M406.651 310.855C406.651 310.855 432.446 313.11 446.325 313.419C460.205 313.728 466.967 312.462 471.083 316.971C475.199 321.481 480.367 369.759 482.688 378.454C485.009 387.15 481.14 389.729 471.408 393.265C461.675 396.802 446.248 396.802 428.5 393.265C410.752 389.729 403.015 387.088 401.081 379.366C399.147 371.644 400.446 346.84 400.446 333.033C400.446 319.226 399.224 311.18 406.651 310.855Z" fill="#BD6AF0" stroke="#263238" stroke-linecap="round" stroke-linejoin="round"/>
<path d="M467.632 361.157C471.702 360.724 475.703 359.796 479.547 358.393C477.071 341.404 473.93 319.906 471.207 316.971C467.014 312.462 460.236 313.744 446.449 313.419C432.663 313.095 406.775 310.855 406.775 310.855C399.348 311.18 400.586 319.226 400.586 333.064C400.586 338.794 400.354 346.377 400.246 353.868C402.072 354.964 423.255 366.423 467.632 361.157Z" fill="#BD6AF0" stroke="#263238" stroke-linecap="round" stroke-linejoin="round"/>
<path d="M405.925 352.307C406.341 356.975 406.217 361.676 405.553 366.315C404.911 370.213 404.544 374.15 404.455 378.099L410.721 380.678C410.721 380.678 411.835 370.732 412.578 366.315C413.083 362.154 413.331 357.966 413.321 353.775L405.925 352.307Z" fill="#263238" stroke="#263238" stroke-linecap="round" stroke-linejoin="round"/>
<path d="M453.923 356.771C453.923 356.771 453.551 363.412 452.824 368.2C452.097 372.987 450.967 384.323 450.967 384.323H458.348C458.348 384.323 460.932 372.987 460.932 368.57C460.932 364.153 461.303 356.4 461.303 356.4L453.923 356.771Z" fill="#263238" stroke="#263238" stroke-linecap="round" stroke-linejoin="round"/>
<path d="M482.765 378.393C480.506 369.698 475.353 321.419 471.16 316.909C470.513 316.226 469.767 315.643 468.947 315.18C466.255 316.045 462.293 318.176 464.058 323.025C466.642 330.099 469.226 364.879 467.926 375.813C466.626 386.748 459.539 391.922 465.992 394.486L466.348 394.624C468.092 394.273 469.808 393.799 471.485 393.204C481.156 389.729 485.024 387.15 482.765 378.393Z" fill="#BD6AF0" stroke="#263238" stroke-linecap="round" stroke-linejoin="round"/>
<path d="M414.358 226.468C414.358 226.468 417.932 246.546 417.932 248.878C417.932 251.21 418.52 251.828 427.99 252.414C437.459 253.002 450.442 253.604 457.838 249.773C465.234 245.944 478.232 237.078 480.893 231.241C483.555 225.403 481.775 224.461 474.704 224.461H465.838C465.838 224.461 463.764 215.905 458.101 213.248C452.438 210.592 443.618 205.279 434.164 209.418C424.709 213.557 417.654 215.518 414.358 226.468Z" fill="#BD6AF0" stroke="#263238" stroke-linecap="round" stroke-linejoin="round"/>
<path d="M463.748 245.048C463.103 245.66 462.606 246.409 462.293 247.241C469.581 242.839 478.711 236.013 480.861 231.179C483.523 225.279 481.744 224.399 474.672 224.399H465.806C465.806 224.399 468.467 232.955 468.467 235.905C468.467 238.855 467.291 241.511 463.748 245.048Z" fill="#263238" stroke="#263238" stroke-linecap="round" stroke-linejoin="round"/>
<path d="M423.332 249.65C423.332 249.65 420.856 241.017 425.39 240.198C429.923 239.38 434.875 250.484 434.875 250.484C431.009 250.928 427.093 250.645 423.332 249.65Z" fill="#263238" stroke="#263238" stroke-linecap="round" stroke-linejoin="round"/>
</g>
<defs>
<filter id="filter0_d_1246_57" x="565.286" y="276.546" width="275.169" height="81.1203" filterUnits="userSpaceOnUse" color-interpolation-filters="sRGB">
<feFlood flood-opacity="0" result="BackgroundImageFix"/>
<feColorMatrix in="SourceAlpha" type="matrix" values="0 0 0 0 0 0 0 0 0 0 0 0 0 0 0 0 0 0 127 0" result="hardAlpha"/>
<feOffset dy="4"/>
<feGaussianBlur stdDeviation="2"/>
<feComposite in2="hardAlpha" operator="out"/>
<feColorMatrix type="matrix" values="0 0 0 0 0 0 0 0 0 0 0 0 0 0 0 0 0 0 0.25 0"/>
<feBlend mode="normal" in2="BackgroundImageFix" result="effect1_dropShadow_1246_57"/>
<feBlend mode="normal" in="SourceGraphic" in2="effect1_dropShadow_1246_57" result="shape"/>
</filter>
<filter id="filter1_d_1246_57" x="354.449" y="242.946" width="181.928" height="181.6" filterUnits="userSpaceOnUse" color-interpolation-filters="sRGB">
<feFlood flood-opacity="0" result="BackgroundImageFix"/>
<feColorMatrix in="SourceAlpha" type="matrix" values="0 0 0 0 0 0 0 0 0 0 0 0 0 0 0 0 0 0 127 0" result="hardAlpha"/>
<feOffset dy="4"/>
<feGaussianBlur stdDeviation="2"/>
<feComposite in2="hardAlpha" operator="out"/>
<feColorMatrix type="matrix" values="0 0 0 0 0 0 0 0 0 0 0 0 0 0 0 0 0 0 0.25 0"/>
<feBlend mode="normal" in2="BackgroundImageFix" result="effect1_dropShadow_1246_57"/>
<feBlend mode="normal" in="SourceGraphic" in2="effect1_dropShadow_1246_57" result="shape"/>
</filter>
<clipPath id="clip0_1246_57">
<rect width="487" height="217" fill="white" transform="translate(357 205)"/>
</clipPath>
</defs>
</svg>
